<svg xmlns="http://www.w3.org/2000/svg" version="1.2" viewBox="468 468 372 372" width="372" height="372">
	<title>edit_image</title>
	<style>
		.s0 { fill: #dbd5eb } 
	</style>
	<g>
		<path fill-rule="evenodd" class="s0" d="m778.8 525.6c-15.4-15.3-40.2-15.3-55.5 0l-185 185.1c-5.5 5.4-9.2 12.4-10.8 20l-7.6 38.4c-3.7 18.3 12.4 34.4 30.7 30.7l38.4-7.6c7.6-1.6 14.6-5.3 20-10.8l185.1-185c15.3-15.3 15.3-40.1 0-55.5zm-37 18.5c5.1-5.1 13.4-5.1 18.5 0l15.3 15.3c5.1 5.1 5.1 13.4 0 18.5l-34.9 34.9-33.8-33.8zm-53.4 53.4l-131.7 131.7c-1.8 1.8-3 4.1-3.5 6.7l-7.7 38.3 38.4-7.7c2.5-0.5 4.8-1.7 6.6-3.5l131.7-131.7z" fill="#dbd5eb"/>
	</g>
</svg>