<?xml version="1.0" encoding="UTF-8" standalone="no" ?>
<!DOCTYPE svg PUBLIC "-//W3C//DTD SVG 1.1//EN" "http://www.w3.org/Graphics/SVG/1.1/DTD/svg11.dtd">
<svg xmlns="http://www.w3.org/2000/svg" xmlns:xlink="http://www.w3.org/1999/xlink" version="1.1" width="840" height="840" viewBox="0 0 840 840" xml:space="preserve">
<desc>Created with Fabric.js 3.6.6</desc>
<defs>
</defs>
<g transform="matrix(13.07 0 0 13.07 660.63 658.63)"  >
<path style="stroke: none; stroke-width: 1; stroke-dasharray: none; stroke-linecap: butt; stroke-dashoffset: 0; stroke-linejoin: miter; stroke-miterlimit: 4; fill: rgb(15,15,15); fill-rule: evenodd; opacity: 1;"  transform=" translate(-11.95, -11.95)" d="M 20.8477 1.87868 C 19.6761 0.707109 17.7766 0.707105 16.605 1.87868 L 2.44744 16.0363 C 2.02864 16.4551 1.74317 16.9885 1.62702 17.5692 L 1.03995 20.5046 C 0.760062 21.904 1.9939 23.1379 3.39334 22.858 L 6.32868 22.2709 C 6.90945 22.1548 7.44285 21.8693 7.86165 21.4505 L 22.0192 7.29289 C 23.1908 6.12132 23.1908 4.22183 22.0192 3.05025 L 20.8477 1.87868 Z M 18.0192 3.29289 C 18.4098 2.90237 19.0429 2.90237 19.4335 3.29289 L 20.605 4.46447 C 20.9956 4.85499 20.9956 5.48815 20.605 5.87868 L 17.9334 8.55027 L 15.3477 5.96448 L 18.0192 3.29289 Z M 13.9334 7.3787 L 3.86165 17.4505 C 3.72205 17.5901 3.6269 17.7679 3.58818 17.9615 L 3.00111 20.8968 L 5.93645 20.3097 C 6.13004 20.271 6.30784 20.1759 6.44744 20.0363 L 16.5192 9.96448 L 13.9334 7.3787 Z" stroke-linecap="round" />
</g>
</svg>