<svg version="1.2" xmlns="http://www.w3.org/2000/svg" viewBox="468 468 372 372" width="372" height="372">
	<title>open</title>
	<style>
		.s0 { fill: none;stroke: #E4CFF0;stroke-linecap: round;stroke-width: 26.7 } 
		.s1 { fill: none;stroke: #E4CFF0;stroke-width: 26.7 } 
	</style>
	<g>
		<g>
			<g>
				<path class="s0" d="m771.7 793h-226.7c-7.4 0-13.3-6-13.3-13.3v-213.4c0-7.3 5.9-13.3 13.3-13.3h63.1c4.7 0 9 2.5 11.5 6.5l16.2 27c2.4 4.1 6.7 6.5 11.4 6.5h124.5c7.3 0 13.3 6 13.3 13.3v40"/>
			</g>
			<g>
				<path class="s1" d="m569 656.2l-32.7 120c-2.3 8.4 4 16.8 12.8 16.8h212.4c6 0 11.3-4 12.8-9.8l32.8-120c2.3-8.5-4.1-16.9-12.9-16.9h-212.3c-6.1 0-11.3 4.1-12.9 9.9z"/>
			</g>
		</g>
	</g>
</svg>