<?xml version="1.0" encoding="iso-8859-1"?>
<!-- Uploaded to: SVG Repo, www.svgrepo.com, Generator: SVG Repo Mixer Tools -->
<!DOCTYPE svg PUBLIC "-//W3C//DTD SVG 1.1//EN" "http://www.w3.org/Graphics/SVG/1.1/DTD/svg11.dtd">
<svg fill="#E8EBE9" height="800px" width="800px" version="1.1" id="Capa_1" xmlns="http://www.w3.org/2000/svg" xmlns:xlink="http://www.w3.org/1999/xlink" 
	 viewBox="0 0 296.083 296.083" xml:space="preserve">
<g>
	<path d="M283.051,165.379c-0.595-1.829-2.075-3.232-3.935-3.727l-28.697-7.635c-3.051-0.813-5.921-2.73-7.636-5.381l-13.615-20.696
		V86.719L239.934,98.5c1.482,1.656,3.648,2.5,5.708,2.5c1.779,0,3.624-0.63,5.054-1.909c3.087-2.762,3.381-7.503,0.62-10.591
		l-9.696-10.856c8.201-1.39,17.005-4.534,21.605-7.431c10.187-6.416,13.259-19.925,6.842-30.114
		c-4.024-6.386-10.933-10.198-18.486-10.198c-4.113,0-8.36,1.162-11.849,3.36c-2.978,1.875-6.563,5.308-10.563,9.218V7.5
		c0-4.143-3.357-7.5-7.5-7.5c-4.143,0-7.5,3.357-7.5,7.5v34.979c-3-3.91-7.127-7.342-10.106-9.217
		c-3.49-2.199-7.394-3.361-11.507-3.361c-7.555,0-14.41,3.812-18.432,10.2c-6.414,10.188-3.318,23.695,6.867,30.113
		c4.602,2.896,13.412,6.04,21.612,7.43L192.902,88.5c-2.761,3.088-2.493,7.829,0.594,10.591c1.432,1.279,3.22,1.909,4.999,1.909
		c2.061,0,3.884-0.844,5.365-2.5l10.308-11.781v41.222l-13.159,20.696c-1.715,2.65-4.24,4.568-7.291,5.381l-28.64,7.635
		c-1.859,0.494-3.31,1.897-3.906,3.727c-0.594,1.83-0.206,3.836,1.007,5.328l18.737,23.042c1.991,2.45,3.004,5.554,2.833,8.707
		l-1.607,29.649c-0.105,1.921,0.773,3.764,2.33,4.895c1.555,1.131,3.579,1.395,5.374,0.703l27.703-10.691
		c2.945-1.137,6.209-1.137,9.154,0l27.703,10.691c1.795,0.691,3.818,0.428,5.374-0.703c1.557-1.131,2.434-2.974,2.329-4.895
		l-1.609-29.649c-0.171-3.153,0.838-6.257,2.829-8.707l18.73-23.042C283.272,169.215,283.646,167.209,283.051,165.379z
		 M247.955,45.953c1.094-0.688,2.349-1.053,3.628-1.053c2.369,0,4.537,1.194,5.796,3.192c2.009,3.19,1.048,7.42-2.141,9.428
		c-3.656,2.303-14.498,5.854-21.412,5.854c-0.27,0-0.516-0.005-0.74-0.016C235.219,58.466,243.071,49.029,247.955,45.953z
		 M210.426,63.374c-6.913,0-17.757-3.551-21.412-5.853c-3.188-2.009-4.148-6.238-2.141-9.428c1.26-2,3.427-3.193,5.797-3.193
		c1.279,0,2.534,0.364,3.629,1.054c4.883,3.075,12.734,12.512,14.868,17.404C210.943,63.369,210.697,63.374,210.426,63.374z"/>
	<path d="M130.963,219.652l-28.697-7.635c-3.051-0.813-5.843-2.73-7.558-5.381L81.169,185.94v-51.184l10.687,11.781
		c1.482,1.656,3.611,2.5,5.671,2.5c1.779,0,3.604-0.63,5.035-1.909c3.087-2.762,3.371-7.503,0.61-10.591l-9.699-10.856
		c8.2-1.39,17.001-4.534,21.601-7.431c10.188-6.416,13.257-19.925,6.841-30.114c-4.024-6.386-10.934-10.198-18.487-10.198
		c-4.113,0-8.283,1.162-11.772,3.36c-2.978,1.875-6.486,5.308-10.486,9.218V7.5c0-4.143-3.357-7.5-7.5-7.5
		c-4.143,0-7.5,3.357-7.5,7.5v83.016c-3-3.91-7.206-7.342-10.182-9.217c-3.49-2.199-7.433-3.361-11.546-3.361
		c-7.555,0-14.429,3.813-18.452,10.2c-6.414,10.188-3.328,23.695,6.858,30.113c4.602,2.896,13.407,6.04,21.607,7.43l-9.705,10.856
		c-2.761,3.088-2.493,7.829,0.594,10.591c1.432,1.279,3.219,1.909,4.998,1.909c2.061,0,3.961-0.844,5.443-2.5l10.385-11.781v51.184
		l-13.235,20.696c-1.715,2.65-4.279,4.568-7.33,5.381l-28.659,7.635c-1.859,0.494-3.32,1.897-3.916,3.727
		c-0.594,1.83-0.211,3.836,1.002,5.328l18.734,23.042c1.991,2.45,3.003,5.554,2.832,8.707l-1.608,29.649
		c-0.104,1.921,0.773,3.764,2.33,4.895c1.556,1.131,3.579,1.395,5.374,0.703l27.703-10.691c2.945-1.137,6.209-1.137,9.154,0
		l27.703,10.691c1.795,0.691,3.818,0.428,5.374-0.703c1.557-1.131,2.434-2.974,2.329-4.895l-1.609-29.649
		c-0.171-3.153,0.838-6.257,2.829-8.707l18.729-23.042c1.213-1.492,1.587-3.498,0.992-5.328
		C134.302,221.55,132.822,220.146,130.963,219.652z M99.8,93.99c1.094-0.688,2.349-1.053,3.628-1.053
		c2.369,0,4.537,1.194,5.796,3.192c2.009,3.19,1.048,7.42-2.141,9.428c-3.656,2.303-14.498,5.854-21.412,5.854
		c-0.27,0-0.516-0.005-0.74-0.016C87.065,106.503,94.917,97.066,99.8,93.99z M62.272,111.411c-6.913,0-17.757-3.551-21.412-5.853
		c-3.189-2.009-4.148-6.238-2.141-9.428c1.26-2,3.427-3.193,5.797-3.193c1.279,0,2.534,0.364,3.629,1.054
		c4.883,3.075,12.734,12.512,14.868,17.404C62.789,111.406,62.543,111.411,62.272,111.411z"/>
</g>
</svg>