<?xml version="1.0" encoding="UTF-8" standalone="no" ?>
<!DOCTYPE svg PUBLIC "-//W3C//DTD SVG 1.1//EN" "http://www.w3.org/Graphics/SVG/1.1/DTD/svg11.dtd">
<svg xmlns="http://www.w3.org/2000/svg" xmlns:xlink="http://www.w3.org/1999/xlink" version="1.1" width="840" height="840" viewBox="0 0 840 840" xml:space="preserve">
<desc>Created with Fabric.js 3.6.6</desc>
<defs>
</defs>
<g transform="matrix(1.66 0 0 1.66 378.08 421)" id="share"  >
<path style="stroke: none; stroke-width: 0; stroke-dasharray: none; stroke-linecap: butt; stroke-dashoffset: 0; stroke-linejoin: miter; stroke-miterlimit: 4; fill: rgb(233,213,235); fill-rule: nonzero; opacity: 1;" vector-effect="non-scaling-stroke"  transform=" translate(-240.8, -240.8)" d="M 381.6 309.4 c -27.7 0 -52.4 13.2 -68.2 33.6 l -132.3 -73.9 c 3.1 -8.9 4.8 -18.5 4.8 -28.4 c 0 -10 -1.7 -19.5 -4.9 -28.5 l 132.2 -73.8 c 15.7 20.5 40.5 33.8 68.3 33.8 c 47.4 0 86.1 -38.6 86.1 -86.1 S 429 0 381.5 0 s -86.1 38.6 -86.1 86.1 c 0 10 1.7 19.6 4.9 28.5 l -132.1 73.8 c -15.7 -20.6 -40.5 -33.8 -68.3 -33.8 c -47.4 0 -86.1 38.6 -86.1 86.1 s 38.7 86.1 86.2 86.1 c 27.8 0 52.6 -13.3 68.4 -33.9 l 132.2 73.9 c -3.2 9 -5 18.7 -5 28.7 c 0 47.4 38.6 86.1 86.1 86.1 s 86.1 -38.6 86.1 -86.1 S 429.1 309.4 381.6 309.4 z M 381.6 27.1 c 32.6 0 59.1 26.5 59.1 59.1 s -26.5 59.1 -59.1 59.1 s -59.1 -26.5 -59.1 -59.1 S 349.1 27.1 381.6 27.1 z M 100 299.8 c -32.6 0 -59.1 -26.5 -59.1 -59.1 s 26.5 -59.1 59.1 -59.1 s 59.1 26.5 59.1 59.1 S 132.5 299.8 100 299.8 z M 381.6 454.5 c -32.6 0 -59.1 -26.5 -59.1 -59.1 c 0 -32.6 26.5 -59.1 59.1 -59.1 s 59.1 26.5 59.1 59.1 C 440.7 428 414.2 454.5 381.6 454.5 z" stroke-linecap="round" />
</g>
<g transform="matrix(1 0 0 1 190.5 160.25)"  >
<line style="stroke: rgb(0,0,0); stroke-width: 2; stroke-dasharray: none; stroke-linecap: butt; stroke-dashoffset: 0; stroke-linejoin: miter; stroke-miterlimit: 4; fill: rgb(0,0,0); fill-rule: nonzero; opacity: 1;" vector-effect="non-scaling-stroke"  x1="0" y1="0" x2="0" y2="0" />
</g>
<g transform="matrix(1 0 0 1 274.5 120.25)"  >
<line style="stroke: rgb(0,0,0); stroke-width: 2; stroke-dasharray: none; stroke-linecap: butt; stroke-dashoffset: 0; stroke-linejoin: miter; stroke-miterlimit: 4; fill: rgb(0,0,0); fill-rule: nonzero; opacity: 1;" vector-effect="non-scaling-stroke"  x1="0" y1="0" x2="0" y2="0" />
</g>
<g transform="matrix(1 0 0 1 256.5 331.25)"  >
<line style="stroke: rgb(0,0,0); stroke-width: 2; stroke-dasharray: none; stroke-linecap: butt; stroke-dashoffset: 0; stroke-linejoin: miter; stroke-miterlimit: 4; fill: rgb(0,0,0); fill-rule: nonzero; opacity: 1;" vector-effect="non-scaling-stroke"  x1="0" y1="0" x2="0" y2="0" />
</g>
<g transform="matrix(1 0 0 1 572.5 379.25)"  >
<line style="stroke: rgb(0,0,0); stroke-width: 2; stroke-dasharray: none; stroke-linecap: butt; stroke-dashoffset: 0; stroke-linejoin: miter; stroke-miterlimit: 4; fill: rgb(0,0,0); fill-rule: nonzero; opacity: 1;" vector-effect="non-scaling-stroke"  x1="0" y1="0" x2="0" y2="0" />
</g>
</svg>