<?xml version="1.0" encoding="UTF-8" standalone="no" ?>
<!DOCTYPE svg PUBLIC "-//W3C//DTD SVG 1.1//EN" "http://www.w3.org/Graphics/SVG/1.1/DTD/svg11.dtd">
<svg xmlns="http://www.w3.org/2000/svg" xmlns:xlink="http://www.w3.org/1999/xlink" version="1.1" width="800" height="800" viewBox="0 0 800 800" xml:space="preserve">
<desc>Created with Fabric.js 3.6.6</desc>
<defs>
</defs>
<g transform="matrix(0.56 0 0 0.56 231.63 228.63)"  >
<g style=""   >
		<g transform="matrix(33.33 0 0 33.33 -152.13 -157.19)"  >
<path style="stroke: none; stroke-width: 1; stroke-dasharray: none; stroke-linecap: butt; stroke-dashoffset: 0; stroke-linejoin: miter; stroke-miterlimit: 4; fill: rgb(227,220,198); fill-rule: nonzero; opacity: 1;"  transform=" translate(-7.44, -7.28)" d="M 10.25 12.33 C 10.129 12.3286 10.0097 12.3013 9.90001 12.25 L 7.44002 11 L 5.00002 12.25 C 4.87533 12.3165 4.7344 12.3464 4.59347 12.3363 C 4.45253 12.3261 4.31732 12.2764 4.20341 12.1928 C 4.0895 12.1092 4.00153 11.9951 3.94962 11.8637 C 3.89771 11.7323 3.88398 11.5889 3.91002 11.45 L 4.38002 8.72001 L 2.38002 6.78001 C 2.27697 6.68178 2.20358 6.55658 2.16822 6.41868 C 2.13286 6.28077 2.13695 6.13571 2.18002 6.00001 C 2.22367 5.86637 2.30401 5.7477 2.41187 5.65752 C 2.51973 5.56735 2.65076 5.5093 2.79002 5.49001 L 5.54002 5.09001 L 6.76002 2.61001 C 6.83048 2.49413 6.9296 2.39834 7.04782 2.33186 C 7.16604 2.26539 7.29939 2.23047 7.43502 2.23047 C 7.57064 2.23047 7.70399 2.26539 7.82221 2.33186 C 7.94043 2.39834 8.03955 2.49413 8.11001 2.61001 L 9.34002 5.10001 L 12.09 5.50001 C 12.2282 5.5209 12.3578 5.57998 12.4642 5.67058 C 12.5706 5.76119 12.6495 5.87972 12.6922 6.0128 C 12.7348 6.14589 12.7394 6.28823 12.7054 6.42379 C 12.6715 6.55935 12.6003 6.68273 12.5 6.78001 L 10.5 8.72001 L 11 11.45 C 11.0259 11.5881 11.0124 11.7307 10.9611 11.8616 C 10.9098 11.9924 10.8228 12.1062 10.71 12.19 C 10.575 12.2833 10.4142 12.3323 10.25 12.33 Z M 4.51002 6.76001 L 5.69002 7.92001 C 5.77798 8.00356 5.84405 8.10745 5.88241 8.22255 C 5.92078 8.33764 5.93025 8.46039 5.91002 8.58001 L 5.63002 10.21 L 7.09002 9.44001 C 7.19863 9.38548 7.31848 9.35708 7.44002 9.35708 C 7.56155 9.35708 7.6814 9.38548 7.79002 9.44001 L 9.25002 10.21 L 9.00002 8.58001 C 8.97978 8.46039 8.98925 8.33764 9.02762 8.22255 C 9.06598 8.10745 9.13205 8.00356 9.22002 7.92001 L 10.4 6.76001 L 8.73001 6.53001 C 8.61082 6.51105 8.49786 6.46397 8.40048 6.39267 C 8.3031 6.32137 8.2241 6.22791 8.17002 6.12001 L 7.44002 4.63001 L 6.71002 6.12001 C 6.65498 6.22915 6.57443 6.32341 6.4752 6.39478 C 6.37597 6.46616 6.26099 6.51255 6.14002 6.53001 L 4.51002 6.76001 Z" stroke-linecap="round" />
</g>
		<g transform="matrix(33.33 0 0 33.33 122.61 130.68)"  >
<path style="stroke: none; stroke-width: 1; stroke-dasharray: none; stroke-linecap: butt; stroke-dashoffset: 0; stroke-linejoin: miter; stroke-miterlimit: 4; fill: rgb(227,220,198); fill-rule: nonzero; opacity: 1;"  transform=" translate(-15.68, -15.92)" d="M 12.33 21.81 C 12.1727 21.8082 12.0195 21.7594 11.89 21.67 C 11.7763 21.5866 11.688 21.4733 11.635 21.3426 C 11.582 21.2119 11.5664 21.069 11.59 20.93 L 12.17 17.59 L 9.74002 15.22 C 9.63751 15.1236 9.56504 14.9997 9.53133 14.8631 C 9.49762 14.7264 9.50411 14.583 9.55002 14.45 C 9.59292 14.3177 9.67174 14.2 9.7777 14.1099 C 9.88365 14.0199 10.0126 13.961 10.15 13.94 L 13.51 13.46 L 15 10.41 C 15.0705 10.2941 15.1696 10.1983 15.2878 10.1318 C 15.406 10.0654 15.5394 10.0305 15.675 10.0305 C 15.8106 10.0305 15.944 10.0654 16.0622 10.1318 C 16.1804 10.1983 16.2795 10.2941 16.35 10.41 L 17.85 13.46 L 21.2 13.94 C 21.339 13.9593 21.4698 14.0173 21.5775 14.1073 C 21.6852 14.1973 21.7655 14.3157 21.8092 14.449 C 21.853 14.5824 21.8584 14.7253 21.825 14.8616 C 21.7915 14.9979 21.7205 15.1221 21.62 15.22 L 19.2 17.59 L 19.77 20.93 C 19.7947 21.0681 19.7806 21.2103 19.7295 21.3409 C 19.6783 21.4715 19.5919 21.5854 19.48 21.67 C 19.3622 21.7458 19.2251 21.7861 19.085 21.7861 C 18.9449 21.7861 18.8078 21.7458 18.69 21.67 L 15.69 20.1 L 12.69 21.67 C 12.5848 21.7481 12.4604 21.7965 12.33 21.81 Z M 11.87 15.21 L 13.5 16.79 C 13.5856 16.877 13.6493 16.9832 13.6858 17.0997 C 13.7223 17.2162 13.7306 17.3397 13.71 17.46 L 13.33 19.69 L 15.33 18.63 C 15.4386 18.5755 15.5585 18.5471 15.68 18.5471 C 15.8016 18.5471 15.9214 18.5755 16.03 18.63 L 18.03 19.69 L 17.65 17.46 C 17.6249 17.3397 17.6311 17.2149 17.6678 17.0977 C 17.7046 16.9804 17.7707 16.8745 17.86 16.79 L 19.48 15.21 L 17.24 14.88 C 17.1197 14.8644 17.0053 14.8186 16.9074 14.7469 C 16.8094 14.6753 16.7312 14.58 16.68 14.47 L 15.68 12.47 L 14.68 14.47 C 14.6288 14.58 14.5506 14.6753 14.4527 14.7469 C 14.3548 14.8186 14.2403 14.8644 14.12 14.88 L 11.87 15.21 Z" stroke-linecap="round" />
</g>
</g>
</g>
<g transform="matrix(-0.34 0 0 0.34 93.88 565.13)"  >
<g style="" vector-effect="non-scaling-stroke"   >
		<g transform="matrix(33.33 0 0 33.33 -152.15 -157.21)"  >
<path style="stroke: none; stroke-width: 1; stroke-dasharray: none; stroke-linecap: butt; stroke-dashoffset: 0; stroke-linejoin: miter; stroke-miterlimit: 4; fill: rgb(227,220,198); fill-rule: nonzero; opacity: 1;"  transform=" translate(-7.44, -7.28)" d="M 10.25 12.33 C 10.129 12.3286 10.0097 12.3013 9.90001 12.25 L 7.44002 11 L 5.00002 12.25 C 4.87533 12.3165 4.7344 12.3464 4.59347 12.3363 C 4.45253 12.3261 4.31732 12.2764 4.20341 12.1928 C 4.0895 12.1092 4.00153 11.9951 3.94962 11.8637 C 3.89771 11.7323 3.88398 11.5889 3.91002 11.45 L 4.38002 8.72001 L 2.38002 6.78001 C 2.27697 6.68178 2.20358 6.55658 2.16822 6.41868 C 2.13286 6.28077 2.13695 6.13571 2.18002 6.00001 C 2.22367 5.86637 2.30401 5.7477 2.41187 5.65752 C 2.51973 5.56735 2.65076 5.5093 2.79002 5.49001 L 5.54002 5.09001 L 6.76002 2.61001 C 6.83048 2.49413 6.9296 2.39834 7.04782 2.33186 C 7.16604 2.26539 7.29939 2.23047 7.43502 2.23047 C 7.57064 2.23047 7.70399 2.26539 7.82221 2.33186 C 7.94043 2.39834 8.03955 2.49413 8.11001 2.61001 L 9.34002 5.10001 L 12.09 5.50001 C 12.2282 5.5209 12.3578 5.57998 12.4642 5.67058 C 12.5706 5.76119 12.6495 5.87972 12.6922 6.0128 C 12.7348 6.14589 12.7394 6.28823 12.7054 6.42379 C 12.6715 6.55935 12.6003 6.68273 12.5 6.78001 L 10.5 8.72001 L 11 11.45 C 11.0259 11.5881 11.0124 11.7307 10.9611 11.8616 C 10.9098 11.9924 10.8228 12.1062 10.71 12.19 C 10.575 12.2833 10.4142 12.3323 10.25 12.33 Z M 4.51002 6.76001 L 5.69002 7.92001 C 5.77798 8.00356 5.84405 8.10745 5.88241 8.22255 C 5.92078 8.33764 5.93025 8.46039 5.91002 8.58001 L 5.63002 10.21 L 7.09002 9.44001 C 7.19863 9.38548 7.31848 9.35708 7.44002 9.35708 C 7.56155 9.35708 7.6814 9.38548 7.79002 9.44001 L 9.25002 10.21 L 9.00002 8.58001 C 8.97978 8.46039 8.98925 8.33764 9.02762 8.22255 C 9.06598 8.10745 9.13205 8.00356 9.22002 7.92001 L 10.4 6.76001 L 8.73001 6.53001 C 8.61082 6.51105 8.49786 6.46397 8.40048 6.39267 C 8.3031 6.32137 8.2241 6.22791 8.17002 6.12001 L 7.44002 4.63001 L 6.71002 6.12001 C 6.65498 6.22915 6.57443 6.32341 6.4752 6.39478 C 6.37597 6.46616 6.26099 6.51255 6.14002 6.53001 L 4.51002 6.76001 Z" stroke-linecap="round" />
</g>
		<g transform="matrix(33.33 0 0 33.33 122.59 130.65)"  >
<path style="stroke: none; stroke-width: 1; stroke-dasharray: none; stroke-linecap: butt; stroke-dashoffset: 0; stroke-linejoin: miter; stroke-miterlimit: 4; fill: rgb(227,220,198); fill-rule: nonzero; opacity: 1;"  transform=" translate(-15.68, -15.92)" d="M 12.33 21.81 C 12.1727 21.8082 12.0195 21.7594 11.89 21.67 C 11.7763 21.5866 11.688 21.4733 11.635 21.3426 C 11.582 21.2119 11.5664 21.069 11.59 20.93 L 12.17 17.59 L 9.74002 15.22 C 9.63751 15.1236 9.56504 14.9997 9.53133 14.8631 C 9.49762 14.7264 9.50411 14.583 9.55002 14.45 C 9.59292 14.3177 9.67174 14.2 9.7777 14.1099 C 9.88365 14.0199 10.0126 13.961 10.15 13.94 L 13.51 13.46 L 15 10.41 C 15.0705 10.2941 15.1696 10.1983 15.2878 10.1318 C 15.406 10.0654 15.5394 10.0305 15.675 10.0305 C 15.8106 10.0305 15.944 10.0654 16.0622 10.1318 C 16.1804 10.1983 16.2795 10.2941 16.35 10.41 L 17.85 13.46 L 21.2 13.94 C 21.339 13.9593 21.4698 14.0173 21.5775 14.1073 C 21.6852 14.1973 21.7655 14.3157 21.8092 14.449 C 21.853 14.5824 21.8584 14.7253 21.825 14.8616 C 21.7915 14.9979 21.7205 15.1221 21.62 15.22 L 19.2 17.59 L 19.77 20.93 C 19.7947 21.0681 19.7806 21.2103 19.7295 21.3409 C 19.6783 21.4715 19.5919 21.5854 19.48 21.67 C 19.3622 21.7458 19.2251 21.7861 19.085 21.7861 C 18.9449 21.7861 18.8078 21.7458 18.69 21.67 L 15.69 20.1 L 12.69 21.67 C 12.5848 21.7481 12.4604 21.7965 12.33 21.81 Z M 11.87 15.21 L 13.5 16.79 C 13.5856 16.877 13.6493 16.9832 13.6858 17.0997 C 13.7223 17.2162 13.7306 17.3397 13.71 17.46 L 13.33 19.69 L 15.33 18.63 C 15.4386 18.5755 15.5585 18.5471 15.68 18.5471 C 15.8016 18.5471 15.9214 18.5755 16.03 18.63 L 18.03 19.69 L 17.65 17.46 C 17.6249 17.3397 17.6311 17.2149 17.6678 17.0977 C 17.7046 16.9804 17.7707 16.8745 17.86 16.79 L 19.48 15.21 L 17.24 14.88 C 17.1197 14.8644 17.0053 14.8186 16.9074 14.7469 C 16.8094 14.6753 16.7312 14.58 16.68 14.47 L 15.68 12.47 L 14.68 14.47 C 14.6288 14.58 14.5506 14.6753 14.4527 14.7469 C 14.3548 14.8186 14.2403 14.8644 14.12 14.88 L 11.87 15.21 Z" stroke-linecap="round" />
</g>
</g>
</g>
<g transform="matrix(-0.34 0 0 0.34 572 124.25)"  >
<g style="" vector-effect="non-scaling-stroke"   >
		<g transform="matrix(33.33 0 0 33.33 -152.15 -157.21)"  >
<path style="stroke: none; stroke-width: 1; stroke-dasharray: none; stroke-linecap: butt; stroke-dashoffset: 0; stroke-linejoin: miter; stroke-miterlimit: 4; fill: rgb(227,220,198); fill-rule: nonzero; opacity: 1;"  transform=" translate(-7.44, -7.28)" d="M 10.25 12.33 C 10.129 12.3286 10.0097 12.3013 9.90001 12.25 L 7.44002 11 L 5.00002 12.25 C 4.87533 12.3165 4.7344 12.3464 4.59347 12.3363 C 4.45253 12.3261 4.31732 12.2764 4.20341 12.1928 C 4.0895 12.1092 4.00153 11.9951 3.94962 11.8637 C 3.89771 11.7323 3.88398 11.5889 3.91002 11.45 L 4.38002 8.72001 L 2.38002 6.78001 C 2.27697 6.68178 2.20358 6.55658 2.16822 6.41868 C 2.13286 6.28077 2.13695 6.13571 2.18002 6.00001 C 2.22367 5.86637 2.30401 5.7477 2.41187 5.65752 C 2.51973 5.56735 2.65076 5.5093 2.79002 5.49001 L 5.54002 5.09001 L 6.76002 2.61001 C 6.83048 2.49413 6.9296 2.39834 7.04782 2.33186 C 7.16604 2.26539 7.29939 2.23047 7.43502 2.23047 C 7.57064 2.23047 7.70399 2.26539 7.82221 2.33186 C 7.94043 2.39834 8.03955 2.49413 8.11001 2.61001 L 9.34002 5.10001 L 12.09 5.50001 C 12.2282 5.5209 12.3578 5.57998 12.4642 5.67058 C 12.5706 5.76119 12.6495 5.87972 12.6922 6.0128 C 12.7348 6.14589 12.7394 6.28823 12.7054 6.42379 C 12.6715 6.55935 12.6003 6.68273 12.5 6.78001 L 10.5 8.72001 L 11 11.45 C 11.0259 11.5881 11.0124 11.7307 10.9611 11.8616 C 10.9098 11.9924 10.8228 12.1062 10.71 12.19 C 10.575 12.2833 10.4142 12.3323 10.25 12.33 Z M 4.51002 6.76001 L 5.69002 7.92001 C 5.77798 8.00356 5.84405 8.10745 5.88241 8.22255 C 5.92078 8.33764 5.93025 8.46039 5.91002 8.58001 L 5.63002 10.21 L 7.09002 9.44001 C 7.19863 9.38548 7.31848 9.35708 7.44002 9.35708 C 7.56155 9.35708 7.6814 9.38548 7.79002 9.44001 L 9.25002 10.21 L 9.00002 8.58001 C 8.97978 8.46039 8.98925 8.33764 9.02762 8.22255 C 9.06598 8.10745 9.13205 8.00356 9.22002 7.92001 L 10.4 6.76001 L 8.73001 6.53001 C 8.61082 6.51105 8.49786 6.46397 8.40048 6.39267 C 8.3031 6.32137 8.2241 6.22791 8.17002 6.12001 L 7.44002 4.63001 L 6.71002 6.12001 C 6.65498 6.22915 6.57443 6.32341 6.4752 6.39478 C 6.37597 6.46616 6.26099 6.51255 6.14002 6.53001 L 4.51002 6.76001 Z" stroke-linecap="round" />
</g>
		<g transform="matrix(33.33 0 0 33.33 122.59 130.65)"  >
<path style="stroke: none; stroke-width: 1; stroke-dasharray: none; stroke-linecap: butt; stroke-dashoffset: 0; stroke-linejoin: miter; stroke-miterlimit: 4; fill: rgb(227,220,198); fill-rule: nonzero; opacity: 1;"  transform=" translate(-15.68, -15.92)" d="M 12.33 21.81 C 12.1727 21.8082 12.0195 21.7594 11.89 21.67 C 11.7763 21.5866 11.688 21.4733 11.635 21.3426 C 11.582 21.2119 11.5664 21.069 11.59 20.93 L 12.17 17.59 L 9.74002 15.22 C 9.63751 15.1236 9.56504 14.9997 9.53133 14.8631 C 9.49762 14.7264 9.50411 14.583 9.55002 14.45 C 9.59292 14.3177 9.67174 14.2 9.7777 14.1099 C 9.88365 14.0199 10.0126 13.961 10.15 13.94 L 13.51 13.46 L 15 10.41 C 15.0705 10.2941 15.1696 10.1983 15.2878 10.1318 C 15.406 10.0654 15.5394 10.0305 15.675 10.0305 C 15.8106 10.0305 15.944 10.0654 16.0622 10.1318 C 16.1804 10.1983 16.2795 10.2941 16.35 10.41 L 17.85 13.46 L 21.2 13.94 C 21.339 13.9593 21.4698 14.0173 21.5775 14.1073 C 21.6852 14.1973 21.7655 14.3157 21.8092 14.449 C 21.853 14.5824 21.8584 14.7253 21.825 14.8616 C 21.7915 14.9979 21.7205 15.1221 21.62 15.22 L 19.2 17.59 L 19.77 20.93 C 19.7947 21.0681 19.7806 21.2103 19.7295 21.3409 C 19.6783 21.4715 19.5919 21.5854 19.48 21.67 C 19.3622 21.7458 19.2251 21.7861 19.085 21.7861 C 18.9449 21.7861 18.8078 21.7458 18.69 21.67 L 15.69 20.1 L 12.69 21.67 C 12.5848 21.7481 12.4604 21.7965 12.33 21.81 Z M 11.87 15.21 L 13.5 16.79 C 13.5856 16.877 13.6493 16.9832 13.6858 17.0997 C 13.7223 17.2162 13.7306 17.3397 13.71 17.46 L 13.33 19.69 L 15.33 18.63 C 15.4386 18.5755 15.5585 18.5471 15.68 18.5471 C 15.8016 18.5471 15.9214 18.5755 16.03 18.63 L 18.03 19.69 L 17.65 17.46 C 17.6249 17.3397 17.6311 17.2149 17.6678 17.0977 C 17.7046 16.9804 17.7707 16.8745 17.86 16.79 L 19.48 15.21 L 17.24 14.88 C 17.1197 14.8644 17.0053 14.8186 16.9074 14.7469 C 16.8094 14.6753 16.7312 14.58 16.68 14.47 L 15.68 12.47 L 14.68 14.47 C 14.6288 14.58 14.5506 14.6753 14.4527 14.7469 C 14.3548 14.8186 14.2403 14.8644 14.12 14.88 L 11.87 15.21 Z" stroke-linecap="round" />
</g>
</g>
</g>
<g transform="matrix(1 0 0 1 127 627.5)"  >
<path style="stroke: rgb(0,0,0); stroke-width: 1; stroke-dasharray: none; stroke-linecap: round; stroke-dashoffset: 0; stroke-linejoin: round; stroke-miterlimit: 10; fill: none; fill-rule: nonzero; opacity: 1;"  transform=" translate(-127, -627.5)" d="M 126.999 627.5 L 127.001 627.5" stroke-linecap="round" />
</g>
</svg>