<?xml version="1.0" standalone="no"?>
<!DOCTYPE svg PUBLIC "-//W3C//DTD SVG 20010904//EN"
 "http://www.w3.org/TR/2001/REC-SVG-20010904/DTD/svg10.dtd">
<svg version="1.0" xmlns="http://www.w3.org/2000/svg"
 width="1251.000000pt" height="1280.000000pt" viewBox="0 0 1251.000000 1280.000000"
 preserveAspectRatio="xMidYMid meet">
<metadata>
Created by potrace 1.15, written by Peter Selinger 2001-2017
</metadata>
<g transform="translate(0.000000,1280.000000) scale(0.100000,-0.100000)"
fill="#efddc9" stroke="none">
<path d="M6046 12778 c-37 -60 -38 -95 -47 -1678 -4 -850 -11 -1563 -13 -1585
-3 -22 -10 -101 -16 -175 -22 -266 -69 -574 -126 -822 -50 -218 -192 -735
-302 -1098 -79 -260 -108 -316 -284 -547 -103 -136 -199 -332 -272 -553 -61
-186 -72 -237 -25 -120 46 114 139 301 217 435 109 187 245 403 237 375 -21
-68 -116 -275 -206 -445 -264 -501 -328 -650 -417 -975 -169 -619 -259 -1220
-314 -2115 -18 -293 -14 -3435 5 -3447 20 -13 48 -9 92 12 50 24 86 84 110
181 21 83 29 333 17 519 -7 121 -1 319 39 1200 27 580 53 1233 59 1450 20 777
31 1071 46 1276 42 591 140 1039 315 1457 27 65 113 249 191 410 233 483 277
585 362 842 118 359 280 1073 335 1480 67 491 74 733 66 2215 -6 1162 -6 1279
10 1431 19 180 15 249 -16 280 -25 25 -45 24 -63 -3z"/>
<path d="M4935 12781 c-11 -5 -30 -7 -42 -4 -18 4 -23 1 -23 -13 0 -11 -7 -37
-15 -59 -9 -26 -14 -81 -15 -153 0 -166 -49 -568 -125 -1037 -53 -327 -94
-520 -230 -1085 -42 -173 -82 -344 -90 -380 -23 -103 -177 -551 -244 -708
-153 -357 -354 -712 -552 -972 -49 -65 -145 -153 -177 -162 -21 -6 -343 369
-513 597 -309 416 -546 843 -651 1175 -140 443 -230 797 -332 1310 -73 368
-84 458 -96 770 -14 370 -36 523 -91 631 -23 46 -73 89 -104 89 -22 0 -23 -4
-30 -107 -15 -214 18 -888 61 -1248 182 -1539 751 -2918 1697 -4108 l70 -88
35 52 c593 881 985 1954 1262 3454 82 443 319 2029 306 2043 -9 9 -82 11 -101
3z"/>
<path d="M7123 12783 c-25 -10 -15 -1292 21 -2678 9 -324 20 -808 26 -1075 14
-647 37 -884 120 -1237 68 -284 154 -493 336 -809 453 -789 690 -1592 780
-2644 34 -405 29 -1155 -11 -1685 -38 -486 -64 -712 -135 -1165 -91 -581 -133
-773 -220 -1025 -45 -129 -137 -324 -189 -398 -17 -25 -31 -47 -31 -49 0 -8
176 19 195 29 62 35 131 135 181 263 161 419 255 1166 295 2365 13 387 6 1718
-10 2015 -29 519 -55 814 -85 957 -39 182 -136 432 -368 943 -277 611 -365
838 -423 1095 -15 66 -33 136 -40 155 -33 84 -105 562 -135 890 -33 372 -39
541 -49 1335 -12 886 -16 1088 -37 1793 -11 378 -13 554 -6 635 20 222 -16
298 -142 296 -33 0 -67 -3 -73 -6z"/>
<path d="M9189 12783 l-36 -4 -5 -1717 c-5 -1756 3 -3228 22 -3932 17 -663 22
-773 104 -2300 37 -683 45 -877 56 -1370 10 -459 -1 -1238 -18 -1249 -5 -3
-12 -71 -16 -151 -6 -146 -27 -367 -66 -690 -44 -369 -66 -478 -165 -810 -88
-296 -117 -421 -113 -480 l3 -45 59 -3 c77 -4 193 14 231 36 56 33 62 56 74
307 6 127 18 347 26 490 88 1538 102 3006 50 5430 -17 801 -31 2071 -45 4065
-13 1888 -14 2162 -5 2246 14 139 -31 190 -156 177z"/>
<path d="M10391 12783 l-24 -5 7 -106 c25 -426 30 -638 31 -1262 0 -686 -5
-833 -41 -1325 -37 -510 -73 -741 -244 -1550 -49 -231 -104 -499 -122 -595
-18 -96 -34 -168 -36 -160 -8 43 176 1034 249 1339 30 126 36 166 18 121 -16
-39 -143 -566 -183 -755 -96 -461 -158 -896 -186 -1320 -28 -427 -39 -1598
-20 -2058 31 -720 81 -1239 210 -2152 86 -607 126 -947 156 -1315 22 -263 25
-941 6 -1105 -23 -196 -58 -374 -98 -507 -5 -17 8 -18 176 -18 280 0 283 3
289 245 5 265 -21 904 -55 1330 -34 434 -59 603 -194 1350 -156 864 -204 1153
-254 1530 -84 634 -112 1117 -102 1735 12 775 65 1290 226 2195 110 621 159
992 214 1635 33 375 120 1548 141 1892 8 135 22 297 31 359 9 63 17 168 17
234 1 109 -1 125 -26 178 -22 48 -33 61 -69 77 -42 19 -68 22 -117 13z m-434
-5065 c-3 -8 -6 -5 -6 6 -1 11 2 17 5 13 3 -3 4 -12 1 -19z"/>
<path d="M354 12770 c-35 -14 -72 -67 -83 -120 -14 -67 -14 -103 4 -305 8 -93
19 -287 25 -430 21 -521 96 -1217 204 -1900 136 -861 368 -1568 881 -2685 181
-394 289 -660 391 -965 265 -793 428 -1644 523 -2730 40 -452 56 -729 106
-1760 29 -601 34 -785 32 -1115 -2 -337 1 -406 15 -470 45 -204 104 -280 216
-280 l49 0 7 143 c35 723 22 1696 -34 2422 -88 1149 -276 2300 -551 3389 -128
502 -233 748 -646 1506 -348 639 -469 895 -568 1200 -233 716 -397 1620 -474
2605 -39 495 -44 644 -37 1083 l6 422 -22 -1 c-13 0 -32 -4 -44 -9z"/>
<path d="M1074 12728 c3 -29 8 -123 11 -208 17 -442 75 -1176 121 -1535 89
-700 272 -1473 541 -2290 187 -569 288 -811 688 -1650 545 -1144 679 -1504
769 -2066 49 -309 65 -589 75 -1374 5 -352 20 -1100 32 -1662 22 -985 22
-1029 6 -1220 -37 -421 -14 -578 96 -667 35 -28 47 -31 116 -34 l78 -4 7 384
c3 212 1 807 -5 1324 -19 1571 -2 2263 77 3054 77 773 222 1471 439 2108 80
237 137 372 335 797 98 209 196 423 218 475 182 430 278 804 461 1810 127 700
194 1293 266 2355 30 452 30 445 7 445 -27 0 -68 -49 -86 -102 -28 -84 -37
-216 -35 -512 2 -312 0 -343 -71 -881 -104 -781 -257 -1479 -495 -2260 -158
-515 -234 -717 -602 -1590 -77 -181 -150 -356 -163 -387 -13 -32 -25 -56 -27
-54 -3 3 73 208 170 456 25 63 127 317 227 564 99 246 179 450 177 452 -2 3
-27 -48 -55 -113 -28 -65 -112 -251 -187 -413 -335 -723 -443 -992 -561 -1398
-97 -334 -205 -822 -250 -1125 -10 -64 -21 -114 -24 -110 -4 5 -15 37 -24 73
-31 115 -107 341 -163 485 -30 77 -83 217 -118 310 -194 526 -393 931 -574
1169 -79 103 -348 650 -484 981 -91 223 -262 778 -363 1179 -209 833 -365
1855 -477 3141 l-12 140 -73 3 -74 3 6 -53z m1258 -5068 c32 -58 47 -92 34
-76 -25 30 -116 197 -116 212 0 5 6 0 12 -11 6 -11 37 -67 70 -125z"/>
<path d="M1954 12763 c2 -10 7 -70 11 -133 66 -1185 317 -2172 743 -2920 168
-295 439 -657 635 -848 l44 -43 90 83 c585 541 919 1328 1072 2528 42 327 128
1326 116 1338 -9 10 -38 -12 -62 -47 -42 -62 -62 -227 -63 -511 0 -233 -30
-500 -101 -905 -69 -392 -115 -574 -224 -873 -119 -329 -221 -543 -371 -774
-109 -169 -305 -418 -401 -511 l-39 -37 -84 57 c-103 70 -290 249 -376 359
-192 245 -359 584 -493 997 -77 238 -84 271 -191 915 -145 868 -206 1167 -266
1290 -24 49 -51 72 -40 35z"/>
<path d="M4370 12598 c0 -501 -88 -1006 -265 -1527 -104 -305 -264 -670 -419
-951 -86 -156 -269 -460 -277 -460 -11 0 -170 217 -266 363 -122 186 -251 414
-363 642 -104 214 -228 512 -254 610 -8 33 -58 274 -111 535 -124 613 -178
830 -231 921 -28 47 -40 46 -36 -3 80 -1112 384 -2073 892 -2828 113 -169 354
-480 371 -480 3 0 37 26 75 58 168 141 327 369 439 632 173 404 356 1184 474
2030 25 176 81 616 81 635 0 3 -25 5 -55 5 l-55 0 0 -182z"/>
<path d="M5772 12772 l-53 -3 8 -62 c12 -95 8 -574 -6 -737 -6 -80 -25 -275
-42 -435 -149 -1453 -237 -2109 -374 -2790 -42 -205 -82 -373 -84 -350 -1 6 8
57 19 114 21 109 21 150 0 59 -25 -104 -90 -308 -153 -474 -85 -224 -159 -392
-377 -859 -258 -551 -421 -934 -417 -975 1 -8 -17 -73 -40 -145 -120 -373
-195 -798 -238 -1332 -43 -550 -66 -2521 -48 -4157 l6 -608 134 4 c73 3 135 6
137 9 2 2 -2 148 -10 324 -53 1267 -41 2564 32 3530 60 798 208 1961 281 2210
36 126 94 264 242 583 143 310 179 398 250 622 408 1288 638 2666 746 4470 19
327 47 964 43 987 -2 15 -11 18 -56 15z"/>
<path d="M6450 12744 c-1 -22 12 -926 27 -2009 22 -1641 25 -1983 14 -2043 -7
-40 -16 -70 -21 -67 -4 3 -11 -11 -14 -31 -12 -63 -105 -394 -171 -609 -69
-225 -124 -355 -350 -825 -70 -146 -169 -353 -220 -460 -51 -107 -129 -267
-173 -355 -129 -258 -199 -446 -272 -728 -109 -422 -159 -819 -215 -1697 -9
-135 -29 -429 -45 -655 -68 -955 -95 -1611 -106 -2610 -7 -561 -6 -602 10
-618 44 -43 136 -2 136 61 0 113 62 1366 85 1742 106 1659 186 2404 351 3270
132 693 200 905 517 1615 293 656 400 968 452 1311 8 53 16 99 18 101 2 2 7
-17 11 -43 10 -79 73 -314 120 -449 134 -390 301 -699 653 -1206 280 -405 422
-668 538 -1002 152 -435 208 -834 235 -1668 19 -579 -18 -1279 -91 -1719 -36
-222 -89 -427 -234 -915 -151 -505 -203 -708 -244 -954 -28 -163 -27 -171 4
-171 44 0 92 27 119 66 38 56 54 154 64 384 l9 206 76 224 c77 226 128 417
192 708 221 1018 272 1968 175 3228 -31 403 -115 737 -275 1094 -88 198 -161
310 -405 625 -68 88 -147 196 -175 240 -109 166 -270 518 -344 750 -37 116
-151 557 -167 650 -4 22 -9 35 -11 28 -3 -7 5 -59 16 -117 41 -202 16 -127
-48 149 -88 376 -78 161 -97 2175 -14 1410 -15 1824 -5 1930 26 307 2 410
-103 427 l-36 6 0 -39z"/>
<path d="M7906 11553 c-10 -1895 16 -2584 134 -3458 67 -491 120 -757 285
-1410 252 -999 355 -1606 405 -2395 14 -210 14 -960 0 -1235 -19 -398 -74
-1082 -80 -995 -3 50 -7 25 -25 -150 -70 -696 -227 -1392 -420 -1862 -6 -16 0
-18 64 -18 86 0 116 14 165 73 95 116 179 413 236 837 12 85 41 295 65 465 76
532 121 983 146 1475 14 270 13 1036 -1 1360 -23 538 -76 1200 -131 1635 -11
88 -18 176 -14 195 3 19 2 30 -2 23 -5 -7 -18 52 -31 140 -26 169 -69 416
-172 982 -105 574 -187 1115 -178 1164 2 9 9 -29 16 -84 25 -187 93 -606 172
-1049 43 -242 84 -477 91 -521 7 -44 15 -73 16 -65 2 8 -48 353 -111 765 -145
948 -169 1112 -216 1475 -27 205 -39 277 -40 235 -6 -164 -145 1570 -184 2295
-27 483 -29 610 -15 839 10 174 10 237 1 298 -20 128 -63 193 -138 208 l-31 6
-7 -1228z m381 -2530 c-3 -10 -5 -2 -5 17 0 19 2 27 5 18 2 -10 2 -26 0 -35z
m180 -8365 c-3 -7 -5 -2 -5 12 0 14 2 19 5 13 2 -7 2 -19 0 -25z m-10 -40 c-3
-8 -6 -5 -6 6 -1 11 2 17 5 13 3 -3 4 -12 1 -19z m-46 -188 c-41 -150 -100
-324 -107 -317 -2 2 13 55 34 118 21 63 54 171 73 241 19 70 35 123 37 118 2
-6 -15 -77 -37 -160z"/>
<path d="M10800 12723 c-2 -312 -21 -1318 -30 -1494 -29 -642 -77 -1244 -130
-1627 -32 -229 -102 -632 -180 -1032 -39 -201 -87 -448 -106 -550 -38 -205
-46 -239 -38 -165 8 78 190 1106 244 1379 20 100 23 123 16 115 -7 -6 -88
-379 -150 -684 -119 -588 -201 -1125 -256 -1680 -27 -267 -38 -969 -21 -1236
40 -601 127 -1027 343 -1689 289 -887 428 -1518 468 -2135 14 -220 12 -399
-10 -890 -26 -578 -39 -875 -41 -955 l-3 -65 66 0 c56 0 70 4 92 24 14 13 29
40 33 60 4 20 7 149 8 286 0 138 5 536 9 885 13 970 -24 1680 -130 2505 -39
305 -67 420 -204 845 -124 384 -159 517 -199 765 -107 651 -124 1424 -51 2290
37 430 72 731 214 1816 87 662 127 1030 175 1599 53 624 65 847 58 1125 -6
241 -21 360 -58 459 -21 58 -67 106 -100 106 -16 0 -19 -8 -19 -57z m-493
-4955 c-3 -7 -5 -2 -5 12 0 14 2 19 5 13 2 -7 2 -19 0 -25z m-150 -1130 c-3
-8 -6 -5 -6 6 -1 11 2 17 5 13 3 -3 4 -12 1 -19z"/>
<path d="M11505 11887 c-1 -867 -6 -1087 -36 -1342 -31 -270 -112 -561 -319
-1140 -146 -409 -218 -655 -351 -1210 -60 -252 -104 -566 -131 -930 -16 -230
-16 -986 0 -1180 56 -644 149 -1015 366 -1464 128 -264 145 -302 188 -416 141
-377 217 -779 248 -1310 5 -93 17 -456 25 -805 53 -2115 50 -2029 72 -2058 11
-15 30 -28 42 -30 24 -4 81 15 81 27 7 265 7 2378 0 2581 -21 594 -67 1070
-131 1379 -11 53 -27 137 -34 188 -28 182 -86 369 -198 633 -147 349 -301 824
-366 1130 -81 377 -84 774 -10 1240 58 359 141 685 361 1415 252 837 313 1140
359 1770 16 212 16 967 0 1470 -6 204 -12 499 -14 657 l-2 288 -75 0 -75 0 0
-893z m-115 -1998 c-13 -78 -71 -291 -77 -286 -2 3 12 67 31 143 19 77 38 156
42 177 3 21 8 36 11 34 2 -3 -1 -34 -7 -68z"/>
<path d="M11879 12773 c-5 -37 4 -1114 12 -1428 13 -551 47 -1428 59 -1555 15
-150 37 -276 70 -388 38 -131 51 -163 177 -417 60 -121 126 -260 147 -310 70
-166 126 -360 126 -435 0 -16 4 -31 9 -34 5 -3 9 29 10 72 0 42 6 163 12 267
13 214 7 433 -16 553 -20 106 -62 224 -125 352 -117 236 -161 366 -174 505 -4
39 -27 417 -53 840 -37 602 -46 822 -45 1009 5 545 -34 840 -122 932 -29 30
-85 54 -87 37z"/>
<path d="M12296 12568 c-35 -1111 -27 -1453 45 -1843 34 -186 111 -462 135
-484 4 -3 4 305 0 684 -5 570 -4 723 9 880 45 568 23 839 -75 937 -29 29 -46
38 -72 38 l-35 0 -7 -212z"/>
<path d="M2641 12694 c-5 -222 62 -624 151 -904 113 -355 351 -802 571 -1074
l23 -29 71 129 c105 190 217 422 272 564 50 129 106 311 115 377 4 27 1 21
-10 -17 -29 -105 -95 -302 -128 -378 -18 -42 -67 -131 -111 -197 -117 -180
-152 -239 -178 -301 l-24 -56 -22 59 c-27 73 -129 239 -299 488 -74 108 -146
224 -162 258 -104 229 -190 585 -258 1067 l-9 65 -2 -51z"/>
<path d="M2630 10098 c0 -11 158 -304 216 -399 58 -96 171 -259 180 -259 6 0
-1 12 -41 70 -48 68 -194 311 -265 440 -65 118 -90 159 -90 148z"/>
<path d="M46 9425 c4 -502 2 -566 -16 -729 -24 -211 -25 -302 -6 -374 32 -119
100 -172 222 -172 l65 0 137 -92 c164 -109 259 -202 358 -348 139 -205 217
-373 394 -846 243 -649 347 -1091 529 -2249 84 -530 122 -804 155 -1120 28
-263 44 -452 71 -845 6 -86 28 -714 46 -1307 10 -322 10 -456 0 -665 -18 -379
2 -529 84 -615 36 -37 47 -43 82 -43 39 0 41 1 47 38 9 59 7 1047 -4 1382 -37
1123 -134 2133 -321 3340 -122 787 -233 1275 -404 1779 -288 848 -508 1268
-870 1665 -111 121 -121 135 -185 269 -206 427 -332 887 -380 1387 -6 63 -7
-87 -4 -455z"/>
<path d="M121 9503 c-2 -19 47 -244 81 -373 44 -171 93 -311 157 -445 73 -153
117 -220 280 -429 169 -216 255 -337 359 -506 86 -139 188 -334 237 -453 15
-37 30 -65 32 -63 8 7 -79 219 -152 372 -149 311 -295 528 -530 784 -200 219
-286 401 -389 822 -30 123 -59 241 -64 263 -5 22 -10 34 -11 28z"/>
<path d="M10241 9284 c0 -11 3 -14 6 -6 3 7 2 16 -1 19 -3 4 -6 -2 -5 -13z"/>
<path d="M11728 8899 c-152 -306 -254 -553 -348 -843 -70 -216 -177 -623 -166
-633 2 -2 39 101 81 229 205 615 350 960 497 1176 l29 43 52 -43 c157 -132
321 -427 378 -682 25 -113 20 -36 -6 96 -76 381 -185 631 -354 810 l-57 61
-106 -214z"/>
<path d="M4536 8545 c-9 -26 -7 -32 5 -12 6 10 9 21 6 23 -2 3 -7 -2 -11 -11z"/>
<path d="M4516 8495 c-9 -26 -7 -32 5 -12 6 10 9 21 6 23 -2 3 -7 -2 -11 -11z"/>
<path d="M46 7964 c-10 -25 -31 -301 -30 -389 0 -48 6 -91 15 -107 8 -14 72
-71 144 -125 219 -166 304 -256 462 -493 136 -203 246 -411 326 -615 93 -239
253 -774 325 -1085 161 -698 220 -1185 302 -2510 17 -267 51 -802 76 -1190 33
-500 47 -785 48 -980 2 -229 5 -284 20 -328 20 -62 59 -107 99 -116 l29 -7 -6
93 c-4 51 -15 282 -26 513 -34 709 -50 1028 -65 1315 -75 1382 -184 2413 -336
3185 -16 83 -43 229 -59 325 -47 279 -136 688 -146 677 -3 -3 4 -40 15 -83 32
-128 93 -433 89 -445 -2 -6 -12 24 -22 67 -60 263 -262 903 -367 1161 -52 129
-151 333 -210 432 -18 30 -26 51 -18 46 8 -5 3 3 -11 17 -14 13 -53 62 -86
109 -115 157 -309 353 -485 489 -61 48 -78 56 -83 44z"/>
<path d="M12302 7855 c0 -16 2 -22 5 -12 2 9 2 23 0 30 -3 6 -5 -1 -5 -18z"/>
<path d="M12316 7755 c3 -38 12 -115 19 -170 l14 -100 -6 84 c-3 46 -11 122
-19 170 -13 85 -13 85 -8 16z"/>
<path d="M12352 7450 c0 -14 2 -19 5 -12 2 6 2 18 0 25 -3 6 -5 1 -5 -13z"/>
<path d="M787 7185 c36 -60 98 -175 138 -255 39 -80 79 -161 88 -180 12 -24
15 -27 11 -10 -19 79 -221 458 -284 531 -11 13 10 -25 47 -86z"/>
<path d="M6410 6875 c-13 -14 -42 -36 -64 -49 -23 -13 -56 -44 -74 -69 -40
-57 -217 -369 -284 -501 -207 -412 -351 -947 -442 -1642 -26 -200 -128 -1193
-145 -1424 -48 -621 -45 -1378 9 -2609 11 -244 20 -468 20 -498 l0 -53 76 0
c59 0 75 3 71 13 -18 48 -59 241 -72 340 -21 167 -19 556 5 912 10 160 24 382
30 495 24 468 82 1386 110 1735 75 930 240 1657 520 2290 83 190 283 564 301
565 16 0 266 -300 374 -450 440 -610 675 -1230 767 -2025 8 -70 13 -240 13
-470 -1 -402 -14 -567 -81 -1000 -63 -409 -238 -1250 -310 -1489 -48 -162 -89
-333 -98 -411 l-6 -50 24 65 c14 36 25 63 25 60 1 -3 -10 -61 -23 -130 -35
-175 -78 -461 -72 -468 3 -3 23 0 45 6 118 36 159 139 216 547 39 280 36 267
98 425 188 483 297 1297 337 2515 29 872 -59 1529 -277 2080 -48 120 -188 415
-257 540 -170 310 -403 553 -656 684 -47 25 -99 55 -116 68 -17 12 -33 23 -36
23 -2 0 -15 -11 -28 -25z m381 -211 c98 -75 242 -244 324 -379 23 -37 11 -26
-45 45 -25 30 -78 92 -118 137 -63 71 -113 117 -292 273 -41 36 65 -26 131
-76z"/>
<path d="M19 6692 c12 -24 16 -44 10 -57 -14 -36 -9 -109 10 -152 27 -59 87
-121 228 -234 67 -54 144 -121 171 -149 107 -108 222 -309 326 -570 192 -479
267 -752 331 -1193 43 -306 89 -839 107 -1261 11 -282 2 -759 -23 -1156 -5
-85 -14 -344 -19 -575 -5 -231 -15 -451 -21 -490 -6 -38 -11 -85 -11 -102 0
-18 -4 -30 -9 -27 -5 3 -9 -6 -9 -20 0 -30 -23 -125 -56 -231 -55 -174 -144
-315 -250 -393 -31 -23 -60 -42 -65 -42 -5 0 -9 -4 -9 -9 0 -6 110 -10 274
-11 l274 -1 6 33 c28 158 68 545 93 898 21 306 24 1374 5 1745 -80 1548 -99
1775 -177 2200 -32 172 -126 552 -171 689 -177 542 -520 930 -996 1129 l-38
16 19 -37z m120 -67 c218 -74 431 -244 575 -460 53 -80 152 -255 143 -255 -2
0 -21 28 -43 63 -72 118 -148 212 -263 328 -128 128 -243 214 -395 295 -56 30
-98 54 -95 54 3 0 38 -11 78 -25z m948 -6107 c-3 -8 -6 -5 -6 6 -1 11 2 17 5
13 3 -3 4 -12 1 -19z m-28 -95 c-47 -143 -122 -277 -189 -338 -23 -21 -18 -11
19 35 56 70 139 231 167 322 10 32 19 56 22 54 2 -3 -6 -35 -19 -73z"/>
<path d="M1030 6705 c0 -5 5 -17 10 -25 5 -8 10 -10 10 -5 0 6 -5 17 -10 25
-5 8 -10 11 -10 5z"/>
<path d="M8652 6620 c0 -14 2 -19 5 -12 2 6 2 18 0 25 -3 6 -5 1 -5 -13z"/>
<path d="M4186 5979 c-10 -33 -16 -63 -13 -65 2 -2 11 24 21 57 9 34 15 63 13
66 -2 2 -12 -24 -21 -58z"/>
<path d="M8742 6015 c0 -16 2 -22 5 -12 2 9 2 23 0 30 -3 6 -5 -1 -5 -18z"/>
<path d="M8751 5965 c-1 -11 8 -87 18 -170 11 -82 31 -265 45 -405 36 -364 32
-333 34 -284 3 56 -23 323 -59 614 -29 237 -37 287 -38 245z"/>
<path d="M31 5865 c0 -33 -2 -157 -6 -275 l-7 -215 62 -175 c320 -905 474
-1630 520 -2450 32 -581 -11 -981 -166 -1526 -85 -302 -108 -362 -189 -504
-162 -284 -194 -364 -202 -515 -6 -116 6 -154 56 -175 94 -38 293 110 398 297
153 275 251 613 305 1058 17 141 17 932 0 1200 -7 105 -17 413 -22 685 -5 272
-14 572 -20 665 -41 663 -139 1093 -336 1474 -84 163 -175 290 -297 416 l-97
100 1 -60z m122 -155 c52 -56 123 -150 114 -150 -2 0 -21 21 -41 48 -20 26
-67 78 -104 116 -37 38 -58 64 -46 58 12 -6 46 -38 77 -72z"/>
<path d="M4161 5884 c0 -11 3 -14 6 -6 3 7 2 16 -1 19 -3 4 -6 -2 -5 -13z"/>
<path d="M12441 5642 c-185 -637 -327 -1319 -371 -1777 -6 -60 -12 -121 -15
-135 -30 -160 -99 -899 -125 -1345 -31 -540 -46 -1429 -33 -1950 8 -315 9
-321 33 -365 16 -28 33 -46 47 -48 19 -3 22 3 27 50 3 29 8 303 10 608 8 806
27 1266 77 1825 77 861 113 1095 234 1515 29 102 63 230 75 285 57 264 83 649
78 1147 l-3 307 -34 -117z"/>
<path d="M6409 5548 c-123 -161 -183 -289 -287 -613 -187 -583 -239 -928 -292
-1950 -40 -764 -38 -1079 15 -2000 13 -231 27 -503 30 -605 3 -102 8 -222 11
-268 l6 -82 71 0 72 0 2 309 c1 319 8 442 44 841 18 206 24 242 47 294 24 52
27 71 27 165 -1 115 -16 182 -80 336 -25 62 -38 120 -59 260 -39 273 -50 449
-43 725 9 403 60 730 169 1085 71 233 208 538 322 719 l43 69 71 -99 c485
-680 670 -1408 542 -2136 -23 -129 -72 -310 -104 -385 -18 -43 -75 -166 -126
-273 -171 -360 -235 -526 -281 -725 -22 -97 -23 -115 -24 -590 0 -556 -3 -533
79 -574 36 -18 69 -25 139 -29 l92 -4 -4 218 c-6 378 24 569 199 1264 177 709
200 848 207 1264 21 1220 -216 2091 -755 2774 -36 45 -68 82 -71 82 -4 0 -32
-33 -62 -72z m-300 -3957 c1 -52 -1 -92 -3 -90 -2 2 -6 65 -8 139 -4 82 -3
117 2 90 5 -25 9 -87 9 -139z"/>
<path d="M8853 5010 c0 -25 2 -35 4 -22 2 12 2 32 0 45 -2 12 -4 2 -4 -23z"/>
<path d="M37 4145 c9 -57 7 -2836 -2 -2866 -4 -10 -3 -19 2 -19 9 0 51 130 99
310 140 519 184 1104 123 1635 -29 259 -93 566 -170 829 -44 149 -67 196 -52
111z"/>
<path d="M6513 4037 c-64 -74 -138 -243 -157 -362 -6 -39 -6 -39 14 11 22 56
109 228 142 282 l20 33 44 -62 c122 -174 201 -386 229 -618 12 -100 13 -102
14 -41 3 210 -91 505 -232 724 l-44 67 -30 -34z"/>
<path d="M12447 2878 c-90 -161 -137 -311 -201 -643 -107 -548 -123 -810 -106
-1668 6 -298 12 -542 14 -544 11 -11 60 14 80 41 48 63 69 171 81 406 6 108
24 275 100 920 28 238 45 487 55 840 10 364 17 710 14 710 -1 0 -18 -28 -37
-62z"/>
<path d="M6351 1175 c-26 -62 -60 -194 -76 -300 -20 -126 -32 -578 -20 -748
l7 -106 23 11 c52 23 82 130 97 343 15 211 -10 850 -31 800z"/>
</g>
</svg>
