<?xml version="1.0" encoding="UTF-8" standalone="no" ?>
<!DOCTYPE svg PUBLIC "-//W3C//DTD SVG 1.1//EN" "http://www.w3.org/Graphics/SVG/1.1/DTD/svg11.dtd">
<svg xmlns="http://www.w3.org/2000/svg" xmlns:xlink="http://www.w3.org/1999/xlink" version="1.1" width="800" height="800" viewBox="0 0 800 800" xml:space="preserve">
<desc>Created with Fabric.js 3.6.6</desc>
<defs>
</defs>
<g transform="matrix(0.32 0 0 0.32 399.72 438.16)"  >
<g style=""   >
		<g transform="matrix(1.41 0 0 1.41 -243.15 -69.47)"  >
<path style="stroke: none; stroke-width: 1; stroke-dasharray: none; stroke-linecap: butt; stroke-dashoffset: 0; stroke-linejoin: miter; stroke-miterlimit: 4; fill: rgb(207,203,190); fill-rule: nonzero; opacity: 1;"  transform=" translate(-111.53, -235.08)" d="M 106.161 223.78 c -3.978 3.978 -5.202 9.486 -6.732 14.688 c -2.754 8.262 8.568 14.382 14.382 8.262 c 3.978 -3.978 8.262 -7.344 9.792 -12.852 C 126.663 223.78 113.505 216.742 106.161 223.78 z" stroke-linecap="round" />
</g>
		<g transform="matrix(1.41 0 0 1.41 -270.6 -76.04)"  >
<path style="stroke: none; stroke-width: 1; stroke-dasharray: none; stroke-linecap: butt; stroke-dashoffset: 0; stroke-linejoin: miter; stroke-miterlimit: 4; fill: rgb(207,203,190); fill-rule: nonzero; opacity: 1;"  transform=" translate(-92.03, -230.43)" d="M 97.899 230.206 c -1.224 -2.754 -3.672 -3.672 -6.426 -4.896 c -4.896 -2.142 -7.956 5.814 -3.672 8.568 c 2.754 1.53 4.59 2.448 7.65 1.836 C 98.205 235.102 98.817 232.348 97.899 230.206 z" stroke-linecap="round" />
</g>
		<g transform="matrix(1.41 0 0 1.41 -266.83 -93.33)"  >
<path style="stroke: none; stroke-width: 1; stroke-dasharray: none; stroke-linecap: butt; stroke-dashoffset: 0; stroke-linejoin: miter; stroke-miterlimit: 4; fill: rgb(207,203,190); fill-rule: nonzero; opacity: 1;"  transform=" translate(-94.71, -218.13)" d="M 98.817 215.518 c -1.836 -1.224 -3.366 -1.836 -5.508 -2.448 c -3.366 -1.224 -6.426 3.672 -3.672 6.12 c 1.53 1.53 2.754 2.754 4.896 3.672 C 99.429 225.31 103.407 218.578 98.817 215.518 z" stroke-linecap="round" />
</g>
		<g transform="matrix(1.41 0 0 1.41 245.4 -96.72)"  >
<path style="stroke: none; stroke-width: 1; stroke-dasharray: none; stroke-linecap: butt; stroke-dashoffset: 0; stroke-linejoin: miter; stroke-miterlimit: 4; fill: rgb(207,203,190); fill-rule: nonzero; opacity: 1;"  transform=" translate(-459.03, -215.69)" d="M 469.995 208.48 c -3.672 -1.53 -7.344 -1.836 -11.016 -3.06 c -3.366 -1.224 -6.732 -2.754 -10.404 -3.672 c -6.119 -1.53 -10.403 4.896 -7.649 10.098 c 3.978 7.956 14.688 15.606 23.256 17.748 c 5.813 1.224 11.628 -1.836 13.464 -7.65 C 479.175 215.518 475.503 210.622 469.995 208.48 z" stroke-linecap="round" />
</g>
		<g transform="matrix(1.41 0 0 1.41 256.56 -124.07)"  >
<path style="stroke: none; stroke-width: 1; stroke-dasharray: none; stroke-linecap: butt; stroke-dashoffset: 0; stroke-linejoin: miter; stroke-miterlimit: 4; fill: rgb(207,203,190); fill-rule: nonzero; opacity: 1;"  transform=" translate(-467.01, -196.25)" d="M 467.547 188.896 c -3.366 1.53 -4.59 4.896 -6.732 7.956 c -3.366 5.508 4.896 10.098 8.568 4.896 c 2.142 -3.06 4.284 -5.202 4.59 -9.18 C 474.279 189.202 469.995 187.672 467.547 188.896 z" stroke-linecap="round" />
</g>
		<g transform="matrix(1.41 0 0 1.41 238.19 -129.47)"  >
<path style="stroke: none; stroke-width: 1; stroke-dasharray: none; stroke-linecap: butt; stroke-dashoffset: 0; stroke-linejoin: miter; stroke-miterlimit: 4; fill: rgb(207,203,190); fill-rule: nonzero; opacity: 1;"  transform=" translate(-453.95, -192.41)" d="M 457.143 188.284 c -1.224 -2.448 -5.508 -2.448 -6.426 0 c -1.225 2.754 -0.918 4.284 -0.307 7.344 c 0.918 3.672 6.427 3.672 7.345 0 C 458.061 192.568 458.367 191.038 457.143 188.284 z" stroke-linecap="round" />
</g>
		<g transform="matrix(1.41 0 0 1.41 -160.57 340.16)"  >
<path style="stroke: none; stroke-width: 1; stroke-dasharray: none; stroke-linecap: butt; stroke-dashoffset: 0; stroke-linejoin: miter; stroke-miterlimit: 4; fill: rgb(207,203,190); fill-rule: nonzero; opacity: 1;"  transform=" translate(-170.25, -526.43)" d="M 183.273 506.523 c -6.732 -3.978 -14.382 -1.224 -18.36 4.896 c -5.508 7.956 -17.136 19.278 -14.076 29.988 c 0.918 3.06 3.366 5.813 6.426 6.426 c 13.464 3.06 24.48 -13.464 30.906 -22.95 C 192.453 519.07 189.393 509.89 183.273 506.523 z" stroke-linecap="round" />
</g>
		<g transform="matrix(1.41 0 0 1.41 -195.48 315.06)"  >
<path style="stroke: none; stroke-width: 1; stroke-dasharray: none; stroke-linecap: butt; stroke-dashoffset: 0; stroke-linejoin: miter; stroke-miterlimit: 4; fill: rgb(207,203,190); fill-rule: nonzero; opacity: 1;"  transform=" translate(-145.46, -508.62)" d="M 152.979 506.218 c -2.754 -3.978 -6.732 -4.284 -11.322 -4.896 c -2.448 -0.307 -4.59 2.447 -4.59 4.59 c 0 3.978 2.754 7.038 6.12 9.18 c 2.754 1.53 6.12 0.918 8.262 -1.224 c 0.306 -0.307 0.306 -0.307 0.612 -0.612 C 153.897 511.726 154.509 508.359 152.979 506.218 z" stroke-linecap="round" />
</g>
		<g transform="matrix(1.41 0 0 1.41 -174.47 296.71)"  >
<path style="stroke: none; stroke-width: 1; stroke-dasharray: none; stroke-linecap: butt; stroke-dashoffset: 0; stroke-linejoin: miter; stroke-miterlimit: 4; fill: rgb(207,203,190); fill-rule: nonzero; opacity: 1;"  transform=" translate(-160.4, -495.56)" d="M 168.279 499.18 c -1.224 -4.896 -6.12 -8.568 -9.18 -12.546 s -8.262 1.224 -6.426 4.896 c 1.836 4.283 3.06 9.792 6.426 12.852 C 163.383 508.054 169.809 504.688 168.279 499.18 z" stroke-linecap="round" />
</g>
		<g transform="matrix(1.41 0 0 1.41 -202.44 335.77)"  >
<path style="stroke: none; stroke-width: 1; stroke-dasharray: none; stroke-linecap: butt; stroke-dashoffset: 0; stroke-linejoin: miter; stroke-miterlimit: 4; fill: rgb(207,203,190); fill-rule: nonzero; opacity: 1;"  transform=" translate(-140.5, -523.35)" d="M 139.209 516.928 c -5.202 -1.53 -11.322 3.366 -7.65 8.874 c 3.366 4.896 10.404 7.344 15.606 3.366 C 155.733 522.436 146.247 511.726 139.209 516.928 z" stroke-linecap="round" />
</g>
		<g transform="matrix(1.41 0 0 1.41 181.07 321.28)"  >
<path style="stroke: none; stroke-width: 1; stroke-dasharray: none; stroke-linecap: butt; stroke-dashoffset: 0; stroke-linejoin: miter; stroke-miterlimit: 4; fill: rgb(207,203,190); fill-rule: nonzero; opacity: 1;"  transform=" translate(-413.28, -513.03)" d="M 428.685 512.95 c -4.896 -6.732 -12.546 -9.181 -20.196 -12.546 c -3.672 -1.53 -7.649 -1.53 -10.403 2.142 c -2.143 3.06 -2.448 7.956 0.611 10.71 c 5.509 4.896 11.935 11.628 19.584 13.158 c 3.672 0.611 7.345 0 9.486 -3.366 C 430.215 520.6 431.133 516.01 428.685 512.95 z" stroke-linecap="round" />
</g>
		<g transform="matrix(1.41 0 0 1.41 212.67 289.57)"  >
<path style="stroke: none; stroke-width: 1; stroke-dasharray: none; stroke-linecap: butt; stroke-dashoffset: 0; stroke-linejoin: miter; stroke-miterlimit: 4; fill: rgb(207,203,190); fill-rule: nonzero; opacity: 1;"  transform=" translate(-435.79, -490.47)" d="M 432.969 481.738 c -2.143 4.896 -3.979 10.098 -5.508 15.3 c -1.836 4.896 5.201 7.038 7.649 3.366 c 2.754 -3.979 6.12 -7.956 8.568 -12.24 C 447.351 481.126 436.335 474.7 432.969 481.738 z" stroke-linecap="round" />
</g>
		<g transform="matrix(1.41 0 0 1.41 194.45 278.07)"  >
<path style="stroke: none; stroke-width: 1; stroke-dasharray: none; stroke-linecap: butt; stroke-dashoffset: 0; stroke-linejoin: miter; stroke-miterlimit: 4; fill: rgb(207,203,190); fill-rule: nonzero; opacity: 1;"  transform=" translate(-422.83, -482.31)" d="M 428.073 476.536 c -0.306 -0.307 -0.611 -0.612 -0.611 -0.918 c -2.143 -2.448 -7.038 -2.448 -9.181 0 c -0.306 0.306 -0.611 0.611 -0.611 0.918 c -2.448 2.447 -2.754 6.12 -1.225 9.18 c 0.307 0.918 0.918 1.53 1.225 2.142 c 2.447 3.979 7.956 3.979 10.403 0 c 0.612 -0.611 0.918 -1.529 1.225 -2.142 C 430.827 482.656 430.215 479.29 428.073 476.536 z" stroke-linecap="round" />
</g>
		<g transform="matrix(1.41 0 0 1.41 236.24 295.75)"  >
<path style="stroke: none; stroke-width: 1; stroke-dasharray: none; stroke-linecap: butt; stroke-dashoffset: 0; stroke-linejoin: miter; stroke-miterlimit: 4; fill: rgb(207,203,190); fill-rule: nonzero; opacity: 1;"  transform=" translate(-452.56, -494.87)" d="M 453.777 485.104 c -4.59 2.754 -6.731 7.65 -9.485 12.24 c -3.061 4.896 4.283 11.016 8.262 6.426 c 3.366 -3.978 7.649 -7.649 8.874 -12.852 C 462.345 486.634 457.755 482.656 453.777 485.104 z" stroke-linecap="round" />
</g>
		<g transform="matrix(1.41 0 0 1.41 -107.67 -241.08)"  >
<path style="stroke: none; stroke-width: 1; stroke-dasharray: none; stroke-linecap: butt; stroke-dashoffset: 0; stroke-linejoin: miter; stroke-miterlimit: 4; fill: rgb(207,203,190); fill-rule: nonzero; opacity: 1;"  transform=" translate(-207.89, -112.99)" d="M 226.113 107.194 c -4.284 -8.262 -14.994 -11.628 -23.562 -8.568 c -10.71 3.978 -16.218 15.606 -13.77 26.622 c 0.918 4.896 7.344 3.672 8.874 0 c 2.754 -6.732 11.322 -20.808 19.584 -11.322 c 2.142 2.448 3.672 6.12 7.65 3.978 S 227.643 110.254 226.113 107.194 z" stroke-linecap="round" />
</g>
		<g transform="matrix(1.41 0 0 1.41 93.89 -246.39)"  >
<path style="stroke: none; stroke-width: 1; stroke-dasharray: none; stroke-linecap: butt; stroke-dashoffset: 0; stroke-linejoin: miter; stroke-miterlimit: 4; fill: rgb(207,203,190); fill-rule: nonzero; opacity: 1;"  transform=" translate(-351.26, -109.21)" d="M 356.469 92.506 c -11.935 -4.59 -26.622 5.814 -23.868 18.972 c 0.918 4.896 7.344 3.06 7.956 -0.918 c 0.612 -5.202 8.568 -8.262 12.546 -5.202 c 5.814 4.284 2.142 11.934 3.06 17.442 c 0.612 3.366 5.509 5.508 8.263 3.366 C 376.359 117.598 368.097 96.79 356.469 92.506 z" stroke-linecap="round" />
</g>
		<g transform="matrix(1.41 0 0 1.41 11.2 125.16)"  >
<path style="stroke: none; stroke-width: 1; stroke-dasharray: none; stroke-linecap: butt; stroke-dashoffset: 0; stroke-linejoin: miter; stroke-miterlimit: 4; fill: rgb(207,203,190); fill-rule: nonzero; opacity: 1;"  transform=" translate(-292.31, -373.45)" d="M 356.163 355.359 c -6.426 -3.06 -13.464 -5.201 -20.195 -7.649 c -0.612 -0.918 -1.225 -2.143 -1.836 -3.061 c -9.181 -11.628 -22.645 -11.321 -32.437 -5.508 c -5.508 -0.306 -10.71 -1.224 -15.912 -3.366 c -1.53 -0.611 -2.142 1.836 -0.611 2.448 c 4.284 1.836 8.874 2.754 13.464 3.061 c -1.225 0.918 -2.143 1.836 -3.061 2.754 c -4.283 -0.307 -8.567 -0.612 -12.852 -1.53 c -1.224 -0.306 -1.53 1.53 -0.612 1.836 c 3.978 0.918 7.956 1.53 11.934 1.53 c -1.53 1.836 -2.754 4.284 -3.366 6.426 c -3.06 -3.978 -6.732 -7.038 -11.016 -9.18 c 0 -0.307 -0.306 -0.612 -0.612 -0.612 c -6.426 -2.754 -13.464 -4.896 -20.196 -6.12 c -1.224 -0.306 -1.836 1.53 -0.612 1.836 c 2.754 0.918 5.508 1.836 8.262 2.754 c -4.59 0.612 -8.568 2.448 -12.24 5.202 c -0.306 -0.306 -0.306 -0.612 -0.612 -0.612 c -5.508 -1.836 -11.016 -3.365 -16.524 -5.508 c -2.142 -0.918 -3.06 2.448 -0.918 3.366 c 5.202 2.142 10.404 3.672 15.912 4.59 c -0.612 0.612 -1.53 1.53 -2.142 2.143 c -5.508 -1.836 -11.322 -2.754 -16.83 -4.896 c -1.53 -0.612 -2.142 1.836 -0.612 2.448 l 0 0 c -0.612 0.612 -0.918 1.836 0 2.448 c 4.59 1.836 9.18 4.283 14.076 5.201 c -0.918 1.836 -1.53 3.673 -2.142 5.509 c -3.978 -2.143 -8.874 -3.366 -12.852 -5.509 c -1.53 -0.918 -3.06 1.53 -1.224 2.448 c 4.284 2.143 8.874 4.896 13.77 6.12 c -0.306 2.448 -0.306 4.59 -0.306 7.038 c -4.59 -1.836 -9.486 -3.672 -14.076 -5.508 c -1.53 -0.612 -2.754 2.142 -1.224 2.754 c 5.202 2.142 10.404 4.59 15.606 5.813 c 1.224 5.814 3.978 11.629 7.956 16.219 c 2.448 2.754 4.896 5.201 7.65 7.038 c -3.06 -0.612 -5.814 -0.918 -8.568 -1.53 c -1.224 -0.307 -1.836 1.836 -0.612 2.142 c 3.978 0.918 7.956 1.836 11.934 2.754 c 2.448 0.612 5.202 1.53 7.65 2.143 c 2.754 0.918 5.202 1.529 7.956 2.142 c -0.306 0.612 -0.306 1.53 0.612 1.836 c 5.814 1.836 11.628 3.979 17.748 4.896 c 1.53 0.306 2.143 -1.836 0.612 -2.143 c -2.754 -1.224 -5.813 -1.836 -8.567 -2.754 c 1.836 0.307 3.978 0.307 5.813 0.612 c 0.612 0 0.918 0 1.224 -0.306 c 0.918 0.918 2.143 1.529 3.673 1.224 c 0.611 0 1.529 -0.306 2.447 -0.612 c 0.307 0.307 0.307 0.307 0.612 0.307 c 5.508 0.611 11.016 1.224 16.524 1.529 c 1.529 0 1.836 -2.142 0.306 -2.447 c -3.672 -0.612 -7.344 -0.918 -11.322 -1.225 c 1.53 -0.611 3.366 -1.529 4.896 -2.448 c 3.978 0.612 7.649 1.225 11.628 1.53 c 1.53 0 1.836 -2.142 0.306 -2.448 c -2.448 -0.611 -4.896 -1.224 -7.649 -1.529 c 3.672 -2.448 7.344 -5.814 10.403 -9.181 c 6.12 0.918 12.24 1.836 18.36 1.836 c 1.224 0 1.836 -2.142 0.306 -2.447 c -5.508 -0.918 -11.322 -1.225 -16.83 -1.836 c 1.225 -1.53 2.448 -3.061 3.366 -4.896 c 3.672 0.306 7.65 0.918 11.322 0.918 c 1.53 0 1.836 -2.448 0.306 -2.754 c -3.366 -0.612 -6.426 -0.918 -9.792 -1.224 c 0.612 -1.225 1.225 -2.143 1.836 -3.366 c 3.979 0.918 7.956 2.142 12.24 2.448 c 1.53 0 1.53 -2.143 0.306 -2.448 c -3.672 -1.53 -7.649 -2.143 -11.321 -2.754 c 1.224 -3.061 1.836 -6.12 2.447 -9.486 c 3.061 1.225 6.12 2.448 9.486 2.754 c 1.53 0.307 1.836 -1.529 0.612 -2.142 c -3.061 -1.224 -6.427 -2.448 -9.792 -3.366 c 0 -1.53 0 -3.06 -0.307 -4.59 c 4.284 1.53 8.568 3.06 12.853 3.672 c 0.918 0 1.224 -1.224 0.611 -1.836 c -3.978 -2.754 -9.18 -3.978 -14.075 -5.202 c -0.307 -1.53 -0.918 -3.06 -1.53 -4.59 c 5.813 2.448 11.628 4.896 17.748 6.12 C 356.469 357.502 357.387 355.972 356.163 355.359 z M 326.481 367.6 c -3.672 17.748 -22.032 19.584 -31.824 31.519 c -0.611 0.611 -0.918 1.529 -1.224 2.447 c -15.606 -4.59 -43.758 -17.136 -37.026 -37.943 c 3.672 -10.404 14.076 -12.853 22.032 -5.508 c 5.202 4.896 7.65 11.934 11.322 18.054 c 2.448 3.978 8.262 2.448 9.18 -1.53 c 1.53 -0.612 2.754 -2.142 1.836 -4.59 c -3.672 -9.792 0.307 -22.032 12.24 -22.032 C 324.339 348.016 328.624 358.42 326.481 367.6 z" stroke-linecap="round" />
</g>
		<g transform="matrix(1.41 0 0 1.41 -66.87 213.58)"  >
<path style="stroke: none; stroke-width: 1; stroke-dasharray: none; stroke-linecap: butt; stroke-dashoffset: 0; stroke-linejoin: miter; stroke-miterlimit: 4; fill: rgb(207,203,190); fill-rule: nonzero; opacity: 1;"  transform=" translate(-236.94, -436.45)" d="M 245.085 437.979 c -5.202 -1.529 -10.404 -2.754 -15.606 -4.896 c -1.224 -0.307 -1.836 1.53 -0.918 1.836 c 5.202 2.142 10.404 3.978 15.912 4.896 C 245.697 440.122 246.309 438.286 245.085 437.979 z" stroke-linecap="round" />
</g>
		<g transform="matrix(1.41 0 0 1.41 -65.27 206.17)"  >
<path style="stroke: none; stroke-width: 1; stroke-dasharray: none; stroke-linecap: butt; stroke-dashoffset: 0; stroke-linejoin: miter; stroke-miterlimit: 4; fill: rgb(207,203,190); fill-rule: nonzero; opacity: 1;"  transform=" translate(-238.08, -431.19)" d="M 244.167 431.859 c -4.284 -0.611 -7.956 -1.224 -11.628 -3.06 c -1.224 -0.612 -2.448 1.224 -0.918 1.836 c 3.978 1.836 8.262 3.061 12.852 3.061 C 245.697 433.695 245.391 431.859 244.167 431.859 z" stroke-linecap="round" />
</g>
		<g transform="matrix(1.41 0 0 1.41 -63.73 195.69)"  >
<path style="stroke: none; stroke-width: 1; stroke-dasharray: none; stroke-linecap: butt; stroke-dashoffset: 0; stroke-linejoin: miter; stroke-miterlimit: 4; fill: rgb(207,203,190); fill-rule: nonzero; opacity: 1;"  transform=" translate(-239.18, -423.72)" d="M 247.227 425.128 c -5.202 -1.53 -10.404 -2.754 -15.3 -4.896 c -1.836 -0.611 -2.448 2.143 -0.612 2.754 c 5.202 1.837 10.404 3.673 15.912 4.284 C 248.451 427.576 248.451 425.434 247.227 425.128 z" stroke-linecap="round" />
</g>
		<g transform="matrix(1.41 0 0 1.41 -63.32 185.19)"  >
<path style="stroke: none; stroke-width: 1; stroke-dasharray: none; stroke-linecap: butt; stroke-dashoffset: 0; stroke-linejoin: miter; stroke-miterlimit: 4; fill: rgb(207,203,190); fill-rule: nonzero; opacity: 1;"  transform=" translate(-239.47, -416.26)" d="M 247.839 417.172 c -5.202 -1.836 -10.71 -3.061 -15.912 -4.284 c -1.836 -0.306 -2.448 2.143 -0.612 2.754 c 5.202 1.53 10.71 3.061 15.912 3.979 C 248.757 419.926 249.369 417.784 247.839 417.172 z" stroke-linecap="round" />
</g>
		<g transform="matrix(1.41 0 0 1.41 -60.69 176.11)"  >
<path style="stroke: none; stroke-width: 1; stroke-dasharray: none; stroke-linecap: butt; stroke-dashoffset: 0; stroke-linejoin: miter; stroke-miterlimit: 4; fill: rgb(207,203,190); fill-rule: nonzero; opacity: 1;"  transform=" translate(-241.34, -409.8)" d="M 247.533 411.052 c -3.672 -1.53 -7.344 -2.754 -11.322 -4.284 c -1.53 -0.611 -2.142 1.836 -0.612 2.448 c 3.672 1.224 7.344 2.448 11.016 3.672 C 247.839 413.193 248.451 411.357 247.533 411.052 z" stroke-linecap="round" />
</g>
		<g transform="matrix(1.41 0 0 1.41 -63.87 164.75)"  >
<path style="stroke: none; stroke-width: 1; stroke-dasharray: none; stroke-linecap: butt; stroke-dashoffset: 0; stroke-linejoin: miter; stroke-miterlimit: 4; fill: rgb(207,203,190); fill-rule: nonzero; opacity: 1;"  transform=" translate(-239.07, -401.72)" d="M 247.533 403.708 c -5.202 -2.448 -10.71 -3.979 -16.218 -5.814 c -1.224 -0.306 -1.53 1.225 -0.612 1.836 c 5.202 2.143 10.404 4.284 15.912 5.814 C 247.839 405.85 248.451 404.32 247.533 403.708 z" stroke-linecap="round" />
</g>
		<g transform="matrix(1.41 0 0 1.41 -65.34 148.94)"  >
<path style="stroke: none; stroke-width: 1; stroke-dasharray: none; stroke-linecap: butt; stroke-dashoffset: 0; stroke-linejoin: miter; stroke-miterlimit: 4; fill: rgb(207,203,190); fill-rule: nonzero; opacity: 1;"  transform=" translate(-238.02, -390.47)" d="M 246.921 392.08 c -5.508 -1.225 -11.016 -3.061 -16.218 -5.508 c -1.836 -0.918 -3.366 1.836 -1.53 2.754 c 5.508 3.06 11.322 4.896 17.442 5.201 C 247.839 394.834 248.145 392.386 246.921 392.08 z" stroke-linecap="round" />
</g>
		<g transform="matrix(1.41 0 0 1.41 -66.45 139.78)"  >
<path style="stroke: none; stroke-width: 1; stroke-dasharray: none; stroke-linecap: butt; stroke-dashoffset: 0; stroke-linejoin: miter; stroke-miterlimit: 4; fill: rgb(207,203,190); fill-rule: nonzero; opacity: 1;"  transform=" translate(-237.23, -383.94)" d="M 247.533 386.266 c -6.12 -3.06 -12.852 -5.202 -19.584 -7.038 c -1.836 -0.611 -2.448 2.143 -0.918 2.754 c 6.426 2.143 12.852 4.896 19.278 6.732 C 248.145 389.02 249.063 386.878 247.533 386.266 z" stroke-linecap="round" />
</g>
		<g transform="matrix(1.41 0 0 1.41 -54.69 70.77)"  >
<path style="stroke: none; stroke-width: 1; stroke-dasharray: none; stroke-linecap: butt; stroke-dashoffset: 0; stroke-linejoin: miter; stroke-miterlimit: 4; fill: rgb(207,203,190); fill-rule: nonzero; opacity: 1;"  transform=" translate(-245.61, -334.86)" d="M 253.653 336.693 c -4.896 -2.447 -10.098 -3.978 -15.3 -5.813 c -1.224 -0.306 -1.836 1.224 -0.918 1.836 c 4.59 2.448 9.792 4.896 14.994 6.12 C 253.959 339.142 254.877 337.306 253.653 336.693 z" stroke-linecap="round" />
</g>
		<g transform="matrix(1.41 0 0 1.41 -45.64 61.61)"  >
<path style="stroke: none; stroke-width: 1; stroke-dasharray: none; stroke-linecap: butt; stroke-dashoffset: 0; stroke-linejoin: miter; stroke-miterlimit: 4; fill: rgb(207,203,190); fill-rule: nonzero; opacity: 1;"  transform=" translate(-252.04, -328.35)" d="M 258.549 329.656 c -3.978 -1.225 -7.956 -2.448 -11.628 -4.591 c -1.53 -0.918 -3.06 1.53 -1.53 2.448 c 3.978 2.448 8.262 3.979 12.852 4.284 C 259.467 332.104 259.773 330.268 258.549 329.656 z" stroke-linecap="round" />
</g>
		<g transform="matrix(1.41 0 0 1.41 -18.22 70.71)"  >
<path style="stroke: none; stroke-width: 1; stroke-dasharray: none; stroke-linecap: butt; stroke-dashoffset: 0; stroke-linejoin: miter; stroke-miterlimit: 4; fill: rgb(207,203,190); fill-rule: nonzero; opacity: 1;"  transform=" translate(-271.54, -334.82)" d="M 282.417 336.388 c -6.732 -2.142 -13.77 -3.672 -20.502 -5.508 c -1.836 -0.612 -2.754 2.448 -0.918 3.06 c 6.732 1.836 13.77 3.672 20.808 4.896 C 283.029 338.836 283.641 336.693 282.417 336.388 z" stroke-linecap="round" />
</g>
		<g transform="matrix(1.41 0 0 1.41 -13.08 62.56)"  >
<path style="stroke: none; stroke-width: 1; stroke-dasharray: none; stroke-linecap: butt; stroke-dashoffset: 0; stroke-linejoin: miter; stroke-miterlimit: 4; fill: rgb(207,203,190); fill-rule: nonzero; opacity: 1;"  transform=" translate(-275.21, -329.02)" d="M 283.029 329.35 c -4.59 -1.836 -9.486 -2.448 -14.382 -3.672 c -2.142 -0.612 -3.366 3.061 -0.918 3.366 c 4.896 1.224 9.792 2.754 14.994 3.366 C 284.253 332.716 284.559 329.962 283.029 329.35 z" stroke-linecap="round" />
</g>
		<g transform="matrix(1.41 0 0 1.41 -9.59 52.66)"  >
<path style="stroke: none; stroke-width: 1; stroke-dasharray: none; stroke-linecap: butt; stroke-dashoffset: 0; stroke-linejoin: miter; stroke-miterlimit: 4; fill: rgb(207,203,190); fill-rule: nonzero; opacity: 1;"  transform=" translate(-277.68, -321.98)" d="M 286.701 323.536 c -5.813 -1.836 -11.627 -3.672 -17.136 -5.509 c -1.836 -0.611 -2.448 2.143 -0.918 2.755 c 5.814 1.836 11.322 3.978 17.442 5.201 C 287.619 326.29 288.231 324.147 286.701 323.536 z" stroke-linecap="round" />
</g>
		<g transform="matrix(1.41 0 0 1.41 0.06 42.53)"  >
<path style="stroke: none; stroke-width: 1; stroke-dasharray: none; stroke-linecap: butt; stroke-dashoffset: 0; stroke-linejoin: miter; stroke-miterlimit: 4; fill: rgb(207,203,190); fill-rule: nonzero; opacity: 1;"  transform=" translate(-284.55, -314.77)" d="M 292.209 315.273 c -4.896 -1.224 -9.486 -2.142 -14.382 -3.672 c -1.836 -0.611 -2.754 2.448 -0.918 3.061 c 4.896 1.836 9.792 3.365 14.688 3.365 C 293.433 318.027 293.739 315.58 292.209 315.273 z" stroke-linecap="round" />
</g>
		<g transform="matrix(1.41 0 0 1.41 -29.68 215.04)"  >
<path style="stroke: none; stroke-width: 1; stroke-dasharray: none; stroke-linecap: butt; stroke-dashoffset: 0; stroke-linejoin: miter; stroke-miterlimit: 4; fill: rgb(207,203,190); fill-rule: nonzero; opacity: 1;"  transform=" translate(-263.39, -437.49)" d="M 272.319 438.897 c -5.814 -0.918 -11.628 -2.447 -17.136 -4.59 c -1.53 -0.612 -2.142 1.836 -0.612 2.143 c 5.508 2.142 11.322 3.672 17.442 4.283 C 273.237 441.04 273.543 439.204 272.319 438.897 z" stroke-linecap="round" />
</g>
		<g transform="matrix(1.41 0 0 1.41 -30.03 207.75)"  >
<path style="stroke: none; stroke-width: 1; stroke-dasharray: none; stroke-linecap: butt; stroke-dashoffset: 0; stroke-linejoin: miter; stroke-miterlimit: 4; fill: rgb(207,203,190); fill-rule: nonzero; opacity: 1;"  transform=" translate(-263.14, -432.3)" d="M 271.707 433.084 c -5.508 -1.225 -11.016 -2.448 -16.524 -3.366 c -1.224 -0.306 -1.836 1.53 -0.612 1.836 c 5.508 1.224 11.016 2.448 16.524 3.366 C 272.319 434.92 272.931 433.39 271.707 433.084 z" stroke-linecap="round" />
</g>
		<g transform="matrix(1.41 0 0 1.41 -28.95 198.29)"  >
<path style="stroke: none; stroke-width: 1; stroke-dasharray: none; stroke-linecap: butt; stroke-dashoffset: 0; stroke-linejoin: miter; stroke-miterlimit: 4; fill: rgb(207,203,190); fill-rule: nonzero; opacity: 1;"  transform=" translate(-263.9, -425.57)" d="M 273.849 426.964 c -6.426 -1.836 -12.852 -3.366 -19.278 -4.59 c -1.224 -0.307 -1.836 1.53 -0.612 1.836 c 6.426 1.53 12.852 3.366 19.278 4.59 C 274.461 428.8 275.073 427.27 273.849 426.964 z" stroke-linecap="round" />
</g>
		<g transform="matrix(1.41 0 0 1.41 -30 187.99)"  >
<path style="stroke: none; stroke-width: 1; stroke-dasharray: none; stroke-linecap: butt; stroke-dashoffset: 0; stroke-linejoin: miter; stroke-miterlimit: 4; fill: rgb(207,203,190); fill-rule: nonzero; opacity: 1;"  transform=" translate(-263.16, -418.25)" d="M 273.849 420.844 c -7.038 -2.142 -13.77 -3.978 -20.502 -6.732 c -0.918 -0.306 -1.836 1.53 -0.918 1.837 c 6.732 3.06 13.77 5.508 21.114 6.426 C 274.461 422.68 274.461 421.149 273.849 420.844 z" stroke-linecap="round" />
</g>
		<g transform="matrix(1.41 0 0 1.41 -32.06 179.67)"  >
<path style="stroke: none; stroke-width: 1; stroke-dasharray: none; stroke-linecap: butt; stroke-dashoffset: 0; stroke-linejoin: miter; stroke-miterlimit: 4; fill: rgb(207,203,190); fill-rule: nonzero; opacity: 1;"  transform=" translate(-261.69, -412.32)" d="M 272.625 414.111 c -6.426 -3.06 -13.77 -4.283 -20.808 -5.508 c -1.53 -0.306 -2.142 2.143 -0.612 2.143 c 7.038 1.224 13.77 3.365 20.502 5.202 C 272.931 416.56 273.543 414.724 272.625 414.111 z" stroke-linecap="round" />
</g>
		<g transform="matrix(1.41 0 0 1.41 -33 170.08)"  >
<path style="stroke: none; stroke-width: 1; stroke-dasharray: none; stroke-linecap: butt; stroke-dashoffset: 0; stroke-linejoin: miter; stroke-miterlimit: 4; fill: rgb(207,203,190); fill-rule: nonzero; opacity: 1;"  transform=" translate(-261.03, -405.5)" d="M 272.319 407.992 c -6.426 -3.672 -14.688 -4.896 -21.42 -7.038 c -1.836 -0.612 -2.448 2.142 -0.612 2.754 c 7.038 2.142 14.382 5.813 21.726 6.426 C 272.931 409.828 273.237 408.298 272.319 407.992 z" stroke-linecap="round" />
</g>
		<g transform="matrix(1.41 0 0 1.41 -1.4 223.54)"  >
<path style="stroke: none; stroke-width: 1; stroke-dasharray: none; stroke-linecap: butt; stroke-dashoffset: 0; stroke-linejoin: miter; stroke-miterlimit: 4; fill: rgb(207,203,190); fill-rule: nonzero; opacity: 1;"  transform=" translate(-283.5, -443.53)" d="M 294.351 444.712 c -7.038 -1.224 -14.076 -2.142 -21.114 -3.979 c -1.224 -0.306 -1.53 1.53 -0.612 1.837 c 6.732 2.447 14.076 4.283 21.42 3.672 C 294.963 446.242 295.269 445.018 294.351 444.712 z" stroke-linecap="round" />
</g>
		<g transform="matrix(1.41 0 0 1.41 0.43 214.41)"  >
<path style="stroke: none; stroke-width: 1; stroke-dasharray: none; stroke-linecap: butt; stroke-dashoffset: 0; stroke-linejoin: miter; stroke-miterlimit: 4; fill: rgb(207,203,190); fill-rule: nonzero; opacity: 1;"  transform=" translate(-284.81, -437.04)" d="M 294.963 437.979 c -6.427 -1.529 -13.464 -2.142 -19.89 -3.365 c -0.918 -0.307 -1.53 1.529 -0.306 1.529 c 6.426 1.53 13.464 3.366 20.196 3.366 C 295.575 439.51 295.881 437.979 294.963 437.979 z" stroke-linecap="round" />
</g>
		<g transform="matrix(1.41 0 0 1.41 1.16 206.03)"  >
<path style="stroke: none; stroke-width: 1; stroke-dasharray: none; stroke-linecap: butt; stroke-dashoffset: 0; stroke-linejoin: miter; stroke-miterlimit: 4; fill: rgb(207,203,190); fill-rule: nonzero; opacity: 1;"  transform=" translate(-285.32, -431.08)" d="M 294.963 432.472 c -6.12 -2.142 -12.546 -3.366 -18.667 -4.896 c -1.224 -0.307 -1.836 1.529 -0.612 2.142 c 6.12 1.53 12.546 3.672 18.666 4.896 C 295.575 434.614 296.187 433.084 294.963 432.472 z" stroke-linecap="round" />
</g>
		<g transform="matrix(1.41 0 0 1.41 4.72 196.81)"  >
<path style="stroke: none; stroke-width: 1; stroke-dasharray: none; stroke-linecap: butt; stroke-dashoffset: 0; stroke-linejoin: miter; stroke-miterlimit: 4; fill: rgb(207,203,190); fill-rule: nonzero; opacity: 1;"  transform=" translate(-287.86, -424.52)" d="M 297.105 426.352 c -5.813 -2.142 -11.628 -3.978 -17.748 -5.508 c -1.53 -0.306 -2.142 1.836 -0.612 2.142 c 5.814 1.837 11.628 3.979 17.748 5.202 C 298.023 428.494 298.329 426.658 297.105 426.352 z" stroke-linecap="round" />
</g>
		<g transform="matrix(1.41 0 0 1.41 5.16 185.76)"  >
<path style="stroke: none; stroke-width: 1; stroke-dasharray: none; stroke-linecap: butt; stroke-dashoffset: 0; stroke-linejoin: miter; stroke-miterlimit: 4; fill: rgb(207,203,190); fill-rule: nonzero; opacity: 1;"  transform=" translate(-288.18, -416.66)" d="M 296.799 417.478 c -5.508 -1.529 -11.017 -2.142 -16.524 -3.978 c -1.53 -0.612 -2.142 1.836 -0.612 2.448 c 5.203 2.142 11.016 3.978 16.83 3.978 C 297.717 419.62 298.023 417.784 296.799 417.478 z" stroke-linecap="round" />
</g>
		<g transform="matrix(1.41 0 0 1.41 0.92 1.2)"  >
<path style="stroke: none; stroke-width: 1; stroke-dasharray: none; stroke-linecap: butt; stroke-dashoffset: 0; stroke-linejoin: miter; stroke-miterlimit: 4; fill: rgb(207,203,190); fill-rule: nonzero; opacity: 1;"  transform=" translate(-284.53, -284.53)" d="M 415.527 280.696 c -6.12 2.754 -0.611 11.322 5.202 8.875 c 35.802 -15.606 112.608 -58.141 71.91 -108.325 c -14.382 -17.748 -39.168 -15.606 -56.61 -3.366 c -23.256 16.524 -37.332 48.042 -48.653 73.746 c -7.345 -7.344 -15.606 -14.076 -24.48 -19.89 c 28.152 -14.994 48.96 -38.862 50.796 -74.358 c 0.918 -18.36 -3.06 -35.496 -10.71 -50.796 h 0.307 c 33.966 -22.644 37.638 -73.746 2.754 -97.614 c -33.354 -22.644 -82.009 0 -81.091 41.004 c -10.098 -1.53 -20.808 -1.53 -31.518 0.612 c -0.612 0 -1.224 0.306 -1.836 0.612 c -26.316 -2.754 -56.304 -1.224 -82.314 7.65 c -3.06 -16.83 -18.972 -30.294 -35.19 -34.578 c -20.808 -5.508 -43.452 3.979 -55.692 21.42 c -11.628 16.524 -11.934 37.944 -1.836 55.386 c 5.202 8.874 17.748 21.726 29.07 20.808 c -0.612 1.836 -1.224 3.366 -1.53 5.508 c -11.934 57.834 18.666 96.39 64.26 113.832 c -10.404 5.202 -19.584 11.934 -27.846 20.196 c -14.076 -32.742 -77.724 -99.144 -110.772 -49.878 c -14.688 22.338 6.732 46.512 23.256 60.282 c 17.442 14.076 41.004 26.01 64.26 24.48 c -8.874 20.196 -12.24 42.84 -8.874 64.566 c 4.896 32.13 22.338 58.445 46.206 76.193 c -6.12 3.979 -10.098 12.546 -15.606 17.137 c -7.344 6.119 -14.994 9.485 -23.868 11.321 c -19.89 -2.754 -41.31 16.83 -45.9 35.496 c -7.65 31.519 15.912 61.2 46.206 67.015 c 28.458 5.508 54.774 -11.322 57.834 -41.005 c 0 -0.918 0 -1.529 0 -2.447 c 11.016 -19.891 18.972 -48.349 16.83 -69.156 c 14.076 4.896 29.376 7.65 44.982 7.344 c 24.173 -0.306 48.042 -3.06 69.768 -10.098 c -3.061 22.95 8.874 49.878 22.95 70.074 c 0.918 16.523 12.239 29.987 33.354 30.6 c 28.152 0.918 63.648 -25.704 74.664 -50.796 c 9.18 -21.114 -0.612 -53.244 -26.316 -52.021 c -0.306 -1.224 -1.224 -2.754 -2.754 -2.754 c -3.978 0 -7.956 0.307 -11.628 0.918 c -7.344 -4.59 -14.688 -9.18 -22.644 -12.852 c -7.038 -3.366 -14.382 -8.262 -22.338 -8.568 c 12.546 -11.321 22.644 -25.704 29.376 -44.37 c 16.218 -44.981 3.672 -90.882 -25.704 -124.542 c 14.382 -25.092 66.401 -118.116 93.023 -64.26 c -2.142 -0.918 -4.896 -0.612 -6.426 2.142 c -1.224 2.448 -2.448 4.59 -3.978 7.038 c -2.448 4.59 3.978 10.098 7.344 5.814 l 5.202 -6.12 c 0.306 -0.306 0.611 -0.918 0.611 -1.224 C 501.513 241.834 443.985 267.232 415.527 280.696 z M 402.369 20.596 c 29.683 20.502 20.809 58.446 -3.672 78.03 c -3.366 -5.508 -7.344 -10.71 -11.628 -15.606 c 6.732 -5.202 10.404 -15.3 11.628 -22.95 c 1.53 -9.18 -1.529 -18.972 -8.874 -25.092 c -18.054 -14.994 -33.966 6.426 -40.392 21.726 c -5.202 -2.142 -10.404 -3.979 -15.912 -5.202 C 339.639 19.678 373.299 0.4 402.369 20.596 z M 372.993 63.436 c 4.284 1.836 8.874 3.366 13.465 3.672 c -0.307 0.918 -0.919 1.53 -1.225 2.448 c -5.202 -0.918 -10.098 -2.448 -14.688 -5.202 c -0.918 -0.612 -2.143 0.918 -1.225 1.836 c 4.284 3.366 9.486 5.508 14.688 5.814 c -0.918 1.53 -2.143 3.366 -2.754 4.896 c -7.345 -6.732 -15.606 -12.546 -24.48 -17.136 c 0 0 0 -0.306 0.306 -0.306 c 4.284 1.836 8.263 3.366 12.853 3.978 c 1.224 0 1.53 -1.836 0.612 -2.142 c -3.979 -1.836 -7.956 -3.06 -11.935 -4.59 c 0.307 -0.612 0.612 -1.224 0.918 -1.836 c 3.366 1.53 7.038 2.448 11.017 2.754 c 1.224 0 1.529 -1.836 0.306 -2.142 c -3.06 -1.224 -6.426 -2.142 -9.486 -3.06 c 0.612 -0.918 1.225 -1.53 1.836 -2.448 c 3.979 1.53 7.956 3.366 12.24 3.978 c 1.224 0.306 2.143 -1.53 0.918 -2.142 c -3.366 -1.836 -7.344 -3.06 -11.016 -4.284 c 0.918 -0.918 1.53 -1.836 2.448 -2.754 c 3.978 1.836 8.262 3.672 12.239 3.672 c 1.225 0 1.836 -1.836 0.612 -2.448 c -3.06 -1.836 -6.426 -2.754 -10.098 -3.978 c 0.918 -0.612 2.142 -1.224 3.06 -1.836 c 3.061 1.53 6.426 2.754 9.792 3.672 c 0.918 0.306 1.53 -0.306 1.836 -0.918 c 0.612 0.612 1.225 1.224 1.836 2.142 c 0.612 0.918 0.918 1.836 1.53 3.06 c -1.836 -0.612 -3.366 -1.53 -5.202 -2.142 c -1.224 -0.612 -1.836 1.53 -0.918 2.142 c 2.143 1.224 4.59 2.754 7.038 3.978 c 0 0.918 0.306 1.836 0.306 2.754 c -3.365 -1.836 -7.344 -2.754 -10.71 -4.59 c -1.836 -0.918 -3.06 1.53 -1.529 2.754 c 3.365 2.142 7.956 4.896 12.239 4.896 c 0 1.224 -0.306 2.142 -0.611 3.366 c 0 -0.306 -0.307 -0.306 -0.307 -0.612 c -2.447 -1.53 -5.508 -1.836 -8.262 -3.06 c -1.53 -0.612 -3.06 1.53 -1.53 2.448 c 2.754 1.53 5.814 3.06 8.874 2.754 c 0.307 0 0.307 0 0.612 -0.306 c -0.306 1.224 -0.612 2.142 -0.918 3.06 l -0.306 -0.306 c -4.284 -1.836 -8.874 -2.754 -13.158 -4.284 C 372.075 59.764 371.157 62.824 372.993 63.436 z M 148.695 111.784 c -10.71 0.612 -21.42 -19.584 -23.562 -27.234 c -3.672 -13.464 0.306 -27.846 10.098 -37.638 c 10.404 -10.404 26.01 -14.382 40.086 -9.486 c 12.546 4.59 18.972 13.77 25.704 23.868 c -5.814 2.448 -11.628 5.202 -16.83 8.568 c -7.344 -14.076 -28.458 -25.704 -41.31 -11.016 c -11.628 13.464 -0.918 31.824 12.852 38.862 C 152.979 102.298 150.531 106.888 148.695 111.784 z M 163.689 72.004 c 3.978 1.224 8.262 3.06 12.546 3.978 c -0.612 0.612 -1.224 0.918 -1.836 1.53 c 0 0 0 -0.306 -0.306 -0.306 c -3.978 -1.53 -8.874 -1.836 -13.158 -2.754 c -1.53 -0.306 -2.142 1.836 -0.612 2.142 c 3.978 0.918 8.262 2.142 12.24 2.142 c -0.918 0.918 -1.836 1.53 -2.754 2.448 c -3.672 -1.224 -7.65 -1.836 -11.322 -2.754 c -1.224 -0.306 -1.836 1.53 -0.612 2.142 c 3.06 0.918 6.426 2.142 9.486 2.754 c -0.612 0.612 -0.918 0.918 -1.53 1.53 c -3.366 -1.224 -7.038 -2.142 -10.404 -3.06 c -1.224 -0.306 -1.53 1.224 -0.612 1.836 c 3.06 1.224 6.426 2.142 9.792 2.754 c -1.224 1.53 -2.754 2.754 -3.978 4.59 c -3.672 -3.672 -8.568 -7.956 -11.016 -12.546 c 1.836 1.224 3.672 2.142 5.814 2.754 c 0.612 0.306 1.224 -0.918 0.612 -1.224 c -2.448 -1.224 -5.202 -2.754 -7.344 -4.284 c -0.306 -1.224 -0.612 -2.448 -0.612 -3.672 c 2.754 1.224 5.508 2.448 8.568 3.366 c 0.918 0.306 1.53 -1.224 0.612 -1.53 c -3.06 -1.224 -5.814 -2.448 -8.874 -3.978 c 0 -0.918 0.306 -1.53 0.612 -2.448 c 0.306 -0.612 0.612 -0.612 0.918 -1.224 c 3.978 1.53 7.956 3.06 11.934 3.672 c 0.918 0.306 1.224 -1.224 0.306 -1.53 c -3.672 -1.224 -7.65 -2.448 -11.322 -3.672 c 0.918 -0.918 1.836 -1.836 3.06 -2.142 c 3.672 1.53 7.344 2.754 11.322 3.366 c 0.918 0 1.224 -1.53 0.306 -1.53 c -3.06 -0.612 -5.814 -1.53 -8.568 -2.448 c 2.448 -0.306 4.896 0 7.344 0.918 c 2.448 0.918 4.59 2.448 6.426 4.284 c -1.224 -0.306 -2.448 -0.612 -3.672 -0.918 s -1.53 1.53 -0.612 1.836 c 2.448 0.918 4.896 2.142 7.65 3.06 c 0.918 0.918 1.53 1.836 2.142 3.06 c -3.978 -1.53 -8.568 -2.754 -12.546 -3.672 C 162.771 68.944 162.159 71.392 163.689 72.004 z M 162.771 183.082 c -12.852 -30.294 -8.262 -70.074 16.218 -92.718 c 30.294 -28.458 72.522 -28.152 111.384 -33.048 c 0.611 1.53 2.142 2.754 4.283 2.754 c 61.812 -1.836 126.072 45.288 102.816 114.444 c -7.344 22.032 -23.562 37.026 -43.758 46.818 c 12.852 -19.278 10.71 -46.206 -2.143 -65.79 c -18.054 -27.234 -52.632 -37.638 -83.844 -33.354 c -28.764 3.978 -62.118 19.278 -70.38 49.878 c -4.896 18.972 1.224 42.534 16.218 55.386 C 191.841 220.414 174.093 208.786 162.771 183.082 z M 274.155 196.24 c 4.59 -2.754 7.65 -6.426 9.18 -10.404 c 2.142 2.142 4.59 3.672 7.344 4.896 c 5.813 2.142 12.546 1.224 18.054 -1.836 s 11.322 -10.404 7.65 -16.83 c -0.918 -1.836 -3.672 -3.06 -5.814 -2.448 c -5.813 2.142 -8.567 10.098 -15.605 8.874 c -6.427 -1.224 -8.568 -9.18 -7.038 -14.688 c 4.284 -7.956 8.874 -16.524 10.71 -25.092 l 0 0 c 39.474 8.568 66.401 46.206 35.802 86.904 c -0.918 1.224 -1.224 2.448 -0.918 3.366 c -30.906 9.18 -66.096 8.874 -92.718 4.59 c -3.06 -0.612 -5.814 -0.918 -8.568 -1.53 c -10.404 -17.136 -25.092 -33.66 -19.278 -55.692 c 4.896 -17.748 21.42 -28.458 38.556 -33.966 c 0 0.612 0.306 1.224 0.612 1.836 c 5.814 9.18 13.77 17.748 21.114 25.398 c 0.306 0.306 0.612 0.306 0.918 0.612 c -0.306 3.978 -1.224 7.956 -3.366 11.016 c -4.59 6.732 -10.098 3.366 -12.852 -2.448 c -2.448 -4.59 -8.568 -2.754 -10.404 1.224 C 241.413 195.322 263.445 202.972 274.155 196.24 z M 117.789 271.822 c -13.464 -8.262 -50.796 -35.802 -33.66 -55.692 c 6.12 -7.038 13.77 -8.874 21.42 -7.956 c -4.59 5.508 3.06 13.158 8.568 8.262 c 0.918 -0.612 1.53 -1.53 2.448 -2.142 c 0.612 -0.612 1.224 -1.224 1.53 -2.142 c 10.098 4.896 19.278 12.546 25.398 18.36 c 11.322 11.016 19.89 23.868 29.682 35.802 c 0.612 0.612 1.224 0.918 1.836 1.224 c -5.508 6.732 -10.404 13.77 -14.382 21.726 C 146.247 283.756 131.253 280.084 117.789 271.822 z M 160.629 554.872 c -22.95 -3.061 -41.31 -22.338 -39.168 -46.206 c 2.142 -21.727 17.136 -29.376 34.884 -32.742 c 0.306 0.612 0.918 1.224 1.836 1.53 c 17.136 8.262 36.108 13.77 41.31 34.884 C 205.611 537.124 185.109 558.238 160.629 554.872 z M 213.261 489.082 c -1.224 4.59 -2.448 8.874 -3.978 13.464 c -6.732 -16.218 -21.114 -29.988 -37.944 -33.354 c 5.202 -1.836 9.792 -3.978 14.076 -7.037 c 6.12 -4.284 14.994 -12.547 15.606 -20.809 c 6.732 4.284 13.464 7.956 20.808 11.016 C 217.545 463.99 216.321 477.147 213.261 489.082 z M 338.721 438.897 C 338.721 438.897 338.416 438.897 338.721 438.897 c -6.426 -0.306 -12.546 -0.918 -18.666 -2.754 l 0 0 c 0 -0.306 -0.306 -0.611 -0.918 -0.611 c -5.202 -0.612 -10.404 -0.918 -15.606 -1.837 c -1.529 -0.306 -2.142 2.143 -0.611 2.448 c 5.201 0.918 10.71 1.53 15.911 1.53 c 0 0.306 0.307 0.612 0.612 0.612 c 3.979 1.224 8.568 2.142 12.853 2.447 c -4.284 1.225 -8.874 2.143 -13.158 3.061 c 0.611 -0.612 0.306 -1.836 -0.918 -1.836 c -6.732 -0.612 -13.158 -1.225 -19.584 -2.754 c -1.53 -0.307 -2.448 2.142 -0.612 2.447 c 6.12 1.53 12.546 2.448 18.972 2.448 c -13.77 2.448 -27.846 3.366 -41.616 2.754 c -0.918 0 -1.836 -0.306 -2.754 -0.306 c 0.612 -0.306 0.918 -1.53 0 -1.836 c -7.344 -1.836 -14.382 -3.979 -21.42 -6.426 c -1.53 -0.612 -2.142 1.836 -0.612 2.447 c 6.732 2.448 13.464 4.284 20.808 5.814 c -17.136 -1.224 -33.66 -5.202 -48.042 -12.24 c -0.306 -0.918 -0.612 -1.836 -0.918 -2.448 c 1.224 0.612 2.448 0.918 3.978 0.918 c 1.224 0.307 1.53 -1.224 0.612 -1.836 c -1.836 -0.611 -3.978 -1.529 -5.508 -2.447 c -0.612 -1.836 -1.224 -3.673 -1.836 -5.814 c 2.754 1.836 6.12 3.366 9.18 3.979 c 1.224 0.306 1.836 -1.225 0.918 -1.837 c -3.978 -2.142 -7.65 -3.978 -11.322 -6.119 c -0.306 -1.53 -0.918 -3.061 -1.224 -4.591 c 4.59 1.836 8.874 3.979 13.464 5.509 c 0.918 0.306 1.53 -1.225 0.612 -1.53 c -4.59 -2.754 -9.486 -4.896 -14.382 -6.426 h -0.306 c -0.612 -2.448 -0.918 -4.59 -1.53 -7.038 c 3.978 1.224 7.65 3.06 11.628 4.896 c 0.612 0.307 1.53 -0.611 0.918 -1.224 c -3.672 -3.061 -8.262 -4.59 -12.852 -5.814 c -0.306 -1.836 -0.306 -3.365 -0.612 -5.201 c 3.978 1.224 7.956 2.754 12.24 3.978 c 0.918 0.306 1.836 -1.224 0.612 -1.836 c -4.284 -2.448 -8.568 -3.672 -13.158 -4.896 c -0.306 -2.142 -0.306 -4.283 -0.306 -6.426 c 3.366 1.53 6.732 2.754 10.098 3.672 c 1.224 0.307 1.836 -1.224 0.918 -1.836 c -3.672 -1.836 -7.344 -3.366 -11.016 -4.896 c 0 -1.53 0 -3.061 0 -4.59 c 3.06 1.224 6.12 2.447 9.18 3.672 c 1.224 0.306 1.836 -1.53 0.918 -1.836 c -3.366 -1.53 -6.426 -2.755 -9.792 -3.979 c 0 -1.53 0.306 -3.366 0.306 -4.896 c 3.366 1.224 6.732 2.447 9.792 3.672 c 1.224 0.306 2.142 -1.53 0.918 -2.143 c -3.366 -1.836 -7.038 -3.06 -10.404 -4.284 c 0.306 -2.447 0.612 -4.59 0.918 -7.037 c 3.672 1.529 7.038 3.365 11.016 4.59 c 1.224 0.306 2.142 -1.53 0.918 -2.143 c -3.672 -1.836 -7.65 -3.365 -11.322 -4.896 c 0.306 -1.53 0.612 -2.754 1.224 -3.979 c 2.754 1.225 5.814 2.143 8.874 2.754 c 1.53 0.307 2.142 -1.836 0.612 -2.447 c -2.754 -1.225 -5.814 -2.143 -8.568 -3.366 c 0.918 -2.754 1.836 -5.508 2.754 -7.956 c 2.448 1.224 5.202 2.142 8.262 2.448 c 0.918 0 1.53 -1.53 0.612 -1.836 c -2.448 -1.225 -5.202 -2.143 -7.65 -3.366 c 0.918 -2.143 1.836 -3.979 3.06 -5.814 c 2.142 0.918 4.284 1.836 6.426 2.754 c 1.224 0.612 2.142 -1.529 0.918 -2.142 c -1.836 -0.918 -3.978 -1.836 -6.12 -2.754 c 0.918 -1.53 2.142 -3.06 3.366 -4.59 c 1.224 0.611 2.754 0.918 4.284 1.224 c 1.224 0.307 2.142 -1.224 0.918 -2.142 c -0.918 -0.612 -2.142 -0.918 -3.06 -1.53 c 0.612 -0.612 1.224 -1.224 1.836 -1.836 c 1.53 0.612 3.366 1.224 4.896 1.836 c 1.53 0.612 2.448 -1.836 1.224 -2.754 c -1.224 -0.612 -2.448 -1.224 -3.672 -1.836 c 1.53 -1.53 3.366 -3.061 5.202 -4.59 c 0.306 0.306 0.306 0.611 0.612 0.611 c 6.732 2.143 13.77 4.591 20.808 4.896 c 1.836 0 2.142 -2.448 0.306 -3.061 c -6.12 -1.836 -12.852 -2.754 -19.278 -4.59 c 1.224 -0.918 3.06 -1.836 4.284 -2.754 c -0.306 0.918 0 1.836 1.224 1.836 c 4.59 0.918 9.18 2.143 13.77 2.448 c 1.53 0 1.836 -2.142 0.306 -2.754 c -4.284 -1.53 -8.568 -2.142 -13.158 -3.06 c 0.918 -0.612 2.142 -0.919 3.06 -1.53 c 0 0 0 0 0.306 0 c 5.202 0.306 10.404 1.53 15.606 2.448 c 1.224 0.306 2.448 -1.837 0.918 -2.448 c -3.366 -1.53 -6.732 -2.143 -10.404 -2.754 c 4.59 -1.53 9.486 -2.754 14.994 -3.366 c 0 0.612 0.306 0.918 0.918 1.224 c 6.12 1.836 12.546 4.284 18.666 4.284 c 1.836 0 1.836 -2.142 0.306 -2.754 c -4.283 -1.836 -9.18 -2.448 -14.076 -3.672 c 2.448 -0.306 4.59 -0.306 7.038 0 c 3.366 0.612 6.427 1.53 9.792 1.53 c 0.612 0 0.612 -0.307 0.919 -0.612 c 0.918 0 1.529 0.306 2.447 0.612 c -0.306 0.611 0 1.529 0.918 1.529 c 4.896 1.53 9.792 3.061 14.994 3.672 h 0.307 c 5.508 2.448 11.016 5.509 16.218 9.181 c -3.061 -1.225 -6.12 -2.143 -9.181 -3.061 c -1.836 -0.611 -2.754 2.448 -0.918 3.061 c 3.366 0.918 6.427 2.142 9.792 2.447 c 0.918 0 1.53 -1.224 1.225 -1.836 c 4.284 2.755 8.262 6.12 11.934 9.486 c -3.978 -0.918 -7.956 -1.836 -11.934 -2.142 c -0.918 0 -1.225 1.529 -0.307 1.836 c 5.509 0.918 10.71 2.448 15.912 3.978 c 7.345 7.65 13.464 16.524 17.748 26.316 c -3.06 -1.225 -6.426 -2.143 -9.792 -2.754 c -1.529 -0.307 -2.142 1.836 -0.611 2.142 c 4.283 0.918 8.262 2.754 11.934 4.59 c 0.612 1.53 1.224 3.061 1.836 4.896 c -5.202 -1.836 -10.404 -3.061 -15.3 -5.202 c -1.225 -0.612 -2.448 1.53 -1.225 2.142 c 5.509 2.448 11.322 5.202 17.137 5.814 c 0.611 1.836 1.224 3.672 1.529 5.508 l -0.306 -0.306 c -5.813 -2.754 -12.24 -4.284 -18.666 -6.12 c -1.836 -0.612 -2.754 2.448 -0.918 3.06 c 6.12 1.836 12.24 4.284 18.36 5.508 c 0.611 0 1.529 -0.306 1.529 -0.918 c 2.755 14.076 1.225 28.458 -5.813 42.534 c -0.918 1.836 -1.224 3.979 -0.612 5.508 c -0.306 0.307 -0.918 0.307 -1.224 0.612 c -5.814 -1.53 -11.935 -2.448 -17.748 -4.284 c -1.53 -0.611 -1.836 1.836 -0.612 2.143 c 4.59 1.529 9.486 3.366 14.382 4.284 c -2.142 1.224 -4.283 2.447 -6.426 3.365 c -4.284 -0.918 -8.874 -1.529 -13.158 -2.447 c -1.224 -0.307 -1.836 1.529 -0.611 2.142 c 3.06 0.918 6.426 1.53 9.792 2.142 C 346.065 436.45 342.393 437.979 338.721 438.897 z M 444.292 455.422 c 0.306 0 0.306 0.306 0.611 0.306 c 33.048 6.427 22.645 41.616 4.896 58.752 c -12.853 12.24 -41.311 34.272 -59.059 21.114 c -20.808 -15.3 1.225 -43.758 14.688 -56.61 C 416.751 467.968 430.215 461.848 444.292 455.422 z M 408.183 445.63 c 5.508 2.142 10.71 3.978 16.218 5.508 c -22.644 7.65 -41.616 26.928 -51.714 47.431 c -1.224 2.447 -2.142 4.896 -3.06 7.649 c -2.448 -6.12 -4.896 -12.24 -6.732 -18.36 c -3.978 -12.546 -5.202 -26.01 -10.404 -38.25 c 11.935 -4.59 22.95 -11.016 32.742 -18.972 c 0 1.224 0 2.448 0.918 3.366 C 391.965 440.428 400.839 442.57 408.183 445.63 z M 408.489 373.72 c -4.896 14.382 -12.239 26.316 -21.113 36.108 c 16.218 -55.998 -51.103 -120.564 -104.958 -118.729 c -72.216 2.448 -100.98 77.418 -73.134 135.252 c -22.644 -15.3 -39.168 -38.861 -44.37 -69.462 c -7.956 -47.124 19.278 -84.456 53.55 -112.608 c 11.322 3.366 23.562 5.814 36.108 7.038 c 29.988 2.448 67.014 -1.53 97.614 -14.688 c 0.306 0.306 0.306 0.612 0.612 0.612 C 396.861 267.844 426.237 319.864 408.489 373.72 z" stroke-linecap="round" />
</g>
		<g transform="matrix(1.41 0 0 1.41 36.75 201.93)"  >
<path style="stroke: none; stroke-width: 1; stroke-dasharray: none; stroke-linecap: butt; stroke-dashoffset: 0; stroke-linejoin: miter; stroke-miterlimit: 4; fill: rgb(207,203,190); fill-rule: nonzero; opacity: 1;"  transform=" translate(-310.64, -428.16)" d="M 319.75 428.494 c -6.12 -0.307 -11.629 -0.918 -17.442 -3.061 c -1.53 -0.611 -2.448 2.143 -0.612 2.754 c 5.814 2.448 11.935 3.366 18.36 2.448 C 320.973 430.33 320.667 428.494 319.75 428.494 z" stroke-linecap="round" />
</g>
		<g transform="matrix(1.41 0 0 1.41 52.64 194.52)"  >
<path style="stroke: none; stroke-width: 1; stroke-dasharray: none; stroke-linecap: butt; stroke-dashoffset: 0; stroke-linejoin: miter; stroke-miterlimit: 4; fill: rgb(207,203,190); fill-rule: nonzero; opacity: 1;"  transform=" translate(-321.91, -422.89)" d="M 344.229 426.046 c -7.038 -1.53 -14.382 -1.53 -21.42 -3.061 c -0.306 0 -0.306 0 -0.612 0 c 0.307 -0.611 0 -1.224 -0.611 -1.224 c -6.732 -2.142 -14.688 -2.448 -21.727 -3.366 c -1.224 -0.306 -1.53 2.143 -0.306 2.143 c 7.038 1.224 14.688 3.06 22.032 2.754 c 0 0 0 0 0.306 0 c -0.306 0.611 -0.306 1.53 0.612 1.53 c 7.038 1.224 14.688 3.06 21.726 2.447 C 345.147 427.882 345.453 426.352 344.229 426.046 z" stroke-linecap="round" />
</g>
		<g transform="matrix(1.41 0 0 1.41 41.52 183)"  >
<path style="stroke: none; stroke-width: 1; stroke-dasharray: none; stroke-linecap: butt; stroke-dashoffset: 0; stroke-linejoin: miter; stroke-miterlimit: 4; fill: rgb(207,203,190); fill-rule: nonzero; opacity: 1;"  transform=" translate(-314.04, -414.7)" d="M 322.197 415.03 c -5.202 -1.225 -10.403 -1.837 -15.3 -3.061 c -1.836 -0.612 -2.754 2.448 -0.918 3.061 c 5.202 1.224 10.71 2.754 15.912 2.447 C 323.115 417.478 323.727 415.336 322.197 415.03 z" stroke-linecap="round" />
</g>
		<g transform="matrix(1.41 0 0 1.41 69.83 159.96)"  >
<path style="stroke: none; stroke-width: 1; stroke-dasharray: none; stroke-linecap: butt; stroke-dashoffset: 0; stroke-linejoin: miter; stroke-miterlimit: 4; fill: rgb(207,203,190); fill-rule: nonzero; opacity: 1;"  transform=" translate(-334.17, -398.31)" d="M 344.841 399.118 c -6.12 -1.225 -12.546 -1.836 -18.666 -2.448 c 0 0 0 0 -0.307 -0.307 c -0.611 -0.306 -0.918 -0.306 -1.224 0 c -0.306 0 -0.306 0 -0.612 0 c -1.224 0 -1.529 1.837 -0.306 1.837 h 0.306 c 0 0 0 0.306 0.307 0.306 c 0.611 0.306 1.224 0.612 1.836 0.918 c 0.611 0.306 1.53 0 1.836 -0.918 c 5.508 0.918 11.016 1.53 16.523 1.836 C 345.453 400.954 345.759 399.424 344.841 399.118 z" stroke-linecap="round" />
</g>
		<g transform="matrix(1.41 0 0 1.41 64.1 208.44)"  >
<path style="stroke: none; stroke-width: 1; stroke-dasharray: none; stroke-linecap: butt; stroke-dashoffset: 0; stroke-linejoin: miter; stroke-miterlimit: 4; fill: rgb(207,203,190); fill-rule: nonzero; opacity: 1;"  transform=" translate(-330.1, -432.79)" d="M 338.416 432.472 c -5.509 -0.306 -11.017 -0.612 -16.219 -1.836 c -1.529 -0.306 -2.142 2.142 -0.611 2.448 c 5.508 1.53 11.321 2.448 17.136 1.53 C 339.945 434.308 339.639 432.472 338.416 432.472 z" stroke-linecap="round" />
</g>
		<g transform="matrix(1.41 0 0 1.41 69.63 186.67)"  >
<path style="stroke: none; stroke-width: 1; stroke-dasharray: none; stroke-linecap: butt; stroke-dashoffset: 0; stroke-linejoin: miter; stroke-miterlimit: 4; fill: rgb(207,203,190); fill-rule: nonzero; opacity: 1;"  transform=" translate(-334.03, -417.31)" d="M 341.475 417.478 c -4.896 -0.918 -9.486 -1.529 -14.382 -2.142 c -1.225 -0.307 -1.836 1.836 -0.612 1.836 c 4.896 0.918 9.792 1.836 14.688 2.142 C 342.393 419.313 342.699 417.784 341.475 417.478 z" stroke-linecap="round" />
</g>
		<g transform="matrix(1.41 0 0 1.41 83.66 183.7)"  >
<path style="stroke: none; stroke-width: 1; stroke-dasharray: none; stroke-linecap: butt; stroke-dashoffset: 0; stroke-linejoin: miter; stroke-miterlimit: 4; fill: rgb(207,203,190); fill-rule: nonzero; opacity: 1;"  transform=" translate(-343.98, -415.18)" d="M 365.037 418.09 c -6.731 -0.918 -13.157 -2.142 -19.584 -4.59 c 0 0 0 0 -0.306 0 c 0.306 -0.612 0.306 -1.225 -0.612 -1.225 c -7.038 -1.224 -14.688 -1.836 -21.726 -2.447 c -1.224 0 -1.224 1.836 0 2.142 c 7.038 0.918 14.076 1.836 21.42 2.142 c -0.306 0.612 -0.612 1.53 0.306 1.837 c 6.427 2.754 13.465 4.59 20.502 4.59 C 366.567 419.926 366.261 418.09 365.037 418.09 z" stroke-linecap="round" />
</g>
		<g transform="matrix(1.41 0 0 1.41 72.82 169.47)"  >
<path style="stroke: none; stroke-width: 1; stroke-dasharray: none; stroke-linecap: butt; stroke-dashoffset: 0; stroke-linejoin: miter; stroke-miterlimit: 4; fill: rgb(207,203,190); fill-rule: nonzero; opacity: 1;"  transform=" translate(-336.31, -405.07)" d="M 341.475 404.932 c -3.06 -1.224 -6.12 -1.53 -9.486 -2.142 c -1.836 -0.307 -2.447 2.448 -0.611 2.754 c 3.365 0.612 6.426 1.53 9.792 1.836 C 342.699 407.38 342.699 405.544 341.475 404.932 z" stroke-linecap="round" />
</g>
		<g transform="matrix(1.41 0 0 1.41 84.91 86.21)"  >
<path style="stroke: none; stroke-width: 1; stroke-dasharray: none; stroke-linecap: butt; stroke-dashoffset: 0; stroke-linejoin: miter; stroke-miterlimit: 4; fill: rgb(207,203,190); fill-rule: nonzero; opacity: 1;"  transform=" translate(-344.91, -345.85)" d="M 354.327 348.322 c -5.813 -2.448 -11.934 -4.591 -18.054 -6.732 c -1.53 -0.612 -1.836 1.836 -0.612 2.142 c 5.814 2.143 11.629 4.591 17.748 6.427 C 354.633 350.464 355.551 348.934 354.327 348.322 z" stroke-linecap="round" />
</g>
		<g transform="matrix(1.41 0 0 1.41 81.73 77.19)"  >
<path style="stroke: none; stroke-width: 1; stroke-dasharray: none; stroke-linecap: butt; stroke-dashoffset: 0; stroke-linejoin: miter; stroke-miterlimit: 4; fill: rgb(207,203,190); fill-rule: nonzero; opacity: 1;"  transform=" translate(-342.64, -339.42)" d="M 354.327 342.813 c -7.344 -3.06 -14.688 -5.813 -22.338 -8.262 c -1.529 -0.612 -2.142 1.836 -0.611 2.448 c 7.344 2.448 14.688 5.508 22.338 7.344 C 354.633 344.649 355.245 343.426 354.327 342.813 z" stroke-linecap="round" />
</g>
		<g transform="matrix(1.41 0 0 1.41 17.9 65.53)"  >
<path style="stroke: none; stroke-width: 1; stroke-dasharray: none; stroke-linecap: butt; stroke-dashoffset: 0; stroke-linejoin: miter; stroke-miterlimit: 4; fill: rgb(207,203,190); fill-rule: nonzero; opacity: 1;"  transform=" translate(-297.24, -331.13)" d="M 305.367 332.104 c -5.201 -0.918 -10.403 -1.836 -15.3 -3.978 c -1.224 -0.612 -2.448 1.53 -1.224 2.142 c 5.202 2.448 10.403 3.979 16.218 3.979 C 306.285 334.246 306.591 332.41 305.367 332.104 z" stroke-linecap="round" />
</g>
		<g transform="matrix(1.41 0 0 1.41 35.95 63.04)"  >
<path style="stroke: none; stroke-width: 1; stroke-dasharray: none; stroke-linecap: butt; stroke-dashoffset: 0; stroke-linejoin: miter; stroke-miterlimit: 4; fill: rgb(207,203,190); fill-rule: nonzero; opacity: 1;"  transform=" translate(-310.06, -329.35)" d="M 325.869 333.634 c -5.508 -2.142 -11.016 -3.978 -16.523 -6.426 c 0 -0.307 -0.306 -0.612 -0.612 -0.918 c -4.284 -1.53 -9.18 -2.448 -13.77 -3.366 c -1.53 -0.306 -2.448 2.142 -0.612 2.448 c 3.978 0.918 8.262 2.142 12.24 2.754 c 0 0 0 0.306 0.306 0.306 c 5.814 3.061 11.935 5.814 18.666 7.344 C 326.787 336.082 327.399 334.246 325.869 333.634 z" stroke-linecap="round" />
</g>
		<g transform="matrix(1.41 0 0 1.41 38.21 54.84)"  >
<path style="stroke: none; stroke-width: 1; stroke-dasharray: none; stroke-linecap: butt; stroke-dashoffset: 0; stroke-linejoin: miter; stroke-miterlimit: 4; fill: rgb(207,203,190); fill-rule: nonzero; opacity: 1;"  transform=" translate(-311.66, -323.53)" d="M 329.542 327.208 c -5.509 -2.754 -11.629 -3.979 -17.442 -5.814 c 0 -0.306 -0.306 -0.611 -0.612 -0.611 c -5.202 -1.836 -11.016 -2.448 -16.523 -3.366 c -1.836 -0.307 -2.448 2.448 -0.612 2.754 c 5.202 0.918 10.404 2.142 15.606 2.448 c 0 0.611 0.306 1.224 0.918 1.529 c 5.508 2.143 11.934 5.202 18.054 5.509 C 330.153 329.35 330.459 327.82 329.542 327.208 z" stroke-linecap="round" />
</g>
		<g transform="matrix(1.41 0 0 1.41 28.38 41.5)"  >
<path style="stroke: none; stroke-width: 1; stroke-dasharray: none; stroke-linecap: butt; stroke-dashoffset: 0; stroke-linejoin: miter; stroke-miterlimit: 4; fill: rgb(207,203,190); fill-rule: nonzero; opacity: 1;"  transform=" translate(-304.69, -314.04)" d="M 313.629 314.968 c -5.509 -2.448 -11.322 -3.672 -17.137 -4.284 c -1.529 -0.306 -1.836 2.448 -0.306 2.754 c 5.508 0.918 11.016 2.754 16.524 3.979 C 313.935 317.416 314.853 315.58 313.629 314.968 z" stroke-linecap="round" />
</g>
		<g transform="matrix(1.41 0 0 1.41 103.81 176.8)"  >
<path style="stroke: none; stroke-width: 1; stroke-dasharray: none; stroke-linecap: butt; stroke-dashoffset: 0; stroke-linejoin: miter; stroke-miterlimit: 4; fill: rgb(207,203,190); fill-rule: nonzero; opacity: 1;"  transform=" translate(-358.35, -410.29)" d="M 366.567 411.357 c -5.202 -1.836 -10.404 -3.06 -15.605 -4.283 c -1.53 -0.307 -2.143 1.836 -0.612 2.142 c 5.202 1.53 10.404 3.06 15.606 4.284 C 367.179 413.806 367.792 411.664 366.567 411.357 z" stroke-linecap="round" />
</g>
		<g transform="matrix(1.41 0 0 1.41 102.76 166.63)"  >
<path style="stroke: none; stroke-width: 1; stroke-dasharray: none; stroke-linecap: butt; stroke-dashoffset: 0; stroke-linejoin: miter; stroke-miterlimit: 4; fill: rgb(207,203,190); fill-rule: nonzero; opacity: 1;"  transform=" translate(-357.6, -403.05)" d="M 367.485 404.014 c -6.426 -1.224 -12.546 -2.754 -18.972 -4.284 c -1.836 -0.611 -2.448 2.143 -0.918 2.754 c 6.426 1.837 12.852 3.061 19.278 3.979 C 368.709 406.462 369.015 404.32 367.485 404.014 z" stroke-linecap="round" />
</g>
		<g transform="matrix(1.41 0 0 1.41 106.03 154.35)"  >
<path style="stroke: none; stroke-width: 1; stroke-dasharray: none; stroke-linecap: butt; stroke-dashoffset: 0; stroke-linejoin: miter; stroke-miterlimit: 4; fill: rgb(207,203,190); fill-rule: nonzero; opacity: 1;"  transform=" translate(-359.93, -394.31)" d="M 368.709 395.14 c -5.509 -1.224 -11.017 -2.754 -16.524 -4.59 c -2.142 -0.918 -3.366 2.754 -0.918 3.672 c 5.508 1.836 11.322 3.672 17.136 3.979 C 370.239 398.506 370.545 395.752 368.709 395.14 z" stroke-linecap="round" />
</g>
		<g transform="matrix(1.41 0 0 1.41 107.11 146.7)"  >
<path style="stroke: none; stroke-width: 1; stroke-dasharray: none; stroke-linecap: butt; stroke-dashoffset: 0; stroke-linejoin: miter; stroke-miterlimit: 4; fill: rgb(207,203,190); fill-rule: nonzero; opacity: 1;"  transform=" translate(-360.69, -388.87)" d="M 371.769 390.855 c -6.426 -3.365 -13.77 -4.896 -20.808 -6.12 c -1.836 -0.306 -2.754 2.448 -0.918 2.755 c 7.037 1.224 13.77 3.672 20.502 5.508 C 372.075 393.304 372.993 391.468 371.769 390.855 z" stroke-linecap="round" />
</g>
		<g transform="matrix(1.41 0 0 1.41 108.79 140.32)"  >
<path style="stroke: none; stroke-width: 1; stroke-dasharray: none; stroke-linecap: butt; stroke-dashoffset: 0; stroke-linejoin: miter; stroke-miterlimit: 4; fill: rgb(207,203,190); fill-rule: nonzero; opacity: 1;"  transform=" translate(-361.88, -384.34)" d="M 372.075 385.96 c -6.119 -3.366 -12.852 -4.59 -19.89 -5.202 c -1.53 0 -1.53 2.142 0 2.142 c 6.732 0.612 12.852 2.755 18.972 4.896 C 372.687 388.408 373.299 386.572 372.075 385.96 z" stroke-linecap="round" />
</g>
</g>
</g>
</svg>