<?xml version="1.0" encoding="UTF-8" standalone="no" ?>
<!DOCTYPE svg PUBLIC "-//W3C//DTD SVG 1.1//EN" "http://www.w3.org/Graphics/SVG/1.1/DTD/svg11.dtd">
<svg xmlns="http://www.w3.org/2000/svg" xmlns:xlink="http://www.w3.org/1999/xlink" version="1.1" width="800" height="800" viewBox="0 0 800 800" xml:space="preserve">
<desc>Created with Fabric.js 3.6.6</desc>
<defs>
</defs>
<g transform="matrix(0.92 0 0 0.92 400.25 401.25)"  >
<g style=""   >
		<g transform="matrix(0.05 0 0 -0.05 -0.29 -1.17)"  >
<path style="stroke: none; stroke-width: 1; stroke-dasharray: none; stroke-linecap: butt; stroke-dashoffset: 0; stroke-linejoin: miter; stroke-miterlimit: 4; fill: rgb(232,228,213); fill-rule: nonzero; opacity: 1;"  transform=" translate(-3350.17, -2784.18)" d="M 3013 5106 c -57 -18 -135 -69 -173 -112 c -39 -45 -87 -140 -104 -207 c -7 -28 -17 -52 -22 -52 c -5 1 -36 7 -69 14 c -143 32 -289 -27 -382 -152 c -72 -99 -97 -214 -79 -363 c 8 -62 8 -62 -42 -78 c -106 -35 -179 -103 -229 -213 c -36 -76 -44 -211 -18 -299 c 32 -113 110 -204 213 -252 c 42 -19 77 -26 148 -30 c 111 -6 112 -7 87 -108 c -17 -64 -18 -142 -18 -1004 c 0 -935 0 -935 27 -1032 c 106 -383 418 -675 807 -753 c 115 -24 342 -16 456 14 c 96 26 259 104 335 160 c 199 149 339 356 403 596 c 21 79 21 97 24 990 c 3 746 1 924 -11 990 c -7 44 -12 82 -10 84 c 3 3 46 8 97 11 c 137 9 223 57 297 165 c 66 96 89 256 55 373 c -25 83 -91 169 -170 224 c -48 32 -69 53 -68 65 c 14 100 14 147 -1 214 c -42 188 -177 313 -353 328 c -77 6 -77 6 -90 71 c -30 146 -118 267 -238 326 c -54 26 -70 29 -155 29 c -108 0 -155 -16 -247 -86 c -54 -40 -54 -40 -100 0 c -77 69 -144 96 -243 98 c -51 2 -102 -3 -127 -11 z m 551 -746 c 295 -75 529 -308 612 -610 c 26 -91 26 -328 1 -419 c -54 -196 -151 -346 -302 -466 c -242 -192 -587 -234 -870 -106 c -212 97 -380 284 -456 511 c -41 123 -51 298 -24 431 c 71 353 363 630 717 679 c 85 12 235 3 322 -20 z m 666 -2503 c 0 -205 -4 -411 -9 -458 c -11 -103 -28 -169 -42 -169 c -16 0 -499 232 -505 242 c -8 12 535 770 547 763 c 5 -4 9 -155 9 -378 z m -900 -389 c 382 -185 716 -346 743 -359 c 26 -12 47 -28 47 -35 c 0 -23 -99 -161 -159 -221 c -151 -152 -342 -237 -558 -250 c -264 -16 -508 84 -690 282 c -119 128 -199 298 -222 468 c -12 82 -15 499 -5 510 c 8 7 22 1 844 -395 z" stroke-linecap="round" />
</g>
		<g transform="matrix(0.05 0 0 -0.05 21.96 -54.87)"  >
<path style="stroke: none; stroke-width: 1; stroke-dasharray: none; stroke-linecap: butt; stroke-dashoffset: 0; stroke-linejoin: miter; stroke-miterlimit: 4; fill: rgb(232,228,213); fill-rule: nonzero; opacity: 1;"  transform=" translate(-3734.88, -3847.17)" d="M 3698 3940 c -64 -12 -138 -76 -138 -120 c 0 -5 12 -22 26 -39 c 30 -36 67 -40 104 -11 c 32 25 57 25 95 0 c 42 -28 79 -26 104 6 c 32 41 27 77 -15 114 c -54 47 -109 62 -176 50 z" stroke-linecap="round" />
</g>
		<g transform="matrix(0.05 0 0 -0.05 -19.05 -54.75)"  >
<path style="stroke: none; stroke-width: 1; stroke-dasharray: none; stroke-linecap: butt; stroke-dashoffset: 0; stroke-linejoin: miter; stroke-miterlimit: 4; fill: rgb(232,228,213); fill-rule: nonzero; opacity: 1;"  transform=" translate(-2966, -3844.95)" d="M 2891 3927 c -88 -28 -129 -114 -75 -156 c 34 -26 69 -27 101 -1 c 32 25 61 25 93 0 c 34 -27 70 -25 103 5 c 39 37 36 75 -8 113 c -55 49 -137 64 -214 39 z" stroke-linecap="round" />
</g>
		<g transform="matrix(0.05 0 0 -0.05 1.45 -19.71)"  >
<path style="stroke: none; stroke-width: 1; stroke-dasharray: none; stroke-linecap: butt; stroke-dashoffset: 0; stroke-linejoin: miter; stroke-miterlimit: 4; fill: rgb(232,228,213); fill-rule: nonzero; opacity: 1;"  transform=" translate(-3352.94, -3183.18)" d="M 3295 3461 c -94 -25 -184 -108 -210 -194 c -32 -108 -9 -194 74 -278 c 60 -59 125 -89 196 -89 c 97 0 204 69 252 164 c 50 97 31 220 -46 309 c -59 66 -186 109 -266 88 z m 125 -167 c 79 -47 80 -178 0 -219 c -62 -32 -146 -11 -175 45 c -31 61 -11 145 43 174 c 36 20 97 20 132 0 z" stroke-linecap="round" />
</g>
		<g transform="matrix(1 0 0 1 -20.5 15)"  >
<path style="stroke: rgb(232,228,213); stroke-width: 1; stroke-dasharray: none; stroke-linecap: round; stroke-dashoffset: 0; stroke-linejoin: round; stroke-miterlimit: 10; fill: none; fill-rule: nonzero; opacity: 1;"  transform=" translate(-379.5, -415)" d="M 379.499 415 L 379.501 415" stroke-linecap="round" />
</g>
		<g transform="matrix(1 0 0 1 0.5 48)"  >
<path style="stroke: rgb(232,228,213); stroke-width: 1; stroke-dasharray: none; stroke-linecap: round; stroke-dashoffset: 0; stroke-linejoin: round; stroke-miterlimit: 10; fill: none; fill-rule: nonzero; opacity: 1;"  transform=" translate(-400.5, -448)" d="M 400.499 448 L 400.501 448" stroke-linecap="round" />
</g>
		<g transform="matrix(1 0 0 1 1.5 48)"  >
<path style="stroke: rgb(232,228,213); stroke-width: 1; stroke-dasharray: none; stroke-linecap: round; stroke-dashoffset: 0; stroke-linejoin: round; stroke-miterlimit: 10; fill: none; fill-rule: nonzero; opacity: 1;"  transform=" translate(-401.5, -448)" d="M 401.499 448 L 401.501 448" stroke-linecap="round" />
</g>
</g>
</g>
</svg>