<svg version="1.2" xmlns="http://www.w3.org/2000/svg" viewBox="0 0 800 800" width="800" height="800">
	<title>month_image_stub1</title>
	<style>
		.s0 { fill: rgb(232,228,213) } 
		.s1 { fill: none;stroke: #e8e4d5;stroke-linecap: round;stroke-linejoin: round } 
	</style>
	<g>
		<g>
			<g>
				<path class="s0" d="m331.2 375.8c-1.5 1.5-2 3.6-2.5 5.6-1.1 3.2 3.2 5.5 5.4 3.2 1.6-1.5 3.2-2.8 3.8-4.9 1.1-3.9-3.9-6.6-6.7-3.9z"/>
			</g>
			<g>
				<path class="s0" d="m328.1 378.3c-0.5-1.1-1.4-1.4-2.5-1.9-1.8-0.8-3 2.2-1.4 3.3 1.1 0.5 1.8 0.9 3 0.7 1-0.3 1.2-1.3 0.9-2.1z"/>
			</g>
			<g>
				<path class="s0" d="m328.4 372.7c-0.7-0.5-1.2-0.7-2.1-1-1.2-0.4-2.4 1.4-1.4 2.4 0.6 0.6 1.1 1 1.9 1.4 1.9 0.9 3.4-1.7 1.6-2.8z"/>
			</g>
			<g>
				<path class="s0" d="m469.6 370c-1.4-0.6-2.8-0.7-4.2-1.2-1.2-0.4-2.5-1-3.9-1.4-2.4-0.5-4 1.9-3 3.9 1.6 3 5.7 5.9 8.9 6.8 2.2 0.4 4.5-0.7 5.2-3 0.5-2.4-0.9-4.3-3-5.1z"/>
			</g>
			<g>
				<path class="s0" d="m468.7 362.6c-1.3 0.5-1.8 1.8-2.6 3-1.3 2.1 1.9 3.8 3.3 1.9 0.8-1.2 1.6-2 1.7-3.5 0.1-1.3-1.5-1.9-2.4-1.4z"/>
			</g>
			<g>
				<path class="s0" d="m464.7 362.3c-0.4-0.9-2.1-0.9-2.4 0-0.5 1.1-0.4 1.7-0.1 2.8 0.3 1.4 2.4 1.4 2.8 0 0.1-1.1 0.2-1.7-0.3-2.8z"/>
			</g>
			<g>
				<path class="s0" d="m360.6 483.4c-2.6-1.6-5.5-0.5-7 1.8-2.1 3.1-6.6 7.4-5.4 11.5 0.4 1.1 1.3 2.2 2.5 2.4 5.1 1.2 9.3-5.1 11.8-8.7 1.6-2.3 0.4-5.8-1.9-7z"/>
			</g>
			<g>
				<path class="s0" d="m349 483.2c-1-1.5-2.5-1.6-4.3-1.8-0.9-0.1-1.7 0.9-1.7 1.7 0 1.5 1 2.7 2.3 3.5 1.1 0.6 2.3 0.4 3.2-0.4 0.1-0.2 0.1-0.2 0.2-0.3 0.7-0.6 0.9-1.8 0.3-2.7z"/>
			</g>
			<g>
				<path class="s0" d="m354.9 480.6c-0.5-1.9-2.4-3.3-3.5-4.8-1.2-1.5-3.2 0.5-2.5 1.9 0.7 1.6 1.2 3.7 2.5 4.9 1.6 1.4 4 0.1 3.5-2z"/>
			</g>
			<g>
				<path class="s0" d="m343.8 487.3c-2-0.6-4.3 1.3-2.9 3.4 1.3 1.9 3.9 2.8 5.9 1.3 3.3-2.6-0.3-6.7-3-4.7z"/>
			</g>
			<g>
				<path class="s0" d="m453.9 485.8c-1.8-2.6-4.8-3.5-7.7-4.8-1.4-0.6-2.9-0.6-3.9 0.8-0.9 1.2-1 3.1 0.2 4.1 2.1 1.9 4.5 4.5 7.5 5.1 1.4 0.2 2.8 0 3.6-1.3 0.9-1 1.3-2.7 0.3-3.9z"/>
			</g>
			<g>
				<path class="s0" d="m455.5 473.9c-0.8 1.9-1.5 3.9-2.1 5.9-0.7 1.8 2 2.7 2.9 1.3 1.1-1.6 2.4-3.1 3.3-4.7 1.4-2.7-2.8-5.1-4.1-2.5z"/>
			</g>
			<g>
				<path class="s0" d="m453.7 472c-0.1-0.2-0.3-0.3-0.3-0.4-0.8-0.9-2.6-0.9-3.5 0-0.1 0.1-0.2 0.2-0.2 0.4-0.9 0.9-1 2.3-0.5 3.5 0.2 0.3 0.4 0.5 0.5 0.8 0.9 1.5 3 1.5 4 0 0.2-0.3 0.3-0.6 0.4-0.8 0.6-1.2 0.4-2.5-0.4-3.5z"/>
			</g>
			<g>
				<path class="s0" d="m463.4 475.2c-1.7 1.1-2.5 2.9-3.6 4.7-1.1 1.9 1.7 4.2 3.2 2.4 1.3-1.5 2.9-2.9 3.4-4.9 0.3-1.6-1.4-3.1-3-2.2z"/>
			</g>
			<g>
				<path class="s0" d="m376.9 331.5c-1.7-3.2-5.7-4.4-9-3.3-4.1 1.5-6.2 6-5.3 10.2 0.4 1.8 2.8 1.4 3.4 0 1.1-2.6 4.3-8 7.5-4.3 0.8 0.9 1.4 2.3 2.9 1.5 1.5-0.8 1.1-2.9 0.5-4.1z"/>
			</g>
			<g>
				<path class="s0" d="m426.5 325.9c-4.6-1.8-10.2 2.2-9.2 7.2 0.4 1.9 2.8 1.2 3.1-0.3 0.2-2 3.2-3.2 4.8-2 2.2 1.6 0.8 4.5 1.1 6.6 0.3 1.3 2.1 2.1 3.2 1.3 4.5-3.2 1.4-11.2-3-12.8z"/>
			</g>
			<g>
				<path class="s0" d="m426.5 425.9c-2.5-1.2-5.2-2-7.8-2.9-0.2-0.4-0.4-0.9-0.7-1.2-3.5-4.4-8.6-4.3-12.3-2.1-2.1-0.1-4.1-0.5-6.1-1.3-0.6-0.2-0.8 0.7-0.2 0.9 1.6 0.7 3.4 1.1 5.1 1.2-0.5 0.4-0.8 0.7-1.2 1.1-1.6-0.2-3.2-0.3-4.9-0.6-0.4-0.1-0.5 0.6-0.2 0.7 1.5 0.3 3 0.6 4.6 0.6-0.6 0.7-1.1 1.6-1.3 2.4q-1.8-2.3-4.2-3.5c0-0.1-0.1-0.2-0.3-0.2-2.4-1.1-5.1-1.9-7.7-2.4-0.4-0.1-0.7 0.6-0.2 0.7q1.6 0.6 3.1 1.1c-1.7 0.2-3.2 0.9-4.6 2-0.1-0.1-0.1-0.3-0.3-0.3-2.1-0.7-4.2-1.2-6.3-2.1-0.8-0.3-1.1 1-0.3 1.3 2 0.8 4 1.4 6.1 1.8-0.3 0.2-0.6 0.6-0.9 0.8-2.1-0.7-4.3-1-6.4-1.9-0.6-0.2-0.8 0.7-0.2 1-0.2 0.2-0.4 0.7 0 0.9 1.7 0.7 3.5 1.6 5.4 2-0.4 0.7-0.6 1.4-0.9 2.1-1.5-0.8-3.3-1.3-4.9-2.1-0.5-0.4-1.1 0.6-0.4 0.9 1.6 0.8 3.4 1.9 5.2 2.4-0.1 0.9-0.1 1.7-0.1 2.6-1.7-0.7-3.6-1.4-5.4-2.1-0.5-0.2-1 0.9-0.4 1.1 2 0.8 3.9 1.7 5.9 2.2 0.5 2.2 1.5 4.4 3.1 6.2 0.9 1 1.8 2 2.9 2.7-1.2-0.3-2.2-0.4-3.3-0.6-0.5-0.1-0.7 0.7-0.2 0.8q2.3 0.5 4.5 1.1c1 0.2 2 0.5 2.9 0.8 1.1 0.3 2 0.6 3.1 0.8-0.1 0.2-0.1 0.6 0.2 0.7 2.2 0.7 4.5 1.5 6.8 1.9 0.6 0.1 0.8-0.7 0.2-0.9-1-0.4-2.2-0.7-3.2-1 0.7 0.1 1.5 0.1 2.2 0.2 0.2 0 0.3 0 0.4-0.1 0.4 0.4 0.9 0.6 1.4 0.5 0.3 0 0.6-0.1 1-0.3 0.1 0.2 0.1 0.2 0.2 0.2 2.1 0.2 4.2 0.4 6.3 0.5 0.6 0 0.7-0.8 0.1-0.9-1.4-0.2-2.8-0.3-4.3-0.5 0.6-0.2 1.3-0.5 1.9-0.9 1.5 0.2 2.9 0.5 4.4 0.6 0.6 0 0.7-0.8 0.1-0.9-0.9-0.3-1.8-0.5-2.9-0.6 1.4-1 2.8-2.2 4-3.5 2.3 0.3 4.6 0.7 7 0.7 0.4 0 0.7-0.8 0.1-1-2.1-0.3-4.3-0.4-6.4-0.7 0.4-0.5 0.9-1.1 1.3-1.8 1.4 0.1 2.9 0.3 4.3 0.3 0.6 0 0.7-0.9 0.1-1-1.3-0.3-2.5-0.4-3.7-0.5 0.2-0.5 0.4-0.8 0.7-1.3 1.5 0.4 3 0.8 4.6 1 0.6 0 0.6-0.9 0.1-1-1.4-0.6-2.9-0.8-4.3-1 0.5-1.2 0.7-2.4 1-3.6 1.1 0.4 2.3 0.9 3.6 1 0.6 0.1 0.7-0.6 0.2-0.8-1.2-0.5-2.4-0.9-3.7-1.3 0-0.6 0-1.2-0.1-1.7 1.6 0.5 3.2 1.1 4.9 1.4 0.3 0 0.4-0.5 0.2-0.7-1.5-1.1-3.5-1.6-5.4-2-0.1-0.6-0.3-1.2-0.6-1.8 2.3 1 4.5 1.9 6.8 2.4 0.4 0.3 0.7-0.3 0.3-0.5zm-11.4 4.7c-1.4 6.7-8.4 7.4-12.1 12-0.2 0.2-0.4 0.6-0.5 0.9-5.9-1.7-16.7-6.5-14.1-14.5 1.4-3.9 5.4-4.9 8.4-2.1 2 1.9 2.9 4.6 4.3 6.9 1 1.5 3.2 1 3.5-0.6 0.6-0.2 1.1-0.8 0.7-1.7-1.4-3.7 0.1-8.4 4.7-8.4 4.3 0 5.9 4 5.1 7.5z"/>
			</g>
			<g>
				<path class="s0" d="m384.1 457.3c-2-0.6-4-1.1-6-1.9-0.4-0.1-0.7 0.6-0.3 0.7 2 0.8 3.9 1.5 6 1.9 0.5 0.1 0.7-0.6 0.3-0.7z"/>
			</g>
			<g>
				<path class="s0" d="m383.7 455c-1.6-0.3-3-0.5-4.4-1.2-0.5-0.2-0.9 0.5-0.4 0.7 1.6 0.7 3.2 1.2 4.9 1.2 0.5 0 0.4-0.7-0.1-0.7z"/>
			</g>
			<g>
				<path class="s0" d="m384.9 452.4c-2-0.6-4-1-5.8-1.9-0.7-0.2-1 0.9-0.3 1.1 2 0.7 4 1.4 6.1 1.6 0.5 0.1 0.5-0.7 0-0.8z"/>
			</g>
			<g>
				<path class="s0" d="m385.1 449.4c-2-0.7-4.1-1.2-6-1.7-0.7-0.1-1 0.9-0.3 1.1 2 0.6 4.1 1.2 6.1 1.5 0.6 0.1 0.8-0.7 0.2-0.9z"/>
			</g>
			<g>
				<path class="s0" d="m385 447c-1.4-0.5-2.8-1-4.3-1.6-0.6-0.2-0.8 0.7-0.2 0.9q2.1 0.7 4.2 1.4c0.4 0.2 0.7-0.5 0.3-0.7z"/>
			</g>
			<g>
				<path class="s0" d="m385 444.3c-2-1-4.1-1.6-6.2-2.3-0.4-0.1-0.6 0.5-0.2 0.7 2 0.9 4 1.7 6.1 2.3 0.4 0.1 0.7-0.5 0.3-0.7z"/>
			</g>
			<g>
				<path class="s0" d="m384.8 439.8c-2.1-0.4-4.2-1.1-6.2-2.1-0.7-0.3-1.3 0.7-0.6 1.1 2.1 1.2 4.3 1.9 6.7 2 0.4 0.1 0.5-0.8 0.1-1z"/>
			</g>
			<g>
				<path class="s0" d="m385 437.6c-2.3-1.1-4.9-2-7.5-2.7-0.7-0.2-0.9 0.9-0.3 1.1 2.4 0.8 4.9 1.9 7.3 2.6 0.7 0.1 1.1-0.7 0.5-1z"/>
			</g>
			<g>
				<path class="s0" d="m387.3 418.8c-1.8-1-3.8-1.5-5.8-2.2-0.5-0.2-0.7 0.4-0.4 0.7 1.8 0.9 3.8 1.8 5.8 2.3 0.5 0.1 0.9-0.6 0.4-0.8z"/>
			</g>
			<g>
				<path class="s0" d="m389.2 416.1c-1.5-0.5-3-0.9-4.4-1.8-0.6-0.3-1.2 0.6-0.6 1 1.5 0.9 3.1 1.5 4.9 1.6 0.4 0.1 0.6-0.6 0.1-0.8z"/>
			</g>
			<g>
				<path class="s0" d="m398.3 418.7c-2.6-0.9-5.3-1.4-7.8-2.1-0.7-0.3-1.1 0.9-0.4 1.1 2.6 0.7 5.3 1.4 7.9 1.9 0.5 0 0.7-0.8 0.3-0.9z"/>
			</g>
			<g>
				<path class="s0" d="m398.5 416c-1.7-0.7-3.6-1-5.5-1.4-0.8-0.3-1.3 1.1-0.3 1.3 1.8 0.4 3.7 1 5.7 1.2 0.6 0.2 0.7-0.9 0.1-1.1z"/>
			</g>
			<g>
				<path class="s0" d="m399.9 413.8c-2.2-0.7-4.4-1.4-6.5-2.1-0.7-0.3-1 0.8-0.4 1 2.2 0.7 4.3 1.5 6.7 2 0.6 0.1 0.8-0.7 0.2-0.9z"/>
			</g>
			<g>
				<path class="s0" d="m402 410.6c-1.9-0.4-3.6-0.8-5.5-1.4-0.7-0.2-1 1-0.3 1.2 1.8 0.7 3.7 1.3 5.6 1.3 0.7 0 0.8-1 0.2-1.1z"/>
			</g>
			<g>
				<path class="s0" d="m394.4 457.6c-2.2-0.3-4.4-0.9-6.5-1.7-0.6-0.2-0.8 0.7-0.2 0.8 2.1 0.8 4.3 1.4 6.6 1.6 0.5 0.2 0.6-0.5 0.1-0.7z"/>
			</g>
			<g>
				<path class="s0" d="m394.2 455.4c-2.1-0.4-4.2-0.9-6.3-1.3-0.5-0.1-0.7 0.6-0.2 0.7 2.1 0.5 4.2 1 6.3 1.3 0.4 0 0.7-0.6 0.2-0.7z"/>
			</g>
			<g>
				<path class="s0" d="m395 453.1q-3.7-1-7.3-1.7c-0.5-0.2-0.7 0.5-0.3 0.7 2.5 0.5 4.9 1.2 7.4 1.7 0.5 0 0.7-0.6 0.2-0.7z"/>
			</g>
			<g>
				<path class="s0" d="m395 450.8c-2.7-0.8-5.2-1.5-7.8-2.6-0.3-0.1-0.7 0.6-0.3 0.7 2.5 1.2 5.2 2.1 8 2.5 0.4 0.1 0.4-0.5 0.1-0.6z"/>
			</g>
			<g>
				<path class="s0" d="m394.6 448.2c-2.5-1.1-5.3-1.6-8-2.1-0.6-0.1-0.8 0.8-0.2 0.8 2.7 0.5 5.2 1.3 7.8 2 0.5 0.3 0.7-0.4 0.4-0.7z"/>
			</g>
			<g>
				<path class="s0" d="m394.4 445.9c-2.4-1.4-5.6-1.9-8.1-2.7-0.7-0.2-1 0.8-0.3 1.1 2.7 0.8 5.5 2.2 8.3 2.4 0.4-0.1 0.5-0.7 0.1-0.8z"/>
			</g>
			<g>
				<path class="s0" d="m402.8 459.9c-2.7-0.5-5.3-0.9-8-1.6-0.5-0.1-0.6 0.6-0.3 0.7 2.6 1 5.4 1.7 8.2 1.4 0.4 0 0.5-0.4 0.1-0.5z"/>
			</g>
			<g>
				<path class="s0" d="m403.1 457.3c-2.5-0.6-5.2-0.8-7.6-1.3-0.4-0.1-0.6 0.6-0.2 0.6 2.5 0.6 5.2 1.3 7.8 1.3 0.2 0 0.3-0.6 0-0.6z"/>
			</g>
			<g>
				<path class="s0" d="m403.1 455.2c-2.4-0.8-4.8-1.3-7.2-1.9-0.4-0.1-0.7 0.6-0.2 0.8 2.3 0.6 4.8 1.4 7.1 1.9 0.5 0 0.7-0.6 0.3-0.8z"/>
			</g>
			<g>
				<path class="s0" d="m403.9 452.9c-2.3-0.8-4.5-1.5-6.8-2.1-0.6-0.1-0.8 0.7-0.2 0.8 2.2 0.7 4.4 1.5 6.7 2 0.6 0.1 0.7-0.6 0.3-0.7z"/>
			</g>
			<g>
				<path class="s0" d="m403.7 449.5c-2.1-0.6-4.2-0.8-6.3-1.5-0.5-0.3-0.8 0.7-0.2 0.9 2 0.8 4.2 1.5 6.4 1.5 0.5-0.1 0.6-0.8 0.1-0.9z"/>
			</g>
			<g>
				<path class="s0" d="m449.3 397.8c-2.4 1-0.2 4.3 2 3.4 13.6-6 42.9-22.2 27.4-41.4-5.5-6.7-14.9-5.9-21.6-1.2-8.9 6.3-14.2 18.3-18.6 28.1-2.8-2.8-5.9-5.4-9.3-7.6 10.7-5.7 18.7-14.8 19.4-28.4 0.3-7-1.2-13.5-4.1-19.3h0.1c13-8.7 14.4-28.2 1.1-37.3-12.8-8.6-31.3 0-31 15.7-3.8-0.6-7.9-0.6-12 0.2-0.2 0-0.5 0.1-0.7 0.2-10-1-21.5-0.4-31.4 3-1.2-6.5-7.2-11.6-13.4-13.2-8-2.1-16.6 1.5-21.3 8.1-4.4 6.3-4.5 14.5-0.7 21.2 2 3.3 6.8 8.3 11.1 7.9-0.2 0.7-0.4 1.3-0.6 2.1-4.5 22.1 7.2 36.8 24.6 43.4-4 2-7.5 4.6-10.7 7.7-5.3-12.5-29.6-37.8-42.2-19-5.6 8.5 2.5 17.7 8.8 23 6.7 5.4 15.7 9.9 24.6 9.3-3.4 7.7-4.7 16.4-3.4 24.7 1.8 12.2 8.5 22.3 17.6 29-2.3 1.6-3.8 4.8-6 6.6-2.8 2.3-5.7 3.6-9.1 4.3-7.5-1.1-15.7 6.4-17.5 13.5-2.9 12.1 6.1 23.4 17.7 25.6 10.8 2.1 20.9-4.3 22-15.6 0-0.4 0-0.6 0-1 4.2-7.6 7.3-18.4 6.4-26.4 5.4 1.9 11.2 3 17.2 2.8 9.2-0.1 18.3-1.1 26.6-3.8-1.1 8.7 3.4 19 8.8 26.7 0.3 6.3 4.6 11.5 12.7 11.7 10.7 0.3 24.3-9.8 28.5-19.4 3.5-8-0.3-20.3-10.1-19.8-0.1-0.5-0.4-1.1-1-1.1-1.5 0-3 0.1-4.4 0.4-2.8-1.8-5.6-3.5-8.7-4.9-2.7-1.3-5.5-3.2-8.5-3.3 4.8-4.3 8.6-9.8 11.2-16.9 6.2-17.2 1.4-34.7-9.8-47.5 5.5-9.6 25.3-45.1 35.5-24.6-0.8-0.3-1.9-0.2-2.5 0.9-0.4 0.9-0.9 1.7-1.5 2.7-0.9 1.7 1.5 3.8 2.8 2.2l2-2.4c0.1-0.1 0.2-0.3 0.2-0.4 4.6 15.3-17.4 24.9-28.2 30.1zm-5-99.2c11.3 7.8 7.9 22.3-1.4 29.7-1.3-2.1-2.8-4.1-4.5-5.9 2.6-2 4-5.9 4.5-8.8 0.5-3.5-0.6-7.2-3.4-9.6-6.9-5.7-13 2.5-15.4 8.3-2-0.8-4-1.5-6.1-1.9 2.3-12.2 15.2-19.5 26.3-11.8zm-11.2 16.3c1.6 0.7 3.3 1.3 5.1 1.4-0.1 0.4-0.4 0.6-0.5 0.9-2-0.3-3.8-0.9-5.6-1.9-0.3-0.3-0.8 0.3-0.4 0.7 1.6 1.2 3.6 2.1 5.6 2.2-0.4 0.6-0.9 1.3-1.1 1.8-2.8-2.5-5.9-4.7-9.3-6.5 0 0 0-0.1 0.1-0.1 1.6 0.7 3.1 1.3 4.9 1.5 0.5 0 0.6-0.7 0.2-0.8-1.5-0.7-3-1.2-4.5-1.8q0.1-0.3 0.3-0.7 1.9 0.9 4.2 1.1c0.5 0 0.6-0.7 0.1-0.8-1.1-0.5-2.4-0.8-3.6-1.2 0.3-0.3 0.5-0.6 0.7-0.9 1.5 0.6 3.1 1.3 4.7 1.5 0.5 0.1 0.8-0.6 0.3-0.8-1.2-0.7-2.8-1.2-4.2-1.7 0.4-0.3 0.6-0.7 1-1 1.5 0.7 3.1 1.4 4.6 1.4 0.5 0 0.7-0.7 0.3-0.9-1.2-0.7-2.5-1.1-3.9-1.6 0.4-0.2 0.8-0.4 1.2-0.7 1.2 0.6 2.4 1.1 3.7 1.4 0.4 0.2 0.6-0.1 0.7-0.3 0.3 0.2 0.5 0.5 0.7 0.8 0.3 0.4 0.4 0.7 0.6 1.2-0.7-0.3-1.3-0.6-2-0.8-0.4-0.3-0.7 0.5-0.3 0.8 0.8 0.4 1.7 1 2.7 1.5 0 0.3 0.1 0.7 0.1 1-1.3-0.7-2.8-1-4.1-1.7-0.7-0.4-1.2 0.6-0.6 1 1.3 0.9 3 1.9 4.7 1.9 0 0.5-0.1 0.8-0.3 1.3 0-0.1-0.1-0.1-0.1-0.2-0.9-0.6-2.1-0.7-3.1-1.2-0.6-0.2-1.2 0.6-0.6 0.9 1 0.6 2.2 1.2 3.4 1.1 0.1 0 0.1 0 0.2-0.1-0.1 0.4-0.2 0.8-0.3 1.1l-0.2-0.1c-1.6-0.7-3.3-1-5-1.6-0.8-0.5-1.1 0.7-0.4 0.9zm-85.6 18.4c-4.1 0.3-8.2-7.4-9-10.3-1.4-5.2 0.1-10.7 3.9-14.4 3.9-4 9.9-5.5 15.2-3.6 4.8 1.7 7.3 5.2 9.9 9.1-2.3 0.9-4.5 2-6.5 3.3-2.8-5.4-10.8-9.8-15.7-4.2-4.5 5.1-0.4 12.1 4.9 14.8-1.1 1.7-2 3.5-2.7 5.3zm5.7-15.1c1.5 0.4 3.2 1.1 4.8 1.5-0.2 0.2-0.5 0.3-0.7 0.6 0 0 0-0.1-0.1-0.1-1.5-0.6-3.4-0.7-5-1.1-0.6-0.1-0.9 0.7-0.3 0.8 1.5 0.4 3.2 0.8 4.7 0.8-0.4 0.4-0.7 0.6-1.1 1-1.4-0.5-2.9-0.7-4.3-1.1-0.4-0.1-0.7 0.6-0.2 0.8 1.2 0.4 2.4 0.9 3.6 1.1-0.2 0.2-0.3 0.3-0.6 0.6-1.3-0.5-2.7-0.8-3.9-1.2-0.5-0.1-0.6 0.5-0.3 0.7 1.2 0.5 2.5 0.8 3.8 1.1-0.5 0.5-1.1 1-1.6 1.7-1.4-1.4-3.2-3-4.2-4.8 0.7 0.5 1.4 0.8 2.3 1.1 0.2 0.1 0.4-0.4 0.2-0.5-0.9-0.5-2-1-2.8-1.6-0.1-0.5-0.2-1-0.2-1.4 1 0.4 2.1 0.9 3.2 1.3 0.4 0.1 0.6-0.5 0.3-0.6-1.2-0.5-2.3-1-3.4-1.5 0-0.4 0.1-0.6 0.2-1 0.1-0.2 0.2-0.2 0.4-0.4 1.5 0.5 3 1.1 4.5 1.4 0.4 0.1 0.5-0.5 0.1-0.6-1.4-0.5-2.9-1-4.3-1.4 0.4-0.4 0.7-0.7 1.2-0.8 1.4 0.5 2.8 1 4.3 1.2 0.3 0 0.5-0.5 0.1-0.5-1.2-0.3-2.2-0.6-3.3-1q1.4-0.2 2.8 0.4c1 0.3 1.8 0.9 2.5 1.6q-0.7-0.2-1.4-0.3c-0.5-0.2-0.6 0.5-0.2 0.7 0.9 0.3 1.8 0.8 2.9 1.1 0.3 0.4 0.6 0.7 0.8 1.2-1.5-0.6-3.3-1.1-4.8-1.4-0.3-0.6-0.6 0.3 0 0.6zm-0.3 42.3c-4.9-11.5-3.2-26.7 6.1-35.3 11.6-10.9 27.7-10.8 42.5-12.6 0.3 0.6 0.9 1 1.7 1 23.6-0.7 48.1 17.3 39.2 43.7-2.8 8.4-9 14.1-16.7 17.8 4.9-7.3 4.1-17.6-0.8-25.1-6.9-10.3-20.1-14.3-32-12.7-11 1.5-23.7 7.4-26.8 19-1.9 7.3 0.4 16.3 6.1 21.2-8.2-2.7-15-7.1-19.3-17zm42.5 5.1c1.7-1.1 2.9-2.5 3.5-4 0.8 0.8 1.7 1.4 2.8 1.9 2.2 0.8 4.7 0.4 6.8-0.7 2.1-1.2 4.4-4 3-6.5-0.4-0.7-1.4-1.1-2.3-0.9-2.2 0.8-3.2 3.9-5.9 3.4-2.5-0.5-3.3-3.5-2.7-5.6 1.6-3 3.4-6.3 4.1-9.6 15.1 3.3 25.3 17.6 13.6 33.2-0.3 0.4-0.4 0.9-0.3 1.3-11.8 3.5-25.2 3.3-35.4 1.7-1.1-0.2-2.2-0.3-3.2-0.6-4-6.5-9.6-12.8-7.4-21.2 1.9-6.8 8.2-10.9 14.7-13 0 0.3 0.1 0.5 0.2 0.7 2.3 3.5 5.3 6.8 8.1 9.7 0.1 0.1 0.2 0.1 0.4 0.2-0.2 1.6-0.5 3.1-1.3 4.2-1.8 2.6-3.9 1.3-4.9-0.9-1-1.7-3.3-1-4 0.5-2.3 5.8 6.1 8.7 10.2 6.2zm-59.7 28.8c-5.1-3.2-19.4-13.7-12.8-21.2 2.3-2.7 5.2-3.4 8.1-3.1-1.7 2.1 1.2 5 3.3 3.2 0.4-0.3 0.6-0.6 0.9-0.8 0.3-0.3 0.5-0.5 0.6-0.9 3.9 1.9 7.4 4.8 9.7 7 4.3 4.2 7.6 9.1 11.3 13.7 0.3 0.2 0.5 0.3 0.7 0.5-2.1 2.5-3.9 5.2-5.5 8.3-5.4-2.1-11.2-3.5-16.3-6.7zm16.3 108c-8.7-1.2-15.7-8.5-14.9-17.6 0.8-8.3 6.5-11.3 13.3-12.5 0.1 0.2 0.4 0.4 0.7 0.5 6.5 3.2 13.8 5.3 15.8 13.4 2.3 9.4-5.5 17.5-14.9 16.2zm20.1-25.1c-0.4 1.7-0.9 3.4-1.5 5.1-2.6-6.2-8-11.4-14.5-12.7 2-0.7 3.8-1.5 5.4-2.7 2.3-1.6 5.7-4.8 6-7.9 2.5 1.6 5.1 3 7.9 4.2-1.6 4.4-2.1 9.4-3.3 14zm47.9-19.2c0 0-0.1 0 0 0-2.5-0.1-4.8-0.3-7.1-1 0-0.1-0.2-0.2-0.4-0.2-2-0.3-4-0.4-5.9-0.7-0.6-0.2-0.9 0.8-0.3 0.9 2 0.3 4.1 0.6 6.1 0.6 0 0.1 0.1 0.2 0.2 0.2 1.5 0.5 3.3 0.8 4.9 0.9-1.6 0.5-3.4 0.9-5 1.2 0.2-0.2 0.1-0.7-0.3-0.7-2.6-0.2-5.1-0.5-7.5-1-0.6-0.2-0.9 0.8-0.2 0.9 2.3 0.6 4.7 0.9 7.2 0.9-5.3 1-10.6 1.3-15.9 1.1-0.3 0-0.7-0.1-1-0.1 0.2-0.2 0.3-0.6 0-0.7-2.8-0.7-5.5-1.6-8.2-2.5-0.6-0.2-0.8 0.7-0.2 0.9 2.5 1 5.1 1.7 7.9 2.3-6.5-0.5-12.8-2-18.3-4.7-0.1-0.4-0.3-0.7-0.4-0.9 0.5 0.2 1 0.3 1.5 0.3 0.5 0.1 0.6-0.5 0.3-0.7-0.7-0.2-1.5-0.6-2.1-0.9-0.3-0.7-0.5-1.4-0.7-2.3 1 0.7 2.3 1.3 3.5 1.6 0.4 0.1 0.7-0.5 0.3-0.7-1.5-0.9-2.9-1.6-4.3-2.4-0.1-0.6-0.3-1.1-0.5-1.7 1.8 0.7 3.4 1.5 5.2 2.1 0.3 0.1 0.6-0.5 0.2-0.6-1.7-1.1-3.6-1.9-5.5-2.5h-0.1c-0.2-0.9-0.3-1.7-0.6-2.6 1.5 0.4 2.9 1.1 4.5 1.8 0.2 0.1 0.5-0.2 0.3-0.4-1.4-1.2-3.1-1.8-4.9-2.3-0.1-0.7-0.1-1.2-0.2-1.9 1.5 0.4 3 1 4.6 1.5 0.4 0.1 0.7-0.5 0.3-0.7-1.7-1-3.3-1.4-5-1.9-0.2-0.8-0.2-1.6-0.2-2.4q2 0.8 3.9 1.4c0.5 0.1 0.7-0.5 0.3-0.7-1.4-0.7-2.8-1.3-4.2-1.9q0-0.9 0-1.8 1.8 0.7 3.5 1.4c0.5 0.2 0.7-0.5 0.4-0.7-1.3-0.5-2.5-1-3.7-1.5 0-0.6 0.1-1.3 0.1-1.8 1.3 0.4 2.5 0.9 3.7 1.4 0.5 0.1 0.8-0.6 0.4-0.9-1.3-0.7-2.7-1.1-4-1.6 0.1-0.9 0.2-1.7 0.3-2.7 1.4 0.6 2.7 1.3 4.2 1.8 0.5 0.1 0.9-0.6 0.4-0.8-1.4-0.7-2.9-1.3-4.3-1.9 0.1-0.6 0.2-1.1 0.4-1.5 1.1 0.4 2.3 0.8 3.4 1 0.6 0.1 0.8-0.7 0.3-0.9-1.1-0.5-2.3-0.8-3.3-1.3 0.3-1 0.7-2.1 1-3 1 0.4 2 0.8 3.2 0.9 0.3 0 0.6-0.6 0.2-0.7-0.9-0.5-2-0.8-2.9-1.3 0.4-0.8 0.7-1.5 1.2-2.2q1.2 0.5 2.4 1c0.5 0.3 0.8-0.5 0.4-0.8-0.7-0.3-1.5-0.7-2.4-1 0.4-0.6 0.9-1.2 1.3-1.8 0.5 0.3 1.1 0.4 1.7 0.5 0.4 0.1 0.8-0.5 0.3-0.8-0.3-0.3-0.8-0.4-1.2-0.6q0.4-0.4 0.7-0.7c0.6 0.2 1.3 0.5 1.9 0.7 0.6 0.2 0.9-0.7 0.5-1.1q-0.7-0.3-1.4-0.7c0.6-0.5 1.3-1.1 2-1.7 0.1 0.1 0.1 0.2 0.2 0.2 2.6 0.8 5.2 1.8 7.9 1.9 0.7 0 0.9-0.9 0.2-1.2-2.4-0.7-5-1-7.4-1.7 0.5-0.4 1.2-0.7 1.6-1.1-0.1 0.4 0 0.7 0.5 0.7 1.7 0.4 3.5 0.8 5.3 1 0.5 0 0.7-0.9 0.1-1.1-1.7-0.6-3.3-0.8-5.1-1.2 0.4-0.2 0.9-0.3 1.2-0.5 0 0 0 0 0.1 0 2 0.1 4 0.5 6 0.9 0.5 0.1 0.9-0.7 0.3-0.9-1.2-0.6-2.5-0.9-3.9-1.1 1.7-0.6 3.6-1 5.7-1.3 0 0.3 0.1 0.4 0.3 0.5 2.4 0.7 4.8 1.6 7.2 1.6 0.7 0 0.7-0.8 0.1-1-1.7-0.7-3.5-1-5.4-1.4 0.9-0.1 1.8-0.1 2.7 0 1.3 0.2 2.4 0.6 3.7 0.6 0.3 0 0.3-0.2 0.4-0.3 0.3 0 0.6 0.1 0.9 0.3-0.1 0.2 0 0.5 0.4 0.5 1.8 0.6 3.7 1.2 5.7 1.4h0.1c2.1 1 4.2 2.1 6.2 3.5-1.2-0.4-2.4-0.8-3.5-1.1-0.7-0.3-1.1 0.9-0.4 1.1 1.3 0.4 2.5 0.9 3.8 1 0.3 0 0.5-0.5 0.4-0.7 1.7 1 3.2 2.3 4.6 3.6-1.5-0.4-3-0.7-4.6-0.8-0.3 0-0.4 0.6-0.1 0.7 2.1 0.3 4.1 0.9 6.1 1.5 2.8 2.9 5.1 6.3 6.8 10-1.2-0.4-2.5-0.8-3.8-1-0.6-0.1-0.8 0.7-0.2 0.8 1.6 0.4 3.1 1.1 4.5 1.8 0.3 0.5 0.5 1.1 0.7 1.8-1.9-0.7-3.9-1.1-5.8-2-0.5-0.2-0.9 0.6-0.5 0.9 2.1 0.9 4.4 1.9 6.6 2.2 0.2 0.7 0.4 1.4 0.6 2.1l-0.2-0.1c-2.2-1.1-4.6-1.7-7.1-2.4-0.7-0.2-1 1-0.3 1.2 2.3 0.7 4.6 1.6 7 2.1 0.2 0 0.6-0.1 0.6-0.4 1 5.4 0.4 10.9-2.3 16.3-0.3 0.7-0.4 1.5-0.2 2.1-0.1 0.1-0.3 0.1-0.5 0.2-2.2-0.6-4.5-0.9-6.7-1.6-0.6-0.3-0.7 0.7-0.3 0.8 1.8 0.6 3.7 1.3 5.5 1.6-0.8 0.5-1.6 1-2.4 1.3-1.7-0.3-3.4-0.6-5-0.9-0.5-0.2-0.7 0.6-0.3 0.8 1.2 0.3 2.5 0.6 3.8 0.8-1.9 0.7-3.3 1.3-4.7 1.6zm40.3 6.3c0.1 0 0.1 0.2 0.2 0.2 12.6 2.4 8.6 15.8 1.9 22.4-4.9 4.6-15.8 13-22.6 8-7.9-5.8 0.5-16.7 5.6-21.6 4.4-4.2 9.5-6.5 14.9-9zm-13.8-3.7c2.1 0.8 4.1 1.5 6.2 2.1-8.7 2.9-15.9 10.3-19.8 18.1-0.4 0.9-0.8 1.9-1.1 2.9-1-2.3-1.9-4.7-2.6-7-1.5-4.8-2-9.9-4-14.6 4.6-1.7 8.8-4.2 12.5-7.2 0 0.5 0 0.9 0.4 1.3 2.2 2.4 5.6 3.2 8.4 4.4zm0.1-27.4c-1.9 5.5-4.7 10-8.1 13.7 6.2-21.3-19.5-45.9-40-45.2-27.5 0.9-38.5 29.5-27.9 51.6-8.6-5.9-14.9-14.9-16.9-26.5-3.1-18 7.3-32.3 20.4-43 4.3 1.3 9 2.2 13.8 2.7 11.4 0.9 25.5-0.6 37.2-5.6 0.1 0.1 0.1 0.2 0.3 0.2 16.8 11.7 28 31.5 21.2 52.1z"/>
			</g>
			<g>
				<path class="s0" d="m412.5 453.7c-2.4-0.1-4.5-0.4-6.7-1.2-0.6-0.2-0.9 0.8-0.2 1.1 2.2 0.9 4.5 1.3 7 0.9 0.3-0.1 0.2-0.8-0.1-0.8z"/>
			</g>
			<g>
				<path class="s0" d="m421.8 452.8c-2.7-0.6-5.5-0.6-8.2-1.2-0.1 0-0.1 0-0.2 0 0.1-0.2 0-0.5-0.2-0.5-2.6-0.8-5.6-0.9-8.3-1.3-0.5-0.1-0.6 0.9-0.1 0.9 2.7 0.4 5.6 1.1 8.4 1 0 0 0 0 0.1 0-0.1 0.2-0.1 0.6 0.2 0.6 2.7 0.5 5.6 1.2 8.3 0.9 0.4 0.3 0.5-0.3 0-0.4z"/>
			</g>
			<g>
				<path class="s0" d="m413.4 448.6c-2-0.5-4-0.7-5.8-1.2-0.7-0.2-1.1 0.9-0.4 1.2 2 0.4 4.1 1 6.1 0.9 0.5 0 0.7-0.8 0.1-0.9z"/>
			</g>
			<g>
				<path class="s0" d="m422 442.5c-2.3-0.5-4.8-0.7-7.1-0.9 0 0 0 0-0.1-0.1-0.2-0.2-0.4-0.2-0.5 0-0.1 0-0.1 0-0.2 0-0.5 0-0.6 0.7-0.1 0.7h0.1c0 0 0 0.1 0.1 0.1q0.4 0.2 0.7 0.3c0.2 0.1 0.6 0 0.7-0.3q3.2 0.5 6.3 0.7c0.4 0.2 0.5-0.4 0.1-0.5z"/>
			</g>
			<g>
				<path class="s0" d="m419.6 455.2c-2.1-0.1-4.2-0.2-6.2-0.7-0.6-0.1-0.8 0.8-0.2 0.9 2.1 0.6 4.3 1 6.5 0.6 0.5-0.1 0.3-0.8-0.1-0.8z"/>
			</g>
			<g>
				<path class="s0" d="m420.7 449.5c-1.8-0.4-3.6-0.6-5.4-0.8-0.5-0.1-0.7 0.7-0.3 0.7 1.9 0.3 3.8 0.7 5.6 0.8 0.5 0 0.6-0.6 0.1-0.7z"/>
			</g>
			<g>
				<path class="s0" d="m429.7 449.7c-2.5-0.3-5-0.8-7.4-1.7 0 0 0 0-0.2 0 0.2-0.2 0.2-0.5-0.2-0.5-2.7-0.5-5.6-0.7-8.3-0.9-0.4 0-0.4 0.7 0 0.8 2.7 0.4 5.4 0.7 8.2 0.8-0.1 0.3-0.2 0.6 0.1 0.7 2.5 1.1 5.1 1.8 7.8 1.8 0.6-0.3 0.5-1 0-1z"/>
			</g>
			<g>
				<path class="s0" d="m420.7 444.7c-1.1-0.4-2.3-0.6-3.6-0.8-0.7-0.1-0.9 0.9-0.2 1.1 1.3 0.2 2.4 0.5 3.7 0.7 0.6 0 0.6-0.7 0.1-1z"/>
			</g>
			<g>
				<path class="s0" d="m425.6 423.2c-2.2-0.9-4.5-1.8-6.9-2.6-0.5-0.2-0.7 0.7-0.2 0.8 2.2 0.9 4.4 1.8 6.8 2.5 0.4 0.1 0.8-0.5 0.3-0.7z"/>
			</g>
			<g>
				<path class="s0" d="m425.6 421.1c-2.8-1.2-5.6-2.2-8.5-3.1-0.6-0.3-0.8 0.7-0.2 0.9 2.8 0.9 5.6 2.1 8.5 2.8 0.3 0.1 0.6-0.4 0.2-0.6z"/>
			</g>
			<g>
				<path class="s0" d="m407 417c-2-0.3-4-0.7-5.8-1.5-0.5-0.2-1 0.6-0.5 0.8 2 1 4 1.5 6.2 1.5 0.5 0 0.6-0.7 0.1-0.8z"/>
			</g>
			<g>
				<path class="s0" d="m414.8 417.6c-2.1-0.8-4.2-1.5-6.3-2.4 0-0.2-0.1-0.3-0.2-0.4-1.7-0.6-3.5-0.9-5.3-1.3-0.6-0.1-0.9 0.8-0.2 1 1.5 0.3 3.1 0.8 4.7 1 0 0 0 0.1 0.1 0.1 2.2 1.2 4.5 2.2 7.1 2.8 0.5 0.1 0.7-0.6 0.1-0.8z"/>
			</g>
			<g>
				<path class="s0" d="m416.2 415.2c-2.1-1.1-4.4-1.6-6.6-2.3 0-0.1-0.1-0.2-0.3-0.2-2-0.7-4.2-0.9-6.3-1.3-0.7-0.1-0.9 1-0.2 1.1 2 0.3 4 0.8 6 0.9 0 0.2 0.1 0.5 0.3 0.6 2.1 0.8 4.6 2 6.9 2.1 0.5-0.1 0.6-0.7 0.2-0.9z"/>
			</g>
			<g>
				<path class="s0" d="m410.2 410.5c-2.2-0.9-4.4-1.4-6.6-1.6-0.6-0.1-0.7 0.9-0.1 1 2.1 0.4 4.2 1.1 6.3 1.5 0.5 0 0.8-0.7 0.4-0.9z"/>
			</g>
			<g>
				<path class="s0" d="m430.3 447.2c-2-0.7-4-1.2-6-1.7-0.6-0.1-0.8 0.7-0.2 0.8 2 0.6 4 1.2 5.9 1.7 0.5 0.1 0.7-0.7 0.3-0.8z"/>
			</g>
			<g>
				<path class="s0" d="m430.6 444.4c-2.4-0.5-4.8-1.1-7.2-1.7-0.7-0.2-0.9 0.9-0.4 1.1 2.5 0.7 4.9 1.2 7.4 1.5 0.7 0 0.8-0.8 0.2-0.9z"/>
			</g>
			<g>
				<path class="s0" d="m431.1 441q-3.2-0.7-6.3-1.8c-0.8-0.3-1.3 1.1-0.4 1.5 2.1 0.7 4.4 1.4 6.6 1.5 0.7 0.1 0.8-1 0.1-1.2z"/>
			</g>
			<g>
				<path class="s0" d="m432.3 439.4c-2.5-1.3-5.3-1.9-8-2.4-0.7-0.1-1 1-0.3 1.1 2.7 0.5 5.2 1.4 7.8 2.1 0.6 0.1 0.9-0.6 0.5-0.8z"/>
			</g>
			<g>
				<path class="s0" d="m432.4 437.5c-2.3-1.3-4.9-1.7-7.6-2-0.6 0-0.6 0.8 0 0.8 2.6 0.3 4.9 1.1 7.2 1.9 0.6 0.2 0.9-0.5 0.4-0.7z"/>
			</g>
		</g>
	</g>
	<g>
		<path class="s1" d="m371 397.1"/>
	</g>
</svg>