<?xml version="1.0" encoding="iso-8859-1"?>
<!-- Uploaded to: SVG Repo, www.svgrepo.com, Generator: SVG Repo Mixer Tools -->
<svg fill="#000000" height="800px" width="800px" version="1.1" id="Capa_1" xmlns="http://www.w3.org/2000/svg" xmlns:xlink="http://www.w3.org/1999/xlink" 
	 viewBox="0 0 51.699 51.699" xml:space="preserve">
<g>
	<polygon points="11.79,38.716 9.007,33.076 6.224,38.716 0,39.62 4.503,44.01 3.439,50.209 9.007,47.282 14.573,50.209 
		13.51,44.011 18.015,39.62 	"/>
	<path d="M9.086,30.732c0.274,0.213,0.598,0.315,0.92,0.315c0.447,0,0.89-0.199,1.186-0.579l1.228-1.579
		c0.508-0.654,0.39-1.597-0.264-2.105c-0.656-0.51-1.597-0.391-2.105,0.264l-1.228,1.579C8.314,29.281,8.433,30.223,9.086,30.732z"
		/>
	<path d="M12.77,25.994c0.273,0.213,0.598,0.316,0.92,0.316c0.447,0,0.89-0.199,1.185-0.579l1.228-1.578
		c0.509-0.654,0.392-1.597-0.263-2.104c-0.653-0.509-1.598-0.392-2.104,0.263l-1.228,1.578
		C11.998,24.544,12.115,25.487,12.77,25.994z"/>
	<path d="M27.503,7.05c0.274,0.213,0.599,0.316,0.921,0.316c0.446,0,0.889-0.198,1.185-0.578l1.229-1.578
		c0.509-0.654,0.392-1.597-0.262-2.105c-0.654-0.508-1.596-0.393-2.105,0.262l-1.229,1.578C26.732,5.599,26.85,6.541,27.503,7.05z"
		/>
	<path d="M16.453,21.258c0.273,0.213,0.598,0.316,0.92,0.316c0.447,0,0.89-0.199,1.185-0.579l1.228-1.578
		c0.509-0.654,0.392-1.597-0.263-2.104c-0.653-0.509-1.597-0.391-2.104,0.263l-1.228,1.578
		C15.682,19.808,15.799,20.75,16.453,21.258z"/>
	<path d="M20.137,16.523c0.273,0.213,0.598,0.316,0.92,0.316c0.447,0,0.89-0.199,1.185-0.579l1.229-1.579
		c0.509-0.653,0.392-1.596-0.263-2.104c-0.653-0.509-1.597-0.391-2.104,0.263l-1.229,1.579
		C19.365,15.072,19.482,16.014,20.137,16.523z"/>
	<path d="M23.82,11.786c0.273,0.213,0.598,0.316,0.92,0.316c0.447,0,0.89-0.199,1.185-0.579l1.229-1.579
		c0.509-0.653,0.392-1.596-0.263-2.104c-0.654-0.51-1.598-0.392-2.104,0.263l-1.229,1.579C23.049,10.335,23.166,11.278,23.82,11.786
		z"/>
	<path d="M44.629,17.908l-1.536,1.281c-0.636,0.531-0.722,1.477-0.191,2.113c0.297,0.355,0.724,0.539,1.153,0.539
		c0.339,0,0.68-0.114,0.96-0.348l1.536-1.281c0.636-0.531,0.722-1.477,0.191-2.113C46.211,17.464,45.265,17.379,44.629,17.908z"/>
	<path d="M51.352,14.26c-0.53-0.637-1.476-0.723-2.112-0.192l-1.536,1.28c-0.637,0.53-0.723,1.477-0.192,2.112
		c0.297,0.356,0.724,0.54,1.153,0.54c0.338,0,0.679-0.114,0.959-0.348l1.536-1.28C51.796,15.842,51.882,14.896,51.352,14.26z"/>
	<path d="M40.021,21.75l-1.536,1.28c-0.637,0.53-0.723,1.477-0.192,2.112c0.297,0.356,0.724,0.54,1.153,0.54
		c0.338,0,0.679-0.114,0.959-0.348l1.536-1.28c0.637-0.53,0.723-1.477,0.192-2.112C41.603,21.306,40.657,21.22,40.021,21.75z"/>
	<path d="M35.411,25.591l-1.536,1.28c-0.637,0.53-0.723,1.477-0.192,2.112c0.297,0.356,0.724,0.54,1.153,0.54
		c0.338,0,0.679-0.114,0.959-0.348l1.536-1.28c0.637-0.53,0.723-1.477,0.192-2.112C36.993,25.147,36.048,25.061,35.411,25.591z"/>
	<path d="M30.802,29.432l-1.536,1.28c-0.637,0.53-0.723,1.477-0.192,2.112c0.297,0.356,0.724,0.54,1.153,0.54
		c0.338,0,0.679-0.114,0.959-0.348l1.536-1.28c0.637-0.53,0.723-1.477,0.192-2.112C32.384,28.988,31.438,28.903,30.802,29.432z"/>
	<path d="M26.192,33.274l-1.536,1.28c-0.637,0.53-0.723,1.477-0.192,2.112c0.297,0.356,0.724,0.54,1.153,0.54
		c0.338,0,0.679-0.114,0.959-0.348l1.536-1.28c0.637-0.53,0.723-1.477,0.192-2.112C27.774,32.829,26.829,32.743,26.192,33.274z"/>
	<path d="M21.583,37.115l-1.536,1.28c-0.637,0.53-0.723,1.477-0.192,2.112c0.297,0.356,0.724,0.54,1.153,0.54
		c0.338,0,0.679-0.114,0.959-0.348l1.536-1.28c0.637-0.53,0.723-1.477,0.192-2.112C23.165,36.67,22.22,36.584,21.583,37.115z"/>
	<path d="M30.143,18.899c0.287,0.261,0.648,0.39,1.009,0.39c0.407,0,0.814-0.165,1.11-0.491l1.345-1.479
		c0.557-0.613,0.512-1.562-0.102-2.119c-0.611-0.555-1.561-0.513-2.119,0.102l-1.345,1.479
		C29.484,17.393,29.529,18.341,30.143,18.899z"/>
	<path d="M39.223,10.409c0.407,0,0.814-0.165,1.11-0.491l1.346-1.48c0.557-0.613,0.512-1.562-0.102-2.119
		c-0.611-0.555-1.562-0.513-2.119,0.102l-1.346,1.48c-0.557,0.613-0.512,1.562,0.102,2.119
		C38.501,10.281,38.862,10.409,39.223,10.409z"/>
	<path d="M35.188,14.849c0.407,0,0.814-0.165,1.11-0.491l1.345-1.479c0.557-0.613,0.512-1.562-0.102-2.119
		c-0.61-0.555-1.562-0.513-2.119,0.102l-1.345,1.479c-0.557,0.613-0.512,1.562,0.102,2.119
		C34.466,14.72,34.827,14.849,35.188,14.849z"/>
	<path d="M43.259,5.97c0.407,0,0.814-0.165,1.11-0.491l1.346-1.48c0.557-0.613,0.512-1.562-0.102-2.119
		c-0.611-0.555-1.561-0.513-2.119,0.102l-1.346,1.48c-0.557,0.613-0.512,1.562,0.102,2.119C42.537,5.841,42.898,5.97,43.259,5.97z"
		/>
	<path d="M15.243,33.058l-1.346,1.479c-0.558,0.613-0.513,1.562,0.1,2.119c0.288,0.262,0.649,0.391,1.01,0.391
		c0.407,0,0.813-0.165,1.109-0.49l1.346-1.479c0.558-0.613,0.513-1.562-0.1-2.119S15.801,32.445,15.243,33.058z"/>
	<path d="M21.499,30.636c0.557-0.613,0.512-1.562-0.102-2.119c-0.611-0.555-1.562-0.514-2.119,0.102l-1.346,1.48
		c-0.557,0.613-0.512,1.562,0.102,2.119c0.287,0.261,0.648,0.39,1.009,0.39c0.407,0,0.814-0.165,1.11-0.491L21.499,30.636z"/>
	<path d="M23.313,24.179l-1.345,1.48c-0.557,0.613-0.512,1.563,0.102,2.119c0.287,0.261,0.648,0.39,1.009,0.39
		c0.407,0,0.814-0.166,1.11-0.491l1.345-1.48c0.557-0.613,0.512-1.563-0.102-2.119C24.821,23.523,23.872,23.567,23.313,24.179z"/>
	<path d="M27.115,23.728c0.407,0,0.814-0.165,1.11-0.491l1.345-1.479c0.557-0.613,0.512-1.562-0.102-2.119
		c-0.61-0.556-1.562-0.513-2.119,0.102l-1.345,1.479c-0.557,0.613-0.512,1.562,0.102,2.119
		C26.394,23.599,26.755,23.728,27.115,23.728z"/>
</g>
</svg>