<?xml version="1.0" ?>
<!-- Uploaded to: SVG Repo, www.svgrepo.com, Generator: SVG Repo Mixer Tools -->
<svg fill="#000000" width="800px" height="800px" viewBox="0 0 64 64" xmlns="http://www.w3.org/2000/svg">
<title/>
<g id="Outline">
<path d="M5.89,44.18a1,1,0,0,0,.4,1,1,1,0,0,0,1,.07L9,44.36V48a1,1,0,0,0,2,0V44.45l1.49.78a.93.93,0,0,0,.46.12,1,1,0,0,0,.59-.19,1,1,0,0,0,.4-1l-.49-2.86,2.08-2A1,1,0,0,0,15,37.58l-2.87-.42L11,34.9a.24.24,0,0,0,0-.08V28.45l1.49.78a.93.93,0,0,0,.46.12,1,1,0,0,0,.59-.19,1,1,0,0,0,.4-1l-.49-2.86,2.08-2A1,1,0,0,0,15,21.58l-2.87-.42L11,18.94V14H22V25.14a4,4,0,0,0,0,7.72v7.78a4,4,0,0,0,0,7.72V53a1,1,0,0,0,2,0V48.36a4,4,0,0,0,0-7.72V32.86a4,4,0,0,0,0-7.72V14H40v9s0,0,0,0l-1,2.12-2.87.42a1,1,0,0,0-.56,1.71l2.08,2-.49,2.86a1,1,0,0,0,.4,1,1,1,0,0,0,1,.07L40,32.48v9.34A.86.86,0,0,0,40,42L39,44.16l-2.87.42a1,1,0,0,0-.56,1.71l2.08,2-.49,2.86a1,1,0,0,0,.4,1,1,1,0,0,0,1,.07L40,51.48V57a1,1,0,0,0,2,0V51.33l1.72.9a1,1,0,0,0,.46.12,1,1,0,0,0,.59-.19,1,1,0,0,0,.4-1l-.49-2.86,2.08-2a1,1,0,0,0,.25-1,1,1,0,0,0-.8-.68l-2.88-.42L42,41.56s0,0,0-.06V32.33l1.72.9a1,1,0,0,0,.46.12,1,1,0,0,0,.59-.19,1,1,0,0,0,.4-1l-.49-2.86,2.08-2a1,1,0,0,0,.25-1,1,1,0,0,0-.8-.68l-2.88-.42L42,22.56s0,0,0-.06V14H53v4.14a4,4,0,0,0,0,7.72v6.28a4,4,0,0,0,0,7.72V45a1,1,0,0,0,2,0V39.86a4,4,0,0,0,0-7.72V25.86a4,4,0,0,0,0-7.72V14h1a1,1,0,0,0,0-2H33V10.82a3,3,0,1,0-2,0V12H8a1,1,0,0,0,0,2H9v4.6L7.73,21.16l-2.87.42a1,1,0,0,0-.56,1.71l2.08,2-.49,2.86a1,1,0,0,0,.4,1,1,1,0,0,0,1,.07L9,28.36V34.6L7.73,37.16l-2.87.42a1,1,0,0,0-.56,1.71l2.08,2ZM25,44.5a2,2,0,1,1-2-2A2,2,0,0,1,25,44.5ZM25,29a2,2,0,1,1-2-2H23A2,2,0,0,1,25,29ZM42.52,46.07l1.39.2-1,1a1,1,0,0,0-.29.89l.24,1.38-1.25-.65a.93.93,0,0,0-.46-.12,1,1,0,0,0-.47.12l-1.24.65.23-1.38a1,1,0,0,0-.28-.89l-1-1,1.39-.2a1,1,0,0,0,.75-.55l.63-1.26.62,1.26A1,1,0,0,0,42.52,46.07Zm0-19,1.39.2-1,1a1,1,0,0,0-.29.89l.24,1.38-1.25-.65a.93.93,0,0,0-.46-.12,1,1,0,0,0-.47.12l-1.24.65.23-1.38a1,1,0,0,0-.28-.89l-1-1,1.39-.2a1,1,0,0,0,.75-.55l.63-1.26.62,1.26A1,1,0,0,0,42.52,27.07ZM56,36a2,2,0,1,1-2-2A2,2,0,0,1,56,36Zm0-14a2,2,0,1,1-2-2A2,2,0,0,1,56,22ZM32,7a1,1,0,1,1-1,1A1,1,0,0,1,32,7ZM8.16,24.25l-1-1,1.39-.2a1,1,0,0,0,.75-.55l.63-1.26.62,1.26a1,1,0,0,0,.75.55l1.39.2-1,1a1,1,0,0,0-.28.89l.23,1.38-1.24-.65a1,1,0,0,0-.93,0l-1.24.65.23-1.38A1,1,0,0,0,8.16,24.25Zm.38,14.82a1,1,0,0,0,.75-.55l.63-1.26.62,1.26a1,1,0,0,0,.75.55l1.39.2-1,1a1,1,0,0,0-.28.89l.23,1.38-1.24-.65a1,1,0,0,0-.93,0l-1.24.65.23-1.38a1,1,0,0,0-.28-.89l-1-1Z"/>
</g>
</svg>