<?xml version="1.0" encoding="iso-8859-1"?>
<!-- Uploaded to: SVG Repo, www.svgrepo.com, Generator: SVG Repo Mixer Tools -->
<!DOCTYPE svg PUBLIC "-//W3C//DTD SVG 1.1//EN" "http://www.w3.org/Graphics/SVG/1.1/DTD/svg11.dtd">
<svg fill="#000000" version="1.1" id="Capa_1" xmlns="http://www.w3.org/2000/svg" xmlns:xlink="http://www.w3.org/1999/xlink" 
	 width="800px" height="800px" viewBox="0 0 585.605 585.605"
	 xml:space="preserve">
<g>
	<g>
		<path d="M324.253,133.018c-43.5-2.1-86.6-0.9-129.7,2.4c-7.6-24.5-16.2-48.7-26.3-72.5c-2.1-4.9-10.4-5.8-13.5-1.8
			c-20.2,25.4-34.6,53.6-46.8,82.9c-33.7,4.3-67.3,9.2-100.7,14.1c-8.9,1.2-9.5,14.7-2.4,18.4c25.7,13.5,51.4,27.5,76.5,42.2
			c-10.1,30.6-19.9,61.2-33,90.3c-0.9,1.2-1.5,2.8-1.8,4.3c-0.6,1.5-1.5,3.4-2.1,4.9c-4,8.3,7.6,15.6,12.5,7.6
			c1.8,0,3.7-0.3,5.5-1.2c34-16.8,67-35.2,99.8-54.2c23.3,16.2,45.6,33.4,67,52c7,6.101,19.6,0.301,16.5-9.5c-8-26-15.3-52-22.3-78
			c39.8-23.3,82.6-49.3,109.199-87.2C337.152,141.018,331.053,133.317,324.253,133.018z"/>
		<path d="M195.753,450.718c-11,3.1-22.3,4.6-33.7,5.5c-3.7-7.7-8-15.301-12.9-22.301c-4.3-6.1-13.5-5.199-15.9,2.101
			s-4.9,14.7-7,22.3c-7.3,0.3-14.7,0.6-22.3,1.2c-11.9,0.899-13.8,15.899-2.8,20.2c6.1,2.399,12.2,5.199,18.4,8
			c-0.9,6.1-1.8,12.199-2.1,18.699c-1.2,1.801-2.4,3.4-3.7,5.2c-6.4,10.4,8,20.5,16.5,12.5c6.7-6.399,13.8-12.5,20.5-18.7
			c7,4.301,13.8,8.9,20.5,13.5c8.6,5.801,18.1-5.199,13.5-13.5c-3.7-6.399-6.7-12.899-9.5-19.6c8.9-6.4,18.1-12.2,28.2-17.1
			C213.453,463.518,206.453,447.617,195.753,450.718z"/>
		<path d="M512.753,60.217c-88.7,10.4-174.7,14.7-264.1,16.5c-4.3,0-4.3,6.4,0,6.4c86.6,2.4,181.5,14.1,265-15
			C517.652,66.617,517.353,59.617,512.753,60.217z"/>
		<path d="M522.253,125.417c-25.7-0.6-52.301,5.8-78,8c-11.9,0.9-24.2,0.9-36.101,0.6c-9.2-0.3-18.399-4.3-27.5-2.1
			c-0.899,0.3-1.5,1.5-0.899,2.1c10.1,14.1,42.199,10.7,56.899,10.7c27.8,0,60.601-0.6,86.9-10.1
			C528.353,133.018,527.753,125.417,522.253,125.417z"/>
		<path d="M500.253,247.518c-76.2,1.8-153.301-6.1-229.5-1.8c-4.9,0.3-4.9,7.7,0,7.7c75.899,0.9,156.1,22.3,230.699,4.3
			C507.253,256.417,506.053,247.518,500.253,247.518z"/>
		<path d="M493.753,316.317c-66.101-8-134.301,1.2-201-4.9c-4.6-0.3-5.5,7-0.9,8c64.299,10.7,137.7,16.2,202.299,8
			C500.853,326.417,501.152,317.317,493.753,316.317z"/>
		<path d="M559.853,424.018c-61.5-8-126.4,1.5-188.5,1.5c-62.7,0-124.2-15.9-186.399-3.7c-4,0.9-3.1,7.6,0.9,7.3
			c62.1-5.5,123.599,9.2,185.4,10.4c62.1,1.2,128.199,2.1,189.699-6.7C566.652,432.317,564.452,424.718,559.853,424.018z"/>
		<path d="M407.152,467.817c-56.899-12.8-119.299-7.9-177.399-6.4c-2.8,0-2.4,3.7,0,4c58.1,6.7,117.8,8.9,175.899,12.5
			C411.452,478.218,412.753,469.018,407.152,467.817z"/>
		<path d="M580.652,497.518c-122.1-22-245.7,20.8-368.699,3.399c-4.3-0.6-6.4,5.801-1.8,6.7c121.2,26.3,246-6.1,368.7,3.7
			C586.553,511.917,588.353,498.718,580.652,497.518z"/>
	</g>
</g>
</svg>