<?xml version="1.0" encoding="iso-8859-1"?>
<!-- Uploaded to: SVG Repo, www.svgrepo.com, Generator: SVG Repo Mixer Tools -->
<svg fill="#000000" height="800px" width="800px" version="1.1" id="Layer_1" xmlns="http://www.w3.org/2000/svg" xmlns:xlink="http://www.w3.org/1999/xlink" 
	 viewBox="0 0 512 512" xml:space="preserve">
<g>
	<g>
		<path d="M204.914,446.171h-0.245c-0.008,0-0.016,0-0.023,0c-5.759,0-10.435,4.664-10.448,10.427
			c-0.013,5.771,4.657,10.458,10.427,10.471h0.245c0.007,0,0.015,0,0.022,0c5.76,0,10.436-4.663,10.449-10.427
			C215.353,450.871,210.684,446.184,204.914,446.171z"/>
	</g>
</g>
<g>
	<g>
		<path d="M170.843,446.171H69.351c-5.771,0-10.449,4.678-10.449,10.449c0,5.771,4.678,10.449,10.449,10.449h101.491
			c5.771,0,10.449-4.678,10.45-10.449C181.292,450.849,176.614,446.171,170.843,446.171z"/>
	</g>
</g>
<g>
	<g>
		<path d="M445.43,368.037c13.342-13.092,21.64-31.308,21.64-51.433c0-39.755-32.343-72.098-72.098-72.098h-3.828
			c13.201-13.075,21.395-31.195,21.395-51.2c0-39.755-32.343-72.098-72.098-72.098h-34.162
			c12.83-12.862,20.775-30.598,20.775-50.155C327.053,31.875,295.178,0,256,0s-71.053,31.875-71.053,71.053
			c0,19.557,7.944,37.293,20.774,50.155h-34.162c-39.755,0-72.098,32.343-72.098,72.098c0,20.005,8.194,38.125,21.395,51.2h-3.827
			c-39.755,0-72.098,32.343-72.098,72.098c0,20.125,8.298,38.341,21.64,51.433C29.391,370.872,0,402.009,0,439.902
			C0,479.657,32.343,512,72.098,512h367.804C479.657,512,512,479.657,512,439.902C512,402.009,482.609,370.872,445.43,368.037z
			 M256,20.898c27.655,0,50.155,22.5,50.155,50.155c0,27.655-22.5,50.155-50.155,50.155c-27.655,0-50.155-22.5-50.155-50.155
			C205.845,43.398,228.345,20.898,256,20.898z M120.359,193.306c0-28.232,22.968-51.2,51.2-51.2H340.44
			c28.232,0,51.2,22.968,51.2,51.2c0,28.232-22.968,51.2-51.2,51.2H171.559C143.328,244.506,120.359,221.538,120.359,193.306z
			 M65.829,316.604c0-28.232,22.968-51.2,51.2-51.2h277.943c28.232,0,51.2,22.968,51.2,51.2s-22.968,51.2-51.2,51.2H117.029
			C88.796,367.804,65.829,344.836,65.829,316.604z M439.902,491.102H72.098c-28.232,0-51.2-22.968-51.2-51.2s22.968-51.2,51.2-51.2
			h367.804c28.232,0,51.2,22.968,51.2,51.2S468.134,491.102,439.902,491.102z"/>
	</g>
</g>
</svg>