<?xml version="1.0" encoding="iso-8859-1"?>
<!-- Uploaded to: SVG Repo, www.svgrepo.com, Generator: SVG Repo Mixer Tools -->
<svg fill="#000000" height="800px" width="800px" version="1.1" id="Layer_1" xmlns="http://www.w3.org/2000/svg" xmlns:xlink="http://www.w3.org/1999/xlink" 
	 viewBox="0 0 512 512" xml:space="preserve">
<g>
	<g>
		<path d="M394.838,316.632c-11.162-0.036-20.239,8.99-20.271,20.153c-0.032,11.163,8.992,20.236,20.154,20.268
			c11.163,0.031,20.236-8.99,20.267-20.151C415.021,325.74,405.999,316.665,394.838,316.632z"/>
	</g>
</g>
<g>
	<g>
		<path d="M408.252,270.829v-68.735c1.838-9.537,2.693-19.382,2.693-29.453c0-76.382-55.27-139.852-128-152.607V0h-26.947h-26.947
			v20.034c-72.73,12.756-128,76.223-128,152.607c0,10.073,0.853,19.917,2.693,29.453v95.682
			c-30.857,6.265-54.028,33.603-53.893,66.289c0.152,37.205,30.44,67.243,67.645,67.091c37.206-0.154,67.245-30.44,67.092-67.645
			c-0.133-32.496-23.256-59.52-53.896-65.741v-95.666h111.832v176.508c-30.75,6.242-53.895,33.427-53.895,66.018
			c0,37.205,30.162,67.368,67.368,67.368s67.368-30.164,67.368-67.368c0-32.591-23.145-59.776-53.895-66.018V202.105h111.836v68.718
			c-30.663,6.228-53.79,33.287-53.895,65.803c-0.119,37.205,29.947,67.464,67.153,67.584c37.206,0.119,67.467-29.948,67.585-67.152
			C462.253,304.392,439.087,277.089,408.252,270.829z M152.81,351.045l-17.75,17.444l4.307,24.515l-22.078-11.493l-21.982,11.674
			l4.107-24.548l-17.894-17.3l24.618-3.678l10.922-22.365l11.108,22.272L152.81,351.045z M283.261,420.248
			c-12.266,1.359-21.811,11.757-21.811,24.386c0.001,12.628,9.545,23.024,21.811,24.383c-5.788,5.183-13.429,8.337-21.811,8.337
			c-18.071,0-32.721-14.651-32.721-32.722s14.65-32.721,32.721-32.721C269.832,411.912,277.472,415.066,283.261,420.248z
			 M255.998,161.8H141.997c5.465-58.165,54.408-103.685,114.001-103.685c59.594,0,108.537,45.521,114.001,103.685H255.998z
			 M430.315,351.687l-12.605,8.223l-8.298,12.553l-14.729-3.095l-14.746,3.007l-8.226-12.603l-12.552-8.297l3.091-14.729
			l-3.009-14.744l12.602-8.228l8.301-12.553l14.729,3.096l14.748-3.01l8.224,12.603l12.553,8.3l-3.095,14.728L430.315,351.687z"/>
	</g>
</g>
</svg>